<svg width="18" height="19" viewBox="0 0 18 19" fill="none" xmlns="http://www.w3.org/2000/svg">
<path d="M12.2344 8.95361H5.76562C5.68828 8.95361 5.625 9.01689 5.625 9.09424V9.93799C5.625 10.0153 5.68828 10.0786 5.76562 10.0786H12.2344C12.3117 10.0786 12.375 10.0153 12.375 9.93799V9.09424C12.375 9.01689 12.3117 8.95361 12.2344 8.95361Z" fill="#8C8C8C"/>
<path d="M9 1.64111C4.65117 1.64111 1.125 5.16729 1.125 9.51611C1.125 13.8649 4.65117 17.3911 9 17.3911C13.3488 17.3911 16.875 13.8649 16.875 9.51611C16.875 5.16729 13.3488 1.64111 9 1.64111ZM9 16.0552C5.38945 16.0552 2.46094 13.1267 2.46094 9.51611C2.46094 5.90557 5.38945 2.97705 9 2.97705C12.6105 2.97705 15.5391 5.90557 15.5391 9.51611C15.5391 13.1267 12.6105 16.0552 9 16.0552Z" fill="#8C8C8C"/>
</svg>
