<svg width="161" height="48" viewBox="0 0 161 48" fill="none" xmlns="http://www.w3.org/2000/svg">
<path d="M148.179 0.000155999H12.8283C12.3349 0.000155999 11.8475 0.000156 11.3554 0.00255599C10.9435 0.00495598 10.5349 0.011928 10.119 0.0177959C9.21556 0.0272781 8.31425 0.0981672 7.42289 0.229847C6.53278 0.364394 5.67056 0.618053 4.86538 0.982245C4.06119 1.34952 3.32638 1.82675 2.6876 2.39663C2.04547 2.96491 1.5102 3.62176 1.10238 4.34193C0.693437 5.06067 0.409873 5.83086 0.261485 6.62591C0.111686 7.41995 0.0310773 8.22315 0.0203833 9.0283C0.00789769 9.39622 0.00657917 9.76536 0 10.1333V37.8704C0.00657917 38.243 0.00789769 38.6039 0.0203833 38.9766C0.0310806 39.7817 0.111689 40.5849 0.261485 41.3789C0.409464 42.1744 0.693044 42.945 1.10238 43.6641C1.51001 44.3819 2.04536 45.0361 2.6876 45.6012C3.32395 46.1736 4.05924 46.6512 4.86538 47.0156C5.67055 47.3808 6.53268 47.636 7.42289 47.7726C8.3144 47.9032 9.21562 47.9741 10.119 47.9848C10.5349 47.9929 10.9435 47.9976 11.3554 47.9976C11.8474 48 12.3349 48 12.8283 48H148.179C148.663 48 149.154 48 149.637 47.9976C150.047 47.9976 150.468 47.9929 150.878 47.9848C151.779 47.9747 152.679 47.9038 153.569 47.7726C154.462 47.635 155.327 47.3799 156.136 47.0156C156.941 46.651 157.676 46.1734 158.312 45.6012C158.952 45.0339 159.489 44.3802 159.902 43.6641C160.308 42.9445 160.589 42.174 160.735 41.3789C160.885 40.5848 160.968 39.7818 160.984 38.9766C160.99 38.6039 160.99 38.243 160.99 37.8704C161 37.4344 161 37.0008 161 36.5578V11.4435C161 11.004 161 10.5681 160.99 10.1333C160.99 9.76536 160.99 9.39622 160.984 9.02825C160.968 8.22304 160.885 7.42001 160.735 6.62586C160.588 5.83128 160.307 5.06114 159.902 4.34189C159.071 2.89838 157.754 1.72338 156.136 0.982137C155.327 0.618835 154.462 0.365243 153.569 0.229739C152.679 0.097479 151.78 0.0265652 150.878 0.0176279C150.468 0.011772 150.047 0.00473998 149.637 0.00239999C149.154 0 148.663 0 148.179 0V0.000155999Z" fill="#A6A6A6"/>
<path d="M9.10872 47.552L9.11248 47.552C9.52273 47.5605 9.92566 47.5654 10.3382 47.5654L149.18 47.5679H149.181L150.66 47.5654H150.661C151.064 47.5654 151.48 47.5605 151.877 47.5521L151.882 47.552C152.716 47.5427 153.549 47.4759 154.373 47.3522C155.126 47.2348 155.854 47.0141 156.533 46.698L9.10872 47.552ZM9.10872 47.552C8.27393 47.542 7.44113 47.4753 6.61718 47.3523M9.10872 47.552L6.61718 47.3523M6.61718 47.3523C5.86996 47.2339 5.14687 47.0139 4.47173 46.7001C3.80542 46.3901 3.1992 45.9844 2.67578 45.4993L2.6758 45.4993L2.67162 45.4955C2.14108 45.0165 1.70088 44.4624 1.36737 43.8557L1.36697 43.855C1.02811 43.2413 0.7942 42.5846 0.672609 41.9079L0.672542 41.9075C0.536292 41.153 0.462592 40.3902 0.452047 39.6255H0.452124L0.451857 39.6174C0.447677 39.4896 0.44273 39.2073 0.438795 38.9527C0.436843 38.8263 0.435159 38.7081 0.433964 38.6216L0.432565 38.5184L0.432191 38.49L0.432099 38.4857V38.4829V9.5013L0.432193 9.49456L0.432589 9.46667L0.434063 9.3651L0.439076 9.03959C0.443111 8.78966 0.448076 8.51276 0.451944 8.38932L0.452015 8.38932L0.452118 8.3815C0.462214 7.61818 0.535478 6.8566 0.671305 6.10332L0.671365 6.10299C0.79323 5.42412 1.02741 4.76532 1.36658 4.14941L1.367 4.14865C1.69951 3.54196 2.13755 2.98706 2.66519 2.50612L2.66519 2.50613L2.66687 2.50458C3.1948 2.01826 3.80368 1.60988 4.47182 1.29517C5.145 0.982684 5.86629 0.764468 6.61154 0.648317C7.43828 0.524101 8.27405 0.456933 9.11182 0.447393L9.11228 0.447387L10.3416 0.432099H150.652H150.654L151.896 0.448001L151.896 0.448009C152.726 0.457072 153.554 0.523619 154.373 0.647064C155.126 0.764735 155.855 0.984552 156.537 1.29882C157.875 1.93323 158.958 2.93309 159.639 4.15266C159.972 4.76386 160.202 5.41675 160.323 6.08921L160.323 6.09011C160.46 6.85015 160.537 7.6183 160.553 8.38846C160.553 8.38903 160.553 8.3896 160.553 8.39017L160.985 8.3813M6.61718 47.3523L156.534 46.6978C157.201 46.3858 157.808 45.9777 158.332 45.4902L158.336 45.487C158.86 45.0089 159.299 44.4591 159.635 43.8584C159.974 43.2401 160.206 42.5788 160.325 41.8976L160.325 41.8949C160.461 41.1487 160.536 40.3945 160.552 39.6383C160.552 39.638 160.552 39.6377 160.552 39.6374L160.984 39.6462M160.985 8.3813C160.989 8.73532 160.989 9.11548 160.989 9.49393V9.49828C161 9.96885 161 10.4167 161 10.8683V37.1304C161 37.5862 161 38.0311 160.989 38.4796C160.989 38.8876 160.989 39.2614 160.984 39.6462M160.985 8.3813C160.969 7.58767 160.89 6.79618 160.748 6.01316C160.619 5.29354 160.373 4.59594 160.017 3.94404L160.985 8.3813ZM160.984 39.6462C160.968 40.4257 160.89 41.203 160.751 41.972L160.984 39.6462Z" fill="#979797" stroke="#A6A6A6" stroke-width="0.864198"/>
<path d="M33.9088 22.8358C33.9233 21.709 34.2215 20.6042 34.7759 19.6242C35.3303 18.6441 36.1227 17.8207 37.0794 17.2305C36.4716 16.3596 35.6698 15.6428 34.7376 15.1372C33.8055 14.6315 32.7687 14.3509 31.7095 14.3177C29.4502 14.0797 27.2599 15.6742 26.1086 15.6742C24.9351 15.6742 23.1625 14.3413 21.2536 14.3807C20.019 14.4207 18.8157 14.781 17.761 15.4264C16.7064 16.0717 15.8363 16.9802 15.2356 18.0633C12.6336 22.5837 14.5745 29.2271 17.067 32.881C18.3141 34.6703 19.7716 36.6689 21.6787 36.598C23.5449 36.5203 24.2419 35.4039 26.4945 35.4039C28.7263 35.4039 29.3802 36.598 31.326 36.5529C33.3285 36.5203 34.5902 34.7558 35.7935 32.9496C36.6895 31.6747 37.379 30.2657 37.8364 28.7747C36.673 28.281 35.6802 27.4545 34.9818 26.3984C34.2833 25.3423 33.9102 24.1033 33.9088 22.8358Z" fill="white"/>
<path d="M30.2333 11.9145C31.3251 10.5993 31.863 8.90886 31.7328 7.20215C30.0647 7.37795 28.5238 8.1779 27.4172 9.44262C26.8761 10.0605 26.4617 10.7793 26.1977 11.5579C25.9337 12.3365 25.8252 13.1598 25.8784 13.9805C26.7128 13.9891 27.5382 13.8077 28.2925 13.4498C29.0469 13.0919 29.7104 12.567 30.2333 11.9145Z" fill="white"/>
<path d="M57.4996 32.0681H51.1311L49.6017 36.5993H46.9043L52.9364 19.835H55.7389L61.7711 36.5993H59.0276L57.4996 32.0681ZM51.7907 29.9771H56.8387L54.3502 22.6233H54.2806L51.7907 29.9771Z" fill="white"/>
<path d="M74.7985 30.4891C74.7985 34.2873 72.7725 36.7276 69.7151 36.7276C68.9406 36.7683 68.1703 36.5892 67.4925 36.211C66.8147 35.8329 66.2567 35.2708 65.8824 34.5892H65.8246V40.6431H63.3242V24.3772H65.7445V26.4101H65.7905C66.1819 25.7318 66.7493 25.1726 67.4323 24.7921C68.1153 24.4117 68.8883 24.2241 69.6691 24.2493C72.7606 24.2493 74.7985 26.7015 74.7985 30.4891ZM72.2286 30.4891C72.2286 28.0146 70.9541 26.3877 69.0095 26.3877C67.0991 26.3877 65.8141 28.0488 65.8141 30.4891C65.8141 32.9518 67.0991 34.6011 69.0095 34.6011C70.9541 34.6011 72.2286 32.9861 72.2286 30.4891Z" fill="white"/>
<path d="M88.2048 30.4891C88.2048 34.2873 86.1788 36.7276 83.1213 36.7276C82.3468 36.7682 81.5766 36.5892 80.8987 36.211C80.2209 35.8329 79.6629 35.2708 79.2887 34.5892H79.2308V40.6431H76.7305V24.3772H79.1507V26.4101H79.1967C79.5881 25.7318 80.1555 25.1726 80.8385 24.7921C81.5215 24.4116 82.2945 24.2241 83.0753 24.2493C86.1669 24.2493 88.2048 26.7015 88.2048 30.4891ZM85.6348 30.4891C85.6348 28.0146 84.3603 26.3877 82.4158 26.3877C80.5053 26.3877 79.2203 28.0488 79.2203 30.4891C79.2203 32.9518 80.5053 34.6011 82.4158 34.6011C84.3603 34.6011 85.6348 32.9861 85.6348 30.4891H85.6348Z" fill="white"/>
<path d="M97.0673 31.9285C97.2526 33.591 98.8621 34.6825 101.062 34.6825C103.169 34.6825 104.685 33.5909 104.685 32.092C104.685 30.7907 103.771 30.0116 101.606 29.4777L99.4402 28.9543C96.3723 28.2107 94.948 26.771 94.948 24.4349C94.948 21.5424 97.4602 19.5557 101.027 19.5557C104.558 19.5557 106.978 21.5424 107.06 24.4349H104.535C104.384 22.7619 103.006 21.7521 100.992 21.7521C98.9777 21.7521 97.5994 22.7738 97.5994 24.2609C97.5994 25.4461 98.4797 26.1435 100.633 26.6774L102.474 27.1309C105.902 27.9443 107.326 29.326 107.326 31.7781C107.326 34.9145 104.836 36.8789 100.876 36.8789C97.1711 36.8789 94.6694 34.9606 94.5078 31.9284L97.0673 31.9285Z" fill="white"/>
<path d="M112.721 21.4844V24.3769H115.037V26.3636H112.721V33.1018C112.721 34.1485 113.185 34.6363 114.203 34.6363C114.478 34.6315 114.752 34.6121 115.025 34.5783V36.5532C114.568 36.639 114.102 36.6779 113.637 36.6692C111.17 36.6692 110.209 35.7398 110.209 33.3693V26.3636H108.438V24.3769H110.209V21.4844H112.721Z" fill="white"/>
<path d="M116.379 30.4888C116.379 26.6431 118.636 24.2266 122.156 24.2266C125.688 24.2266 127.935 26.6431 127.935 30.4888C127.935 34.345 125.7 36.751 122.156 36.751C118.614 36.751 116.379 34.345 116.379 30.4888ZM125.387 30.4888C125.387 27.8507 124.182 26.2937 122.156 26.2937C120.13 26.2937 118.927 27.8626 118.927 30.4888C118.927 33.1373 120.13 34.6825 122.156 34.6825C124.182 34.6825 125.387 33.1373 125.387 30.4888H125.387Z" fill="white"/>
<path d="M129.996 24.3771H132.381V26.4574H132.439C132.6 25.8077 132.979 25.2335 133.513 24.8314C134.047 24.4292 134.702 24.2236 135.369 24.2492C135.657 24.2482 135.944 24.2796 136.225 24.3428V26.6895C135.862 26.578 135.482 26.5267 135.102 26.5379C134.739 26.5231 134.377 26.5874 134.04 26.7263C133.704 26.8651 133.402 27.0754 133.155 27.3425C132.907 27.6097 132.72 27.9274 132.606 28.2739C132.493 28.6204 132.455 28.9875 132.496 29.3499V36.5996H129.996L129.996 24.3771Z" fill="white"/>
<path d="M147.754 33.0095C147.417 35.2283 145.264 36.751 142.509 36.751C138.965 36.751 136.766 34.3687 136.766 30.5468C136.766 26.713 138.977 24.2266 142.404 24.2266C145.774 24.2266 147.893 26.5495 147.893 30.2554V31.115H139.29V31.2666C139.25 31.7164 139.306 32.1696 139.454 32.5959C139.603 33.0223 139.839 33.4122 140.149 33.7396C140.459 34.0671 140.835 34.3246 141.252 34.4951C141.669 34.6656 142.117 34.7452 142.567 34.7286C143.157 34.7841 143.75 34.6468 144.257 34.3371C144.764 34.0273 145.158 33.5617 145.38 33.0095L147.754 33.0095ZM139.301 29.3616H145.391C145.414 28.9571 145.353 28.5524 145.212 28.1727C145.071 27.7931 144.854 27.4468 144.573 27.1555C144.292 26.8642 143.955 26.6343 143.582 26.4801C143.208 26.3259 142.807 26.2508 142.404 26.2595C141.996 26.257 141.593 26.3355 141.216 26.4904C140.839 26.6453 140.497 26.8736 140.208 27.162C139.92 27.4504 139.691 27.7932 139.536 28.1708C139.38 28.5483 139.3 28.953 139.301 29.3616V29.3616Z" fill="white"/>
<path d="M50.0122 10.6222H51.0857C51.2705 10.6452 51.458 10.6297 51.6365 10.5764C51.815 10.5232 51.9806 10.4334 52.1228 10.3128C52.265 10.1921 52.3808 10.0432 52.4628 9.87548C52.5448 9.70773 52.5913 9.52475 52.5993 9.33807C52.5993 8.59518 52.0422 8.1153 51.0975 8.1153C50.9082 8.08876 50.7155 8.10054 50.5308 8.14996C50.3461 8.19939 50.1731 8.28544 50.0221 8.40305C49.8711 8.52065 49.7451 8.66742 49.6516 8.8347C49.558 9.00197 49.4988 9.18636 49.4775 9.37697H48.2989C48.3192 9.03096 48.4102 8.69285 48.5664 8.38369C48.7225 8.07452 48.9405 7.80092 49.2066 7.57992C49.4727 7.35892 49.7813 7.19525 50.1131 7.09911C50.445 7.00296 50.7931 6.97639 51.1356 7.02106C52.7162 7.02106 53.8292 7.90896 53.8292 9.18712C53.8329 9.61531 53.6901 10.0318 53.4247 10.3671C53.1592 10.7024 52.7872 10.9362 52.3707 11.0295V11.1244C52.8645 11.1464 53.3295 11.3637 53.6641 11.7287C53.9987 12.0937 54.1757 12.5768 54.1563 13.0723C54.1198 13.4286 54.0127 13.7739 53.8414 14.0881C53.6701 14.4023 53.4381 14.6791 53.1588 14.9021C52.8796 15.1252 52.5588 15.29 52.2152 15.387C51.8716 15.4841 51.5122 15.5113 51.158 15.4671C50.803 15.5157 50.442 15.492 50.0963 15.3976C49.7507 15.3031 49.4276 15.1398 49.1462 14.9174C48.8648 14.695 48.6309 14.418 48.4585 14.1029C48.2861 13.7878 48.1786 13.4412 48.1426 13.0835H49.3395C49.4118 13.8541 50.1174 14.3512 51.158 14.3512C52.1986 14.3512 52.8779 13.7929 52.8779 13.0058C52.8779 12.2075 52.238 11.7158 51.1199 11.7158H50.0122V10.6222Z" fill="white"/>
<path d="M55.5156 13.5528C55.5156 12.4586 56.3289 11.8278 57.769 11.7381L59.41 11.6432V11.1185C59.41 10.4764 58.9883 10.1139 58.1697 10.1139C57.5023 10.1139 57.0411 10.3598 56.907 10.7895H55.7495C55.8717 9.74541 56.8519 9.07568 58.2262 9.07568C59.7451 9.07568 60.6017 9.83438 60.6017 11.1185V15.272H59.4494V14.4177H59.3548C59.1628 14.7241 58.8932 14.9739 58.5735 15.1416C58.2538 15.3093 57.8955 15.3888 57.5351 15.3721C57.2808 15.3987 57.0237 15.3714 56.7805 15.2922C56.5373 15.213 56.3134 15.0835 56.1231 14.912C55.9328 14.7406 55.7805 14.5311 55.6758 14.297C55.5712 14.0629 55.5166 13.8094 55.5156 13.5528ZM59.41 13.0334V12.5252L57.9305 12.6201C57.0962 12.6761 56.7178 12.9609 56.7178 13.4968C56.7178 14.0439 57.1908 14.3623 57.8412 14.3623C58.0318 14.3816 58.2243 14.3623 58.4073 14.3055C58.5903 14.2487 58.76 14.1555 58.9064 14.0315C59.0528 13.9076 59.1728 13.7553 59.2593 13.5838C59.3458 13.4123 59.3971 13.2251 59.41 13.0334Z" fill="white"/>
<path d="M63.7757 10.2027V15.2718H62.5801V9.19287H66.5691V10.2027L63.7757 10.2027Z" fill="white"/>
<path d="M73.8158 12.2301C73.8158 14.1615 72.8423 15.3724 71.3129 15.3724C70.9374 15.3981 70.5625 15.3157 70.2322 15.1348C69.9019 14.9539 69.63 14.6821 69.4485 14.3513H69.3538V17.2933H68.1582V9.19326H69.3092V10.1979H69.3985C69.5833 9.85558 69.8588 9.57119 70.1945 9.37611C70.5303 9.18103 70.9132 9.08286 71.3011 9.09244C72.8422 9.0924 73.8158 10.298 73.8158 12.2301ZM72.586 12.2301C72.586 10.946 71.9803 10.1702 70.9673 10.1702C69.9609 10.1702 69.3315 10.9625 69.3315 12.2354C69.3315 13.5023 69.9609 14.2953 70.9621 14.2953C71.9803 14.2953 72.586 13.5194 72.586 12.2301Z" fill="white"/>
<path d="M75.4066 17.4491V16.4162C75.536 16.4327 75.6664 16.4402 75.7968 16.4386C76.0516 16.4575 76.3043 16.3814 76.5065 16.2248C76.7088 16.0682 76.8462 15.8423 76.8926 15.5902L76.982 15.2942L74.7891 9.19287H76.0911L77.6101 14.0214H77.7047L79.2183 9.19287H80.4862L78.2276 15.523C77.7099 17.0022 77.1371 17.4768 75.902 17.4768C75.8021 17.4768 75.5183 17.4656 75.4066 17.4491Z" fill="white"/>
<path d="M81.418 13.5468H82.6084C82.7253 14.0827 83.2259 14.3622 83.9262 14.3622C84.7224 14.3622 85.2112 14.0102 85.2112 13.4631C85.2112 12.8771 84.7724 12.5976 83.9262 12.5976H83.0196V11.6655H83.9104C84.6331 11.6655 85.001 11.3867 85.001 10.8785C85.001 10.4322 84.6449 10.0914 83.9104 10.0914C83.2417 10.0914 82.7529 10.3762 82.6753 10.8561H81.5231C81.6092 10.3046 81.9076 9.80918 82.3541 9.47622C82.8005 9.14326 83.3594 8.99941 83.9104 9.07562C85.3505 9.07562 86.1743 9.72887 86.1743 10.7559C86.181 11.0419 86.0897 11.3215 85.9156 11.548C85.7415 11.7746 85.4951 11.9343 85.2178 12.0004V12.0953C85.548 12.1381 85.8511 12.301 86.0696 12.5531C86.288 12.8052 86.4066 13.129 86.4029 13.4631C86.4029 14.6187 85.4227 15.3833 83.9262 15.3833C82.6031 15.3833 81.5283 14.7748 81.418 13.5468Z" fill="white"/>
<path d="M88.125 15.2718V9.19287H89.3101V13.3741H89.4047L92.1968 9.19288H93.3819V15.2718H92.1968V11.0683H92.1074L89.3101 15.2719L88.125 15.2718Z" fill="white"/>
<path d="M99.9111 10.2027H98.0032V15.2718H96.8063V10.2027H94.8984V9.19287H99.9111V10.2027Z" fill="white"/>
<path d="M106.351 13.6307C106.188 14.1863 105.836 14.6667 105.356 14.9882C104.876 15.3096 104.299 15.4517 103.725 15.3894C103.326 15.4 102.929 15.3233 102.562 15.1646C102.196 15.0059 101.868 14.7691 101.602 14.4706C101.335 14.1721 101.137 13.8189 101.02 13.4358C100.904 13.0526 100.872 12.6486 100.926 12.2517C100.873 11.8536 100.906 11.4487 101.022 11.0644C101.139 10.6801 101.336 10.3254 101.601 10.0242C101.866 9.72306 102.192 9.48253 102.557 9.3189C102.923 9.15527 103.319 9.07236 103.72 9.07579C105.405 9.07579 106.424 10.2314 106.424 12.1403V12.5589H102.146V12.6262C102.127 12.8493 102.154 13.0739 102.227 13.2856C102.3 13.4973 102.416 13.6914 102.568 13.8555C102.72 14.0195 102.904 14.1498 103.109 14.238C103.315 14.3262 103.536 14.3704 103.759 14.3676C104.045 14.4019 104.334 14.3502 104.591 14.219C104.847 14.0877 105.059 13.883 105.199 13.6307L106.351 13.6307ZM102.145 11.6716H105.204C105.219 11.4677 105.192 11.2629 105.123 11.0703C105.055 10.8777 104.947 10.7016 104.807 10.5533C104.666 10.405 104.497 10.2878 104.309 10.2092C104.12 10.1306 103.918 10.0923 103.714 10.0969C103.507 10.094 103.302 10.1329 103.11 10.211C102.919 10.2892 102.745 10.4051 102.599 10.5519C102.452 10.6987 102.337 10.8734 102.259 11.0657C102.181 11.2581 102.143 11.4641 102.146 11.6716H102.145Z" fill="white"/>
<path d="M111.42 9.19287H114.152C115.337 9.19287 116.032 9.79536 116.032 10.7386C116.034 11.0379 115.933 11.3288 115.747 11.5625C115.56 11.7963 115.3 11.9587 115.008 12.0227V12.1176C115.362 12.1401 115.694 12.298 115.935 12.5588C116.176 12.8196 116.308 13.1633 116.304 13.519C116.304 14.5797 115.509 15.2718 114.179 15.2718H111.42V9.19287ZM112.605 10.1137V11.6878H113.79C114.513 11.6878 114.858 11.409 114.858 10.8949C114.858 10.4209 114.558 10.1137 113.923 10.1137L112.605 10.1137ZM112.605 12.5699V14.351H114.023C114.73 14.351 115.108 14.0379 115.108 13.4631C115.108 12.8546 114.68 12.5699 113.873 12.5699L112.605 12.5699Z" fill="white"/>
</svg>
