<svg width="135" height="40" viewBox="0 0 135 40" fill="none" xmlns="http://www.w3.org/2000/svg">
<g clip-path="url(#clip0)">
<path d="M124.249 0.00013H10.7566C10.3429 0.00013 9.9342 0.00013 9.5216 0.00213C9.17621 0.00413 8.83358 0.00994 8.48488 0.01483C7.72733 0.0227318 6.97157 0.0818063 6.22416 0.19154C5.4778 0.303663 4.75482 0.515046 4.07967 0.81854C3.40534 1.1246 2.7892 1.5223 2.25358 1.9972C1.71514 2.47077 1.26632 3.01815 0.924356 3.61829C0.581453 4.21724 0.343683 4.85907 0.219258 5.52161C0.0936495 6.18332 0.0260586 6.85265 0.0170916 7.52361C0.00662229 7.83021 0.00551669 8.13783 0 8.44447V31.5587C0.00551669 31.8692 0.00662229 32.17 0.0170916 32.4806C0.0260614 33.1516 0.0936522 33.8209 0.219258 34.4825C0.343339 35.1455 0.581124 35.7877 0.924356 36.3868C1.26616 36.985 1.71505 37.5302 2.25358 38.0011C2.78717 38.4781 3.40371 38.8761 4.07967 39.1798C4.75481 39.4841 5.47772 39.6968 6.22416 39.8106C6.9717 39.9195 7.72738 39.9786 8.48488 39.9874C8.83358 39.9942 9.17621 39.9981 9.5216 39.9981C9.93419 40.0001 10.343 40.0001 10.7566 40.0001H124.249C124.655 40.0001 125.067 40.0001 125.472 39.9981C125.816 39.9981 126.169 39.9942 126.512 39.9874C127.268 39.9791 128.023 39.92 128.769 39.8106C129.518 39.696 130.243 39.4834 130.921 39.1798C131.597 38.8759 132.213 38.478 132.746 38.0011C133.283 37.5284 133.733 36.9836 134.079 36.3868C134.42 35.7872 134.655 35.1451 134.777 34.4825C134.903 33.8208 134.973 33.1516 134.987 32.4806C134.991 32.17 134.991 31.8692 134.991 31.5587C135 31.1954 135 30.8341 135 30.4649V9.53626C135 9.17005 135 8.80677 134.991 8.44447C134.991 8.13783 134.991 7.83021 134.987 7.52357C134.973 6.85255 134.903 6.18337 134.777 5.52157C134.655 4.85941 134.419 4.21763 134.079 3.61825C133.383 2.41533 132.278 1.43616 130.921 0.81845C130.243 0.515697 129.518 0.30437 128.769 0.19145C128.023 0.0812328 127.269 0.0221378 126.512 0.01469C126.169 0.00981 125.816 0.00395 125.472 0.002C125.067 0 124.655 0 124.249 0V0.00013Z" fill="#A6A6A6"/>
<path d="M9.54027 38.998C9.19662 38.998 8.86127 38.9941 8.52032 38.9874C7.81401 38.9793 7.10934 38.9251 6.41211 38.8254C5.76198 38.7267 5.13217 38.5433 4.54347 38.2811C3.96017 38.021 3.42815 37.68 2.96779 37.2712C2.50078 36.8671 2.11196 36.3985 1.81676 35.8839C1.5183 35.3659 1.31176 34.8107 1.20431 34.2376C1.08827 33.6218 1.0255 32.9991 1.01651 32.3749C1.00936 32.1654 1 31.4679 1 31.4679V8.51947C1 8.51947 1.00997 7.83262 1.01657 7.63083C1.02517 7.00764 1.08758 6.38594 1.20327 5.77109C1.31092 5.19642 1.51762 4.63961 1.81624 4.11994C2.11036 3.60566 2.49701 3.13669 2.96122 2.7312C3.4249 2.32186 3.95862 1.97911 4.54292 1.71547C5.13027 1.45408 5.75888 1.27193 6.4077 1.17511C7.10722 1.07434 7.81433 1.01986 8.52309 1.01213L9.54082 1H125.454L126.484 1.01262C127.186 1.01997 127.887 1.07396 128.58 1.17414C129.235 1.27217 129.87 1.45559 130.464 1.71838C131.635 2.2497 132.587 3.0903 133.188 4.12236C133.482 4.63845 133.686 5.19072 133.792 5.76042C133.909 6.38031 133.974 7.0069 133.988 7.6352C133.991 7.91653 133.991 8.21873 133.991 8.51947C134 8.892 134 9.24658 134 9.60407V30.3949C134 30.7558 134 31.1079 133.991 31.463C133.991 31.786 133.991 32.082 133.987 32.3866C133.974 33.0036 133.909 33.619 133.794 34.2278C133.689 34.8051 133.483 35.3646 133.185 35.8868C132.888 36.3959 132.501 36.8605 132.039 37.2634C131.579 37.6745 131.046 38.0175 130.461 38.2792C129.869 38.5434 129.234 38.7275 128.58 38.8254C127.882 38.9257 127.178 38.9798 126.471 38.9874C126.141 38.9941 125.795 38.998 125.459 38.998L124.237 39L9.54027 38.998Z" fill="#8C8C8C"/>
<path d="M31.8389 20.5806C31.8496 19.7459 32.072 18.9276 32.4851 18.2016C32.8983 17.4757 33.4889 16.8657 34.202 16.4285C33.749 15.7834 33.1514 15.2524 32.4566 14.8779C31.7619 14.5033 30.9891 14.2955 30.1997 14.2709C28.5157 14.0946 26.8832 15.2757 26.0251 15.2757C25.1504 15.2757 23.8292 14.2884 22.4064 14.3176C21.4862 14.3472 20.5893 14.6141 19.8033 15.0921C19.0172 15.5702 18.3687 16.2431 17.921 17.0454C15.9815 20.3938 17.4282 25.3149 19.286 28.0215C20.2155 29.3469 21.3018 30.8273 22.7232 30.7748C24.1142 30.7173 24.6337 29.8903 26.3127 29.8903C27.9761 29.8903 28.4635 30.7748 29.9138 30.7414C31.4063 30.7173 32.3467 29.4102 33.2436 28.0723C33.9115 27.1279 34.4254 26.0842 34.7663 24.9798C33.8992 24.614 33.1592 24.0019 32.6386 23.2196C32.118 22.4373 31.8399 21.5195 31.8389 20.5806Z" fill="white"/>
<path d="M29.0994 12.4906C29.9132 11.5164 30.3142 10.2642 30.2171 9C28.9738 9.13022 27.8253 9.72278 27.0005 10.6596C26.5972 11.1173 26.2884 11.6497 26.0916 12.2265C25.8948 12.8033 25.8139 13.413 25.8536 14.021C26.4754 14.0274 27.0907 13.893 27.6529 13.6279C28.2151 13.3628 28.7097 12.9739 29.0994 12.4906Z" fill="white"/>
<path d="M49.4205 27.4195H44.6739L43.5339 30.7759H41.5234L46.0194 18.3579H48.1083L52.6043 30.7759H50.5595L49.4205 27.4195ZM45.1655 25.8706H48.928L47.0732 20.4234H47.0213L45.1655 25.8706Z" fill="white"/>
<path d="M62.314 26.2497C62.314 29.0632 60.8039 30.8708 58.5251 30.8708C57.9478 30.9009 57.3737 30.7683 56.8685 30.4882C56.3633 30.208 55.9474 29.7917 55.6685 29.2868H55.6253V33.7712H53.7617V21.7224H55.5656V23.2282H55.5999C55.8917 22.7258 56.3146 22.3116 56.8236 22.0297C57.3327 21.7479 57.9089 21.6089 58.4908 21.6276C60.7951 21.6277 62.314 23.4441 62.314 26.2497ZM60.3985 26.2497C60.3985 24.4167 59.4486 23.2116 57.9992 23.2116C56.5753 23.2116 55.6175 24.4421 55.6175 26.2497C55.6175 28.0739 56.5753 29.2956 57.9992 29.2956C59.4486 29.2956 60.3985 28.0993 60.3985 26.2497Z" fill="white"/>
<path d="M72.3062 26.2497C72.3062 29.0632 70.7961 30.8708 68.5173 30.8708C67.94 30.9009 67.3659 30.7683 66.8607 30.4882C66.3555 30.208 65.9396 29.7917 65.6606 29.2868H65.6175V33.7712H63.7539V21.7224H65.5578V23.2282H65.5921C65.8838 22.7258 66.3067 22.3116 66.8158 22.0297C67.3249 21.7479 67.901 21.6089 68.483 21.6276C70.7873 21.6276 72.3062 23.444 72.3062 26.2497ZM70.3907 26.2497C70.3907 24.4167 69.4407 23.2116 67.9914 23.2116C66.5675 23.2116 65.6097 24.4421 65.6097 26.2497C65.6097 28.0739 66.5675 29.2956 67.9914 29.2956C69.4408 29.2956 70.3907 28.0993 70.3907 26.2497H70.3907Z" fill="white"/>
<path d="M78.9116 27.316C79.0497 28.5474 80.2494 29.356 81.8887 29.356C83.4595 29.356 84.5896 28.5474 84.5896 27.437C84.5896 26.4731 83.908 25.896 82.2941 25.5005L80.6802 25.1128C78.3936 24.562 77.332 23.4956 77.332 21.7651C77.332 19.6226 79.2044 18.1509 81.8632 18.1509C84.4946 18.1509 86.2985 19.6226 86.3592 21.7651H84.478C84.3653 20.5259 83.338 19.7778 81.8368 19.7778C80.3355 19.7778 79.3082 20.5347 79.3082 21.6362C79.3082 22.5142 79.9644 23.0308 81.5694 23.4262L82.9414 23.7622C85.4964 24.3647 86.558 25.3882 86.558 27.2046C86.558 29.5278 84.7022 30.9829 81.7506 30.9829C78.989 30.9829 77.1244 29.562 77.0039 27.3159L78.9116 27.316Z" fill="white"/>
<path d="M90.5792 19.5796V21.7222H92.3057V23.1938H90.5792V28.1851C90.5792 28.9604 90.9249 29.3218 91.6839 29.3218C91.8889 29.3182 92.0935 29.3039 92.2969 29.2788V30.7417C91.9557 30.8052 91.6089 30.834 91.2618 30.8276C89.4237 30.8276 88.7068 30.1391 88.7068 28.3833V23.1938H87.3867V21.7222H88.7068V19.5796H90.5792Z" fill="white"/>
<path d="M93.3066 26.2495C93.3066 23.4009 94.9891 21.6108 97.6126 21.6108C100.245 21.6108 101.92 23.4008 101.92 26.2495C101.92 29.106 100.254 30.8882 97.6126 30.8882C94.9724 30.8882 93.3066 29.1059 93.3066 26.2495ZM100.021 26.2495C100.021 24.2954 99.1227 23.1421 97.6126 23.1421C96.1025 23.1421 95.2055 24.3042 95.2055 26.2495C95.2055 28.2114 96.1025 29.356 97.6126 29.356C99.1227 29.356 100.021 28.2114 100.021 26.2495H100.021Z" fill="white"/>
<path d="M103.455 21.7223H105.233V23.2633H105.276C105.396 22.782 105.679 22.3567 106.076 22.0588C106.474 21.7609 106.962 21.6086 107.459 21.6275C107.674 21.6268 107.888 21.6501 108.098 21.6969V23.4352C107.827 23.3526 107.544 23.3146 107.261 23.3229C106.99 23.3119 106.72 23.3595 106.469 23.4624C106.219 23.5653 105.994 23.721 105.809 23.9189C105.625 24.1168 105.485 24.3522 105.401 24.6088C105.316 24.8655 105.288 25.1374 105.319 25.4059V30.776H103.455L103.455 21.7223Z" fill="white"/>
<path d="M116.69 28.1167C116.439 29.7602 114.834 30.8882 112.781 30.8882C110.139 30.8882 108.5 29.1235 108.5 26.2925C108.5 23.4526 110.148 21.6108 112.702 21.6108C115.214 21.6108 116.794 23.3315 116.794 26.0767V26.7134H110.381V26.8257C110.352 27.1589 110.393 27.4945 110.504 27.8104C110.614 28.1262 110.791 28.415 111.022 28.6576C111.253 28.9001 111.533 29.0909 111.844 29.2172C112.154 29.3435 112.488 29.4024 112.824 29.3901C113.264 29.4313 113.706 29.3296 114.084 29.1001C114.462 28.8707 114.755 28.5258 114.92 28.1167L116.69 28.1167ZM110.39 25.4145H114.929C114.946 25.115 114.9 24.8151 114.795 24.5339C114.69 24.2527 114.528 23.9962 114.319 23.7804C114.11 23.5647 113.858 23.3943 113.58 23.2801C113.302 23.1659 113.003 23.1103 112.702 23.1167C112.399 23.1149 112.098 23.173 111.817 23.2878C111.536 23.4025 111.281 23.5716 111.066 23.7852C110.851 23.9989 110.681 24.2528 110.565 24.5325C110.449 24.8121 110.389 25.1119 110.39 25.4146V25.4145Z" fill="white"/>
<path d="M42.8408 11.2534H43.6409C43.7786 11.2705 43.9184 11.259 44.0515 11.2195C44.1845 11.1801 44.3079 11.1136 44.4139 11.0242C44.5199 10.9349 44.6062 10.8246 44.6673 10.7003C44.7284 10.576 44.7631 10.4405 44.7691 10.3022C44.7691 9.75193 44.3538 9.39646 43.6497 9.39646C43.5086 9.3768 43.365 9.38553 43.2273 9.42214C43.0896 9.45875 42.9607 9.52249 42.8482 9.60961C42.7356 9.69672 42.6417 9.80544 42.572 9.92935C42.5023 10.0533 42.4581 10.1898 42.4422 10.331H41.5638C41.5789 10.0747 41.6468 9.82428 41.7631 9.59527C41.8795 9.36626 42.042 9.16359 42.2403 8.99989C42.4386 8.83618 42.6686 8.71494 42.916 8.64372C43.1634 8.5725 43.4228 8.55282 43.6781 8.58591C44.8562 8.58591 45.6857 9.24362 45.6857 10.1904C45.6885 10.5076 45.5821 10.8161 45.3842 11.0645C45.1864 11.3129 44.9091 11.486 44.5987 11.5551V11.6255C44.9667 11.6417 45.3133 11.8027 45.5627 12.073C45.8121 12.3434 45.944 12.7013 45.9295 13.0683C45.9023 13.3322 45.8225 13.588 45.6949 13.8208C45.5672 14.0535 45.3942 14.2585 45.1861 14.4237C44.9779 14.5889 44.7388 14.7111 44.4827 14.7829C44.2267 14.8548 43.9588 14.875 43.6948 14.8423C43.4302 14.8782 43.1611 14.8607 42.9035 14.7907C42.6459 14.7208 42.405 14.5998 42.1953 14.4351C41.9856 14.2703 41.8112 14.0651 41.6827 13.8317C41.5542 13.5983 41.4741 13.3415 41.4473 13.0766H42.3394C42.3933 13.6474 42.9192 14.0156 43.6948 14.0156C44.4704 14.0156 44.9767 13.6021 44.9767 13.0191C44.9767 12.4277 44.4998 12.0635 43.6664 12.0635H42.8408V11.2534Z" fill="white"/>
<path d="M46.9434 13.4243C46.9434 12.6138 47.5495 12.1465 48.6229 12.0801L49.846 12.0098V11.6211C49.846 11.1455 49.5317 10.877 48.9216 10.877C48.4241 10.877 48.0803 11.0591 47.9804 11.3774H47.1177C47.2088 10.604 47.9393 10.1079 48.9637 10.1079C50.0957 10.1079 50.7342 10.6699 50.7342 11.6211V14.6977H49.8754V14.0649H49.8049C49.6618 14.2919 49.4608 14.477 49.2225 14.6012C48.9842 14.7254 48.7171 14.7843 48.4486 14.7719C48.259 14.7916 48.0674 14.7714 47.8861 14.7127C47.7049 14.654 47.5379 14.5581 47.3961 14.4311C47.2543 14.3042 47.1407 14.149 47.0628 13.9756C46.9848 13.8021 46.9441 13.6144 46.9434 13.4243ZM49.846 13.0395V12.6631L48.7433 12.7334C48.1214 12.7749 47.8394 12.9858 47.8394 13.3828C47.8394 13.7881 48.1919 14.0239 48.6767 14.0239C48.8188 14.0383 48.9623 14.024 49.0986 13.9819C49.235 13.9398 49.3615 13.8708 49.4706 13.7789C49.5797 13.6871 49.6692 13.5743 49.7337 13.4473C49.7982 13.3202 49.8364 13.1816 49.846 13.0395Z" fill="white"/>
<path d="M53.0982 10.9429V14.6978H52.207V10.1948H55.1802V10.9428L53.0982 10.9429Z" fill="white"/>
<path d="M60.5821 12.4443C60.5821 13.875 59.8565 14.7719 58.7165 14.7719C58.4367 14.791 58.1573 14.7299 57.9111 14.5959C57.6649 14.4619 57.4622 14.2606 57.3269 14.0156H57.2564V16.1948H56.3652V10.1948H57.2231V10.939H57.2897C57.4274 10.6854 57.6327 10.4747 57.883 10.3302C58.1332 10.1857 58.4187 10.113 58.7077 10.1201C59.8565 10.1201 60.5821 11.0131 60.5821 12.4443ZM59.6655 12.4443C59.6655 11.4931 59.214 10.9184 58.459 10.9184C57.7089 10.9184 57.2398 11.5053 57.2398 12.4482C57.2398 13.3867 57.7088 13.9741 58.4551 13.9741C59.214 13.9741 59.6655 13.3994 59.6655 12.4443Z" fill="white"/>
<path d="M61.7689 16.3106V15.5454C61.8653 15.5576 61.9625 15.5632 62.0597 15.562C62.2496 15.576 62.438 15.5197 62.5887 15.4037C62.7394 15.2877 62.8419 15.1203 62.8765 14.9336L62.943 14.7144L61.3086 10.1948H62.2791L63.4112 13.7715H63.4817L64.6099 10.1948H65.5549L63.8715 14.8838C63.4856 15.9795 63.0587 16.3311 62.1381 16.3311C62.0637 16.3311 61.8521 16.3228 61.7689 16.3106Z" fill="white"/>
<path d="M66.25 13.42H67.1373C67.2244 13.817 67.5975 14.024 68.1195 14.024C68.713 14.024 69.0773 13.7633 69.0773 13.358C69.0773 12.9239 68.7502 12.7169 68.1195 12.7169H67.4438V12.0265H68.1077C68.6464 12.0265 68.9206 11.8199 68.9206 11.4435C68.9206 11.1129 68.6552 10.8605 68.1077 10.8605C67.6093 10.8605 67.245 11.0714 67.1872 11.4269H66.3283C66.3926 11.0184 66.615 10.6514 66.9477 10.4048C67.2805 10.1581 67.697 10.0516 68.1077 10.108C69.1811 10.108 69.7951 10.5919 69.7951 11.3527C69.8001 11.5645 69.732 11.7717 69.6023 11.9395C69.4725 12.1073 69.2889 12.2256 69.0821 12.2746V12.3449C69.3283 12.3765 69.5542 12.4972 69.717 12.6839C69.8799 12.8707 69.9683 13.1106 69.9655 13.358C69.9655 14.214 69.2349 14.7804 68.1195 14.7804C67.1333 14.7804 66.3323 14.3297 66.25 13.42Z" fill="white"/>
<path d="M71.248 14.6978V10.1948H72.1314V13.292H72.2019L74.2829 10.1948H75.1662V14.6978H74.2829V11.584H74.2163L72.1314 14.6978L71.248 14.6978Z" fill="white"/>
<path d="M80.033 10.9428H78.611V14.6977H77.7189V10.9428H76.2969V10.1948H80.033V10.9428Z" fill="white"/>
<path d="M84.8323 13.482C84.7109 13.8935 84.4483 14.2494 84.0905 14.4875C83.7327 14.7257 83.3024 14.8309 82.8747 14.7847C82.5772 14.7926 82.2816 14.7358 82.0083 14.6182C81.735 14.5007 81.4907 14.3253 81.2922 14.1041C81.0938 13.883 80.9459 13.6214 80.859 13.3376C80.7721 13.0538 80.7481 12.7545 80.7888 12.4605C80.7492 12.1656 80.7736 11.8657 80.8603 11.581C80.947 11.2964 81.0941 11.0336 81.2915 10.8105C81.4889 10.5874 81.7321 10.4093 82.0046 10.2881C82.277 10.1669 82.5724 10.1054 82.8708 10.108C84.1272 10.108 84.8862 10.964 84.8862 12.378V12.6881H81.6976V12.7379C81.6835 12.9032 81.7042 13.0696 81.7584 13.2264C81.8126 13.3832 81.8991 13.527 82.0124 13.6485C82.1256 13.77 82.2631 13.8665 82.416 13.9318C82.5689 13.9972 82.7338 14.0299 82.9002 14.0279C83.1132 14.0533 83.329 14.0149 83.5201 13.9177C83.7112 13.8205 83.869 13.6689 83.9735 13.482L84.8323 13.482ZM81.6976 12.0308H83.9774C83.9886 11.8798 83.9681 11.7281 83.9171 11.5854C83.866 11.4427 83.7857 11.3123 83.6811 11.2024C83.5765 11.0926 83.45 11.0058 83.3098 10.9475C83.1696 10.8893 83.0187 10.861 82.8669 10.8643C82.7127 10.8623 82.5596 10.891 82.4168 10.9489C82.274 11.0068 82.1442 11.0926 82.0352 11.2014C81.9262 11.3101 81.8402 11.4396 81.7822 11.582C81.7242 11.7245 81.6954 11.8771 81.6976 12.0308H81.6976Z" fill="white"/>
<path d="M88.6113 10.1948H90.6473C91.5306 10.1948 92.0487 10.6411 92.0487 11.3398C92.0501 11.5615 91.975 11.777 91.8362 11.9501C91.6973 12.1233 91.503 12.2436 91.2858 12.291V12.3613C91.5495 12.3779 91.7968 12.4949 91.9765 12.6881C92.1562 12.8813 92.2546 13.1359 92.2514 13.3994C92.2514 14.185 91.6589 14.6977 90.6679 14.6977H88.6113V10.1948ZM89.4947 10.877V12.043H90.378C90.9166 12.043 91.1742 11.8364 91.1742 11.4556C91.1742 11.1045 90.9499 10.8769 90.4769 10.8769L89.4947 10.877ZM89.4947 12.6963V14.0156H90.5514C91.0782 14.0156 91.3603 13.7837 91.3603 13.3579C91.3603 12.9072 91.041 12.6963 90.4397 12.6963L89.4947 12.6963Z" fill="white"/>
</g>
<defs>
<clipPath id="clip0">
<rect width="135" height="40" fill="white"/>
</clipPath>
</defs>
</svg>
