<svg width="135" height="40" viewBox="0 0 135 40" fill="none" xmlns="http://www.w3.org/2000/svg">
<g clip-path="url(#clip0_4987_4324)">
<rect width="135" height="40" rx="5" fill="#8C8C8C"/>
<path d="M124.249 0.00013H10.7566C10.3429 0.00013 9.9342 0.00013 9.5216 0.00213C9.17621 0.00413 8.83358 0.00994 8.48488 0.01483C7.72734 0.0227318 6.97157 0.0818063 6.22416 0.19154C5.4778 0.303663 4.75482 0.515046 4.07967 0.81854C3.40534 1.1246 2.7892 1.5223 2.25358 1.9972C1.71514 2.47077 1.26632 3.01815 0.924356 3.61829C0.581453 4.21724 0.343683 4.85907 0.219258 5.52161C0.0936495 6.18332 0.0260586 6.85265 0.0170916 7.52361C0.00662229 7.83021 0.00551669 8.13783 0 8.44447V31.5587C0.00551669 31.8692 0.00662229 32.17 0.0170916 32.4806C0.0260614 33.1516 0.0936522 33.8209 0.219258 34.4825C0.343339 35.1455 0.581124 35.7877 0.924356 36.3868C1.26616 36.985 1.71505 37.5302 2.25358 38.0011C2.78717 38.4781 3.40371 38.8761 4.07967 39.1798C4.75481 39.4841 5.47772 39.6968 6.22416 39.8106C6.9717 39.9195 7.72738 39.9786 8.48488 39.9874C8.83358 39.9942 9.17621 39.9981 9.5216 39.9981C9.93419 40.0001 10.343 40.0001 10.7566 40.0001H124.249C124.655 40.0001 125.067 40.0001 125.472 39.9981C125.816 39.9981 126.169 39.9942 126.512 39.9874C127.268 39.9791 128.023 39.92 128.769 39.8106C129.518 39.696 130.243 39.4834 130.921 39.1798C131.597 38.8759 132.213 38.478 132.746 38.0011C133.283 37.5284 133.733 36.9836 134.079 36.3868C134.42 35.7872 134.655 35.1451 134.777 34.4825C134.903 33.8208 134.973 33.1516 134.987 32.4806C134.991 32.17 134.991 31.8692 134.991 31.5587C135 31.1954 135 30.8341 135 30.4649V9.53626C135 9.17005 135 8.80677 134.991 8.44447C134.991 8.13783 134.991 7.83021 134.987 7.52357C134.973 6.85255 134.903 6.18337 134.777 5.52157C134.655 4.85941 134.419 4.21763 134.079 3.61825C133.383 2.41533 132.278 1.43616 130.921 0.81845C130.243 0.515697 129.518 0.30437 128.769 0.19145C128.023 0.0812328 127.269 0.0221378 126.512 0.01469C126.169 0.00981 125.816 0.00395 125.472 0.002C125.067 0 124.655 0 124.249 0V0.00013Z" fill="#8C8C8C"/>
<path d="M9.54027 38.998C9.19662 38.998 8.86127 38.9941 8.52032 38.9874C7.81401 38.9793 7.10935 38.9251 6.41211 38.8254C5.76198 38.7267 5.13217 38.5433 4.54347 38.2811C3.96017 38.021 3.42815 37.68 2.96779 37.2712C2.50078 36.8671 2.11196 36.3985 1.81676 35.8839C1.5183 35.3659 1.31176 34.8107 1.20431 34.2376C1.08827 33.6218 1.0255 32.9991 1.01651 32.3749C1.00936 32.1654 1 31.4679 1 31.4679V8.51947C1 8.51947 1.00997 7.83262 1.01657 7.63083C1.02517 7.00764 1.08758 6.38594 1.20327 5.77109C1.31092 5.19642 1.51762 4.63961 1.81624 4.11994C2.11036 3.60566 2.49701 3.13669 2.96122 2.7312C3.4249 2.32186 3.95862 1.97911 4.54292 1.71547C5.13027 1.45408 5.75888 1.27193 6.4077 1.17511C7.10722 1.07434 7.81433 1.01986 8.52309 1.01213L9.54082 1H125.454L126.484 1.01262C127.186 1.01997 127.887 1.07396 128.58 1.17414C129.235 1.27217 129.87 1.45559 130.464 1.71838C131.635 2.2497 132.587 3.0903 133.188 4.12236C133.482 4.63845 133.686 5.19072 133.792 5.76042C133.909 6.38031 133.974 7.0069 133.988 7.6352C133.991 7.91653 133.991 8.21873 133.991 8.51947C134 8.892 134 9.24658 134 9.60407V30.3949C134 30.7558 134 31.1079 133.991 31.463C133.991 31.786 133.991 32.082 133.987 32.3866C133.974 33.0036 133.909 33.619 133.794 34.2278C133.689 34.8051 133.483 35.3646 133.185 35.8868C132.888 36.3959 132.501 36.8605 132.039 37.2634C131.579 37.6745 131.046 38.0175 130.461 38.2792C129.869 38.5434 129.234 38.7275 128.58 38.8254C127.882 38.9257 127.178 38.9798 126.471 38.9874C126.141 38.9941 125.795 38.998 125.459 38.998L124.237 39L9.54027 38.998Z" fill="#8C8C8C"/>
<path d="M31.8389 20.5796C31.8496 19.745 32.072 18.9266 32.4851 18.2006C32.8983 17.4747 33.4889 16.8647 34.202 16.4276C33.749 15.7824 33.1514 15.2515 32.4566 14.8769C31.7619 14.5024 30.9891 14.2945 30.1997 14.2699C28.5157 14.0936 26.8832 15.2747 26.0251 15.2747C25.1504 15.2747 23.8292 14.2874 22.4064 14.3166C21.4862 14.3462 20.5893 14.6131 19.8033 15.0911C19.0172 15.5692 18.3687 16.2422 17.921 17.0444C15.9815 20.3929 17.4282 25.3139 19.286 28.0205C20.2155 29.3459 21.3018 30.8263 22.7232 30.7738C24.1142 30.7163 24.6337 29.8893 26.3127 29.8893C27.9761 29.8893 28.4635 30.7738 29.9138 30.7404C31.4063 30.7163 32.3467 29.4092 33.2436 28.0713C33.9115 27.1269 34.4254 26.0832 34.7663 24.9788C33.8992 24.6131 33.1592 24.0009 32.6386 23.2186C32.118 22.4363 31.8399 21.5185 31.8389 20.5796V20.5796Z" fill="white"/>
<path d="M29.0994 12.4906C29.9132 11.5164 30.3142 10.2642 30.2171 9C28.9738 9.13022 27.8253 9.72278 27.0005 10.6596C26.5972 11.1173 26.2884 11.6497 26.0916 12.2265C25.8948 12.8033 25.8139 13.413 25.8536 14.021C26.4754 14.0274 27.0907 13.893 27.6529 13.6279C28.2151 13.3628 28.7097 12.9739 29.0994 12.4906Z" fill="white"/>
<path d="M49.4205 27.419H44.6739L43.5339 30.7754H41.5234L46.0194 18.3574H48.1083L52.6043 30.7754H50.5595L49.4205 27.419ZM45.1655 25.8701H48.928L47.0732 20.4229H47.0213L45.1655 25.8701Z" fill="white"/>
<path d="M62.314 26.2487C62.314 29.0622 60.8039 30.8698 58.5251 30.8698C57.9478 30.9 57.3737 30.7673 56.8685 30.4872C56.3633 30.2071 55.9474 29.7907 55.6685 29.2858H55.6253V33.7702H53.7617V21.7214H55.5656V23.2273H55.5999C55.8917 22.7248 56.3146 22.3106 56.8236 22.0288C57.3327 21.7469 57.9089 21.608 58.4908 21.6267C60.7951 21.6267 62.314 23.4431 62.314 26.2487ZM60.3985 26.2487C60.3985 24.4157 59.4486 23.2107 57.9992 23.2107C56.5753 23.2107 55.6175 24.4411 55.6175 26.2487C55.6175 28.073 56.5753 29.2946 57.9992 29.2946C59.4486 29.2946 60.3985 28.0984 60.3985 26.2487Z" fill="white"/>
<path d="M72.3062 26.2487C72.3062 29.0622 70.7961 30.8698 68.5173 30.8698C67.94 30.8999 67.3659 30.7673 66.8607 30.4872C66.3555 30.2071 65.9396 29.7907 65.6606 29.2858H65.6175V33.7702H63.7539V21.7214H65.5578V23.2272H65.5921C65.8838 22.7248 66.3067 22.3106 66.8158 22.0288C67.3249 21.7469 67.901 21.608 68.483 21.6267C70.7873 21.6267 72.3062 23.4431 72.3062 26.2487ZM70.3907 26.2487C70.3907 24.4157 69.4407 23.2107 67.9914 23.2107C66.5675 23.2107 65.6097 24.4411 65.6097 26.2487C65.6097 28.073 66.5675 29.2946 67.9914 29.2946C69.4408 29.2946 70.3907 28.0983 70.3907 26.2487H70.3907Z" fill="white"/>
<path d="M78.9116 27.3155C79.0497 28.5469 80.2494 29.3555 81.8887 29.3555C83.4595 29.3555 84.5896 28.5469 84.5896 27.4365C84.5896 26.4727 83.908 25.8955 82.2941 25.5L80.6802 25.1123C78.3936 24.5615 77.332 23.4951 77.332 21.7647C77.332 19.6221 79.2044 18.1504 81.8632 18.1504C84.4946 18.1504 86.2985 19.6221 86.3592 21.7647H84.478C84.3653 20.5254 83.338 19.7773 81.8368 19.7773C80.3355 19.7773 79.3082 20.5342 79.3082 21.6357C79.3082 22.5137 79.9644 23.0303 81.5694 23.4258L82.9414 23.7617C85.4964 24.3642 86.558 25.3877 86.558 27.2041C86.558 29.5273 84.7022 30.9824 81.7506 30.9824C78.989 30.9824 77.1244 29.5615 77.0039 27.3154L78.9116 27.3155Z" fill="white"/>
<path d="M90.5792 19.5801V21.7227H92.3057V23.1943H90.5792V28.1855C90.5792 28.9609 90.9249 29.3223 91.6839 29.3223C91.8889 29.3187 92.0935 29.3043 92.2969 29.2793V30.7422C91.9557 30.8057 91.6089 30.8345 91.2618 30.8281C89.4237 30.8281 88.7068 30.1396 88.7068 28.3838V23.1943H87.3867V21.7227H88.7068V19.5801H90.5792Z" fill="white"/>
<path d="M93.3066 26.25C93.3066 23.4014 94.9891 21.6113 97.6126 21.6113C100.245 21.6113 101.92 23.4013 101.92 26.25C101.92 29.1064 100.254 30.8887 97.6126 30.8887C94.9724 30.8887 93.3066 29.1064 93.3066 26.25ZM100.021 26.25C100.021 24.2959 99.1227 23.1426 97.6126 23.1426C96.1025 23.1426 95.2055 24.3047 95.2055 26.25C95.2055 28.2119 96.1025 29.3564 97.6126 29.3564C99.1227 29.3564 100.021 28.2119 100.021 26.25H100.021Z" fill="white"/>
<path d="M103.455 21.7213H105.233V23.2623H105.276C105.396 22.781 105.679 22.3557 106.076 22.0578C106.474 21.7599 106.962 21.6076 107.459 21.6266C107.674 21.6258 107.888 21.6491 108.098 21.6959V23.4342C107.827 23.3516 107.544 23.3136 107.261 23.3219C106.99 23.3109 106.72 23.3585 106.469 23.4614C106.219 23.5643 105.994 23.72 105.809 23.9179C105.625 24.1158 105.485 24.3512 105.401 24.6079C105.316 24.8645 105.288 25.1364 105.319 25.4049V30.775H103.455L103.455 21.7213Z" fill="white"/>
<path d="M116.69 28.1172C116.439 29.7607 114.834 30.8887 112.781 30.8887C110.139 30.8887 108.5 29.124 108.5 26.293C108.5 23.4531 110.148 21.6113 112.702 21.6113C115.214 21.6113 116.794 23.332 116.794 26.0771V26.7139H110.381V26.8262C110.352 27.1594 110.393 27.495 110.504 27.8109C110.614 28.1267 110.791 28.4155 111.022 28.658C111.253 28.9006 111.533 29.0914 111.844 29.2177C112.154 29.344 112.488 29.4029 112.824 29.3906C113.264 29.4318 113.706 29.3301 114.084 29.1006C114.462 28.8712 114.755 28.5263 114.92 28.1172L116.69 28.1172ZM110.39 25.415H114.929C114.946 25.1154 114.9 24.8156 114.795 24.5344C114.69 24.2532 114.528 23.9967 114.319 23.7809C114.11 23.5651 113.858 23.3948 113.58 23.2806C113.302 23.1664 113.003 23.1107 112.702 23.1172C112.399 23.1154 112.098 23.1735 111.817 23.2883C111.536 23.403 111.281 23.5721 111.066 23.7857C110.851 23.9993 110.681 24.2533 110.565 24.533C110.449 24.8126 110.389 25.1124 110.39 25.415V25.415Z" fill="white"/>
<path d="M42.8408 11.2534H43.6409C43.7786 11.2705 43.9184 11.259 44.0515 11.2195C44.1845 11.1801 44.3079 11.1136 44.4139 11.0242C44.5199 10.9349 44.6062 10.8246 44.6673 10.7003C44.7284 10.576 44.7631 10.4405 44.7691 10.3022C44.7691 9.75193 44.3538 9.39646 43.6497 9.39646C43.5086 9.3768 43.365 9.38553 43.2273 9.42214C43.0896 9.45875 42.9607 9.52249 42.8482 9.60961C42.7356 9.69672 42.6417 9.80544 42.572 9.92935C42.5023 10.0533 42.4581 10.1898 42.4422 10.331H41.5638C41.5789 10.0747 41.6468 9.82428 41.7631 9.59527C41.8795 9.36626 42.042 9.16359 42.2403 8.99989C42.4386 8.83618 42.6686 8.71494 42.916 8.64372C43.1634 8.5725 43.4228 8.55282 43.6781 8.58591C44.8562 8.58591 45.6857 9.24362 45.6857 10.1904C45.6885 10.5076 45.5821 10.8161 45.3842 11.0645C45.1864 11.3129 44.9091 11.486 44.5987 11.5551V11.6255C44.9667 11.6417 45.3133 11.8027 45.5627 12.073C45.8121 12.3434 45.944 12.7013 45.9295 13.0683C45.9023 13.3322 45.8225 13.588 45.6949 13.8208C45.5672 14.0535 45.3942 14.2585 45.1861 14.4237C44.9779 14.5889 44.7388 14.7111 44.4827 14.7829C44.2267 14.8548 43.9588 14.875 43.6948 14.8423C43.4302 14.8782 43.1611 14.8607 42.9035 14.7907C42.6459 14.7208 42.405 14.5998 42.1953 14.4351C41.9856 14.2703 41.8112 14.0651 41.6827 13.8317C41.5542 13.5983 41.4741 13.3415 41.4473 13.0766H42.3394C42.3933 13.6474 42.9192 14.0156 43.6948 14.0156C44.4704 14.0156 44.9767 13.6021 44.9767 13.0191C44.9767 12.4277 44.4998 12.0635 43.6664 12.0635H42.8408V11.2534Z" fill="white"/>
<path d="M46.9434 13.4238C46.9434 12.6133 47.5495 12.146 48.6229 12.0796L49.846 12.0093V11.6206C49.846 11.145 49.5317 10.8765 48.9216 10.8765C48.4241 10.8765 48.0803 11.0586 47.9804 11.377H47.1177C47.2088 10.6035 47.9393 10.1074 48.9637 10.1074C50.0957 10.1074 50.7342 10.6694 50.7342 11.6206V14.6973H49.8754V14.0645H49.8049C49.6618 14.2914 49.4608 14.4765 49.2225 14.6007C48.9842 14.7249 48.7171 14.7838 48.4486 14.7715C48.259 14.7911 48.0674 14.7709 47.8861 14.7122C47.7049 14.6535 47.5379 14.5576 47.3961 14.4307C47.2543 14.3037 47.1407 14.1485 47.0628 13.9751C46.9848 13.8017 46.9441 13.6139 46.9434 13.4238V13.4238ZM49.846 13.0391V12.6626L48.7433 12.7329C48.1214 12.7744 47.8394 12.9853 47.8394 13.3823C47.8394 13.7876 48.1919 14.0234 48.6767 14.0234C48.8188 14.0378 48.9623 14.0235 49.0986 13.9814C49.235 13.9393 49.3615 13.8703 49.4706 13.7784C49.5797 13.6866 49.6692 13.5738 49.7337 13.4468C49.7982 13.3198 49.8364 13.1811 49.846 13.0391V13.0391Z" fill="white"/>
<path d="M53.0982 10.9434V14.6982H52.207V10.1953H55.1802V10.9433L53.0982 10.9434Z" fill="white"/>
<path d="M60.5821 12.4438C60.5821 13.8745 59.8565 14.7714 58.7165 14.7714C58.4367 14.7905 58.1573 14.7294 57.9111 14.5954C57.6649 14.4614 57.4622 14.2601 57.3269 14.0151H57.2564V16.1943H56.3652V10.1943H57.2231V10.9385H57.2897C57.4274 10.6849 57.6327 10.4742 57.883 10.3297C58.1332 10.1852 58.4187 10.1125 58.7077 10.1196C59.8565 10.1196 60.5821 11.0126 60.5821 12.4438ZM59.6655 12.4438C59.6655 11.4926 59.214 10.9179 58.459 10.9179C57.7089 10.9179 57.2398 11.5048 57.2398 12.4477C57.2398 13.3862 57.7088 13.9736 58.4551 13.9736C59.214 13.9736 59.6655 13.3989 59.6655 12.4438Z" fill="white"/>
<path d="M61.7689 16.311V15.5459C61.8653 15.5581 61.9625 15.5637 62.0597 15.5625C62.2496 15.5765 62.438 15.5201 62.5887 15.4042C62.7394 15.2882 62.8419 15.1208 62.8765 14.9341L62.943 14.7148L61.3086 10.1953H62.2791L63.4112 13.772H63.4817L64.6099 10.1953H65.5549L63.8715 14.8843C63.4856 15.98 63.0587 16.3316 62.1381 16.3316C62.0637 16.3315 61.8521 16.3232 61.7689 16.311Z" fill="white"/>
<path d="M66.25 13.4205H67.1373C67.2244 13.8175 67.5975 14.0245 68.1195 14.0245C68.713 14.0245 69.0773 13.7638 69.0773 13.3585C69.0773 12.9244 68.7502 12.7174 68.1195 12.7174H67.4438V12.027H68.1077C68.6464 12.027 68.9206 11.8204 68.9206 11.444C68.9206 11.1134 68.6552 10.861 68.1077 10.861C67.6093 10.861 67.245 11.0719 67.1872 11.4274H66.3283C66.3926 11.0189 66.615 10.6519 66.9477 10.4053C67.2805 10.1586 67.697 10.0521 68.1077 10.1085C69.1811 10.1085 69.7951 10.5924 69.7951 11.3532C69.8001 11.565 69.732 11.7721 69.6023 11.9399C69.4725 12.1077 69.2889 12.226 69.0821 12.275V12.3454C69.3283 12.377 69.5542 12.4977 69.717 12.6844C69.8799 12.8712 69.9683 13.1111 69.9655 13.3585C69.9655 14.2145 69.2349 14.7809 68.1195 14.7809C67.1333 14.7809 66.3323 14.3302 66.25 13.4205Z" fill="white"/>
<path d="M71.248 14.6982V10.1953H72.1314V13.2925H72.2019L74.2829 10.1953H75.1662V14.6983H74.2829V11.5845H74.2163L72.1314 14.6983L71.248 14.6982Z" fill="white"/>
<path d="M80.033 10.9433H78.611V14.6982H77.7189V10.9433H76.2969V10.1953H80.033V10.9433Z" fill="white"/>
<path d="M84.8323 13.4815C84.7109 13.893 84.4483 14.2489 84.0905 14.4871C83.7327 14.7252 83.3024 14.8304 82.8747 14.7843C82.5772 14.7921 82.2816 14.7353 82.0083 14.6177C81.735 14.5002 81.4907 14.3248 81.2922 14.1036C81.0938 13.8825 80.9459 13.621 80.859 13.3371C80.7721 13.0533 80.7481 12.754 80.7888 12.46C80.7492 12.1652 80.7736 11.8652 80.8603 11.5805C80.947 11.2959 81.0941 11.0331 81.2915 10.81C81.4889 10.587 81.7321 10.4088 82.0046 10.2876C82.277 10.1664 82.5724 10.105 82.8708 10.1075C84.1272 10.1075 84.8862 10.9635 84.8862 12.3775V12.6876H81.6976V12.7374C81.6835 12.9027 81.7042 13.0691 81.7584 13.2259C81.8126 13.3827 81.8991 13.5265 82.0124 13.648C82.1256 13.7695 82.2631 13.866 82.416 13.9313C82.5689 13.9967 82.7338 14.0294 82.9002 14.0274C83.1132 14.0528 83.329 14.0145 83.5201 13.9173C83.7112 13.82 83.869 13.6684 83.9735 13.4815L84.8323 13.4815ZM81.6976 12.0304H83.9774C83.9886 11.8793 83.9681 11.7276 83.9171 11.5849C83.866 11.4422 83.7857 11.3118 83.6811 11.202C83.5765 11.0921 83.45 11.0053 83.3098 10.9471C83.1696 10.8888 83.0187 10.8605 82.8669 10.8639C82.7127 10.8618 82.5596 10.8905 82.4168 10.9484C82.274 11.0063 82.1442 11.0921 82.0352 11.2009C81.9262 11.3096 81.8402 11.4391 81.7822 11.5815C81.7242 11.724 81.6954 11.8766 81.6976 12.0304H81.6976Z" fill="white"/>
<path d="M88.6113 10.1953H90.6473C91.5306 10.1953 92.0487 10.6416 92.0487 11.3403C92.0501 11.562 91.975 11.7775 91.8362 11.9506C91.6973 12.1238 91.503 12.2441 91.2858 12.2915V12.3618C91.5495 12.3784 91.7968 12.4954 91.9765 12.6886C92.1562 12.8818 92.2546 13.1364 92.2514 13.3999C92.2514 14.1855 91.6589 14.6982 90.6679 14.6982H88.6113V10.1953ZM89.4947 10.8774V12.0434H90.378C90.9166 12.0434 91.1742 11.8369 91.1742 11.456C91.1742 11.105 90.9499 10.8774 90.4769 10.8774L89.4947 10.8774ZM89.4947 12.6968V14.0161H90.5514C91.0782 14.0161 91.3603 13.7842 91.3603 13.3584C91.3603 12.9077 91.041 12.6968 90.4397 12.6968L89.4947 12.6968Z" fill="white"/>
</g>
<defs>
<clipPath id="clip0_4987_4324">
<rect width="135" height="40" fill="white"/>
</clipPath>
</defs>
</svg>
