<svg width="36" height="36" viewBox="0 0 36 36" fill="none" xmlns="http://www.w3.org/2000/svg">
<path d="M36 18C36 27.9425 27.9425 36 18 36C8.05749 36 0 27.9385 0 18C0 8.05749 8.05749 0 18 0C27.9425 0 36 8.05749 36 18Z" fill="#979797"/>
<path fill-rule="evenodd" clip-rule="evenodd" d="M17.3186 25.8931H18.7304C18.7304 25.8931 19.1555 25.845 19.3761 25.6124C19.5766 25.3958 19.5686 24.9907 19.5686 24.9907C19.5686 24.9907 19.5405 23.0936 20.4189 22.8169C21.2852 22.5402 22.4002 24.6498 23.5793 25.46C24.4737 26.0736 25.1515 25.9412 25.1515 25.9412L28.3079 25.8971C28.3079 25.8971 29.9603 25.7969 29.1742 24.4974C29.1101 24.3891 28.717 23.5388 26.828 21.7821C24.8507 19.9452 25.1154 20.242 27.4978 17.0656C28.9496 15.1324 29.5312 13.9493 29.3507 13.4439C29.1782 12.9626 28.1114 13.091 28.1114 13.091L24.5579 13.115C24.5579 13.115 24.2932 13.0789 24.1007 13.1952C23.9082 13.3116 23.7879 13.5763 23.7879 13.5763C23.7879 13.5763 23.2264 15.0763 22.4764 16.3476C20.8962 19.0348 20.2625 19.1752 20.0018 19.0108C19.4002 18.6217 19.5526 17.4466 19.5526 16.6124C19.5526 14.0094 19.9456 12.9225 18.7825 12.6418C18.3975 12.5495 18.1127 12.4853 17.1261 12.4773C15.8587 12.4653 14.7839 12.4813 14.1742 12.7781C13.7692 12.9747 13.4563 13.4158 13.6488 13.4439C13.8855 13.476 14.4189 13.5883 14.6996 13.9733C15.0646 14.4666 15.0526 15.5816 15.0526 15.5816C15.0526 15.5816 15.2611 18.6458 14.5633 19.0268C14.082 19.2875 13.4282 18.7541 12.0165 16.3156C11.2946 15.0682 10.7491 13.6886 10.7491 13.6886C10.7491 13.6886 10.6448 13.4319 10.4563 13.2915C10.2277 13.123 9.91087 13.0709 9.91087 13.0709L6.53386 13.091C6.53386 13.091 6.0245 13.107 5.84001 13.3276C5.67557 13.5241 5.82798 13.9292 5.82798 13.9292C5.82798 13.9292 8.46301 20.1057 11.459 23.222C14.2023 26.0816 17.3186 25.8931 17.3186 25.8931Z" fill="white"/>
</svg>
