<svg width="18" height="18" viewBox="0 0 18 18" fill="none" xmlns="http://www.w3.org/2000/svg">
<g clip-path="url(#clip0_840_11718)">
<path d="M4.4085 7.4094C4.19942 7.61835 4.03355 7.86645 3.92039 8.13953C3.80723 8.41261 3.74898 8.70531 3.74898 9.0009C3.74898 9.2965 3.80723 9.5892 3.92039 9.86227C4.03355 10.1353 4.19941 10.3835 4.4085 10.5924L6.81675 13.0007C6.95956 13.1298 7.14655 13.199 7.33901 13.1941C7.53147 13.1891 7.71466 13.1104 7.85065 12.9741C7.98664 12.8378 8.06501 12.6545 8.06955 12.462C8.07408 12.2695 8.00442 12.0827 7.875 11.9402L5.67975 9.74565L17.25 9.7509C17.4489 9.7509 17.6397 9.67188 17.7803 9.53123C17.921 9.39058 18 9.19981 18 9.0009V9.0009C18 8.80199 17.921 8.61122 17.7803 8.47057C17.6397 8.32992 17.4489 8.2509 17.25 8.2509L5.694 8.24415L7.875 6.06165C8.01563 5.92092 8.0946 5.73009 8.09453 5.53114C8.09446 5.33218 8.01536 5.14141 7.87463 5.00078C7.73389 4.86015 7.54306 4.78118 7.34411 4.78125C7.14516 4.78132 6.95438 4.86042 6.81375 5.00115L4.4085 7.4094Z" fill="white"/>
<path d="M6 17.25C6 17.0511 5.92098 16.8603 5.78033 16.7197C5.63968 16.579 5.44891 16.5 5.25 16.5L2.25 16.5C2.05109 16.5 1.86032 16.421 1.71967 16.2803C1.57902 16.1397 1.5 15.9489 1.5 15.75L1.5 2.25C1.5 2.05109 1.57902 1.86032 1.71967 1.71967C1.86032 1.57902 2.05109 1.5 2.25 1.5L5.25 1.5C5.44891 1.5 5.63968 1.42098 5.78033 1.28033C5.92098 1.13968 6 0.948912 6 0.75C6 0.551088 5.92098 0.360322 5.78033 0.21967C5.63968 0.0790176 5.44891 -2.40888e-08 5.25 -3.27835e-08L2.25 -1.63918e-07C1.65326 -1.90002e-07 1.08097 0.237053 0.659009 0.659009C0.237052 1.08097 -7.22664e-08 1.65326 -9.83506e-08 2.25L-6.88454e-07 15.75C-7.14539e-07 16.3467 0.237052 16.919 0.659009 17.341C1.08097 17.7629 1.65326 18 2.25 18L5.25 18C5.44891 18 5.63968 17.921 5.78033 17.7803C5.92098 17.6397 6 17.4489 6 17.25Z" fill="white"/>
</g>
<defs>
<clipPath id="clip0_840_11718">
<rect width="18" height="18" fill="white" transform="translate(18) rotate(90)"/>
</clipPath>
</defs>
</svg>
