<svg width="14" height="16" viewBox="0 0 14 16" fill="none" xmlns="http://www.w3.org/2000/svg">
<path d="M10.334 9.33335C10.334 9.51016 10.2637 9.67973 10.1387 9.80475C10.0137 9.92978 9.84413 10 9.66732 10H4.33398C4.15717 10 3.9876 9.92978 3.86258 9.80475C3.73756 9.67973 3.66732 9.51016 3.66732 9.33335C3.66732 9.15654 3.73756 8.98697 3.86258 8.86194C3.9876 8.73692 4.15717 8.66668 4.33398 8.66668H9.66732C9.84413 8.66668 10.0137 8.73692 10.1387 8.86194C10.2637 8.98697 10.334 9.15654 10.334 9.33335ZM7.66732 11.3333H4.33398C4.15717 11.3333 3.9876 11.4036 3.86258 11.5286C3.73756 11.6536 3.66732 11.8232 3.66732 12C3.66732 12.1768 3.73756 12.3464 3.86258 12.4714C3.9876 12.5964 4.15717 12.6667 4.33398 12.6667H7.66732C7.84413 12.6667 8.0137 12.5964 8.13872 12.4714C8.26375 12.3464 8.33398 12.1768 8.33398 12C8.33398 11.8232 8.26375 11.6536 8.13872 11.5286C8.0137 11.4036 7.84413 11.3333 7.66732 11.3333ZM13.6673 6.99002V12.6667C13.6663 13.5504 13.3147 14.3976 12.6898 15.0225C12.0649 15.6474 11.2177 15.999 10.334 16H3.66732C2.78359 15.999 1.93636 15.6474 1.31146 15.0225C0.686572 14.3976 0.335043 13.5504 0.333984 12.6667V3.33335C0.335043 2.44962 0.686572 1.60239 1.31146 0.977495C1.93636 0.352603 2.78359 0.00107394 3.66732 1.53658e-05H6.67732C7.2904 -0.00156258 7.89771 0.118407 8.46413 0.352988C9.03056 0.587569 9.54487 0.932107 9.97732 1.36668L12.3 3.69068C12.7348 4.12284 13.0796 4.63699 13.3143 5.20333C13.549 5.76968 13.669 6.37696 13.6673 6.99002ZM9.03465 2.30935C8.82484 2.10612 8.58927 1.9313 8.33398 1.78935V4.66668C8.33398 4.84349 8.40422 5.01306 8.52925 5.13809C8.65427 5.26311 8.82384 5.33335 9.00065 5.33335H11.878C11.736 5.07814 11.5609 4.84278 11.3573 4.63335L9.03465 2.30935ZM12.334 6.99002C12.334 6.88002 12.3127 6.77468 12.3027 6.66668H9.00065C8.47022 6.66668 7.96151 6.45597 7.58644 6.0809C7.21136 5.70582 7.00065 5.19711 7.00065 4.66668V1.36468C6.89265 1.35468 6.78665 1.33335 6.67732 1.33335H3.66732C3.13688 1.33335 2.62818 1.54406 2.2531 1.91914C1.87803 2.29421 1.66732 2.80292 1.66732 3.33335V12.6667C1.66732 13.1971 1.87803 13.7058 2.2531 14.0809C2.62818 14.456 3.13688 14.6667 3.66732 14.6667H10.334C10.8644 14.6667 11.3731 14.456 11.7482 14.0809C12.1233 13.7058 12.334 13.1971 12.334 12.6667V6.99002Z" fill="white"/>
</svg>
