<svg width="107" height="107" viewBox="0 0 107 107" fill="none" xmlns="http://www.w3.org/2000/svg">
<path d="M73.2451 106.2L73.2451 100.619L62.0842 100.619L62.0842 106.2L73.2451 106.2Z" fill="white"/>
<path d="M34.2799 100.619L34.2799 106.2L39.8604 106.2L39.8604 100.619L34.2799 100.619Z" fill="white"/>
<path d="M95.5671 66.2554L95.5671 71.8359L101.148 71.8359L101.148 66.2554L95.5671 66.2554Z" fill="white"/>
<path d="M50.9236 100.619L50.9236 106.2L56.5041 106.2L56.5041 100.619L62.0845 100.619L62.0845 89.4585L67.665 89.4585L67.665 83.9759L62.0845 83.9759L62.0845 78.3955L50.9236 78.3955L50.9236 83.9759L56.5041 83.9759L56.5041 95.0389L39.7627 95.0389L39.7627 100.619L50.9236 100.619Z" fill="white"/>
<path d="M34.2799 95.039L39.7627 95.0389L39.7625 83.976L34.2799 83.976L34.2799 95.039Z" fill="white"/>
<path d="M79.0214 61.4582L73.441 61.4582L73.441 67.4303L79.0214 67.4303L79.0214 61.4582Z" fill="white"/>
<path d="M39.7627 78.3958L39.7625 83.976L45.3431 83.9762L45.3431 78.3958L39.7627 78.3958Z" fill="white"/>
<path d="M62.0842 39.3322L62.0842 44.9127L67.6646 44.9127L67.6646 39.3322L62.0842 39.3322Z" fill="white"/>
<path d="M0.797243 33.7521L0.797243 39.3325L6.3777 39.3325L6.3777 33.7521L0.797243 33.7521Z" fill="white"/>
<path d="M45.3431 67.2347L39.7626 67.2347L39.7626 61.6542L34.2801 61.6542L34.2801 67.2347L28.6996 67.2347L28.6996 72.8151L34.2801 72.8151L34.2801 78.3956L39.7627 78.3958L39.7626 72.8151L62.0844 72.8151L62.0844 67.2347L50.9235 67.2347L50.9235 61.6542L45.3431 61.6542L45.3431 67.2347Z" fill="white"/>
<path d="M101.05 33.8497L95.4691 33.8497L95.4691 39.3322L95.4691 44.9127L101.05 44.9127L101.05 33.8497Z" fill="white"/>
<path d="M0.797243 44.9129L0.797243 50.4933L6.3777 50.4933L6.3777 44.9129L0.797243 44.9129Z" fill="white"/>
<path d="M45.3429 46.3812L39.7625 46.3812L39.7625 51.8638L34.2799 51.8638L34.2799 57.4442L45.3429 57.4442L45.3429 63.0247L50.9234 63.0247L50.9234 51.8638L45.3429 51.8638L45.3429 46.3812Z" fill="white"/>
<path d="M34.2799 14.8566L34.2799 20.437L39.8604 20.437L39.8604 14.8566L34.2799 14.8566Z" fill="white"/>
<path d="M62.0842 72.6191L62.0842 78.1996L67.6646 78.1996L67.6646 72.6191L62.0842 72.6191Z" fill="white"/>
<path d="M28.6993 50.4932L23.1189 50.4932L23.1189 44.9128L17.5384 44.9128L17.5384 33.8498L11.958 33.8498L11.958 39.3323L6.3777 39.3325L6.3777 44.9129L11.958 44.9128L11.958 50.4932L17.5384 50.4932L17.5384 56.0737L23.1189 56.0737L23.1189 61.6541L28.6993 61.6541L28.6993 50.4932Z" fill="white"/>
<path d="M67.6648 50.4932L62.0843 50.4932L62.0842 44.9127L56.5039 44.9128L56.5039 56.0737L62.0843 56.0737L62.0843 61.6541L67.6648 61.6541L67.6648 50.4932Z" fill="white"/>
<path d="M89.8886 33.85L84.4061 33.85L84.4061 44.913L78.8256 44.913L78.8256 50.4934L84.4061 50.4934L84.4061 56.0739L89.8886 56.0739L89.8886 67.2348L95.4691 67.2348L95.4691 50.4934L89.8886 50.4934L89.8886 44.913L95.4691 44.9127L95.4691 39.3322L89.8886 39.3325L89.8886 33.85Z" fill="white"/>
<path d="M6.3777 56.0736L0.797244 56.0736L0.797244 67.2345L6.3777 67.2345L6.3777 72.8149L11.9582 72.8149L11.9581 61.654L6.3777 61.654L6.3777 56.0736Z" fill="white"/>
<path d="M11.9582 56.0737L11.9581 61.654L17.5386 61.6541L17.5384 56.0737L11.9582 56.0737Z" fill="white"/>
<path d="M34.28 42.1718L34.28 47.7522L50.9235 47.7522L50.9235 36.5914L45.343 36.5914L45.343 42.1718L39.7626 42.1718L39.7626 36.5914L34.28 36.5914L34.28 31.0109L28.6996 31.0109L28.6996 36.5914L23.1191 36.5914L23.1191 42.1718L34.28 42.1718Z" fill="white"/>
<path d="M17.5386 61.6541L17.5384 67.2348L23.1189 67.2348L23.1189 61.6541L17.5386 61.6541Z" fill="white"/>
<path d="M73.2453 44.9127L78.8257 44.9127L78.8257 33.8497L73.2453 33.8497L73.2453 22.6888L67.6648 22.6888L67.6646 39.3322L73.2453 39.3322L73.2453 44.9127Z" fill="white"/>
<path d="M50.9233 14.8566L50.9233 20.437L56.5037 20.437L56.5037 14.8566L50.9233 14.8566Z" fill="white"/>
<path d="M56.5039 33.7521L56.5039 39.3325L62.0843 39.3325L62.0843 33.7521L56.5039 33.7521Z" fill="white"/>
<path d="M39.7627 19.8499L39.7627 31.0108L45.3431 31.0108L45.3431 25.4303L50.9236 25.4303L50.9236 19.8499L39.7627 19.8499Z" fill="white"/>
<path d="M56.5039 22.6888L56.5039 28.2693L62.0844 28.2693L62.0844 22.6888L56.5039 22.6888Z" fill="white"/>
<path d="M89.9867 83.9761L89.9867 67.2348L67.567 67.2348L67.567 89.6545L73.1474 89.6545L73.1474 95.137L78.7279 95.137L78.7279 89.6545L84.3083 89.6545L84.3083 95.137L89.8888 95.137L89.8888 89.6545L89.9867 89.6545L89.9867 89.5566L95.4692 89.5566L95.4692 95.137L106.63 95.137L106.63 89.5566L101.05 89.5566L101.05 83.9761L89.9867 83.9761ZM71.9726 71.5425L85.8747 71.5425L85.8747 85.4447L71.9726 85.4447L71.9726 71.5425Z" fill="white"/>
<path d="M67.6646 5.94772L62.0842 5.94772L62.0844 22.6888L67.6646 22.6891L67.6646 5.94772Z" fill="white"/>
<path d="M45.3429 11.5283L45.3429 5.9478L34.2799 5.9478L34.2799 11.5283L45.3429 11.5283Z" fill="white"/>
<path d="M73.441 55.8782L73.441 61.4586L84.6019 61.4586L84.6019 55.8782L73.441 55.8782Z" fill="white"/>
<path d="M67.6648 0.367188L67.6646 5.94772L73.2453 5.94762L73.2453 0.367188L67.6648 0.367188Z" fill="white"/>
<path d="M50.9233 0.367198L50.9233 5.94763L62.0842 5.94772L62.0842 0.367198L50.9233 0.367198Z" fill="white"/>
<path d="M95.4691 100.619L95.4691 106.2L106.63 106.2L106.63 100.619L95.4691 100.619Z" fill="white"/>
<path d="M28.6995 0.367371L0.797241 0.367372L0.797242 28.1717L28.6016 28.1717L28.6016 0.367371L28.6995 0.367371ZM24.4897 24.0598L5.00706 24.0598L5.00706 4.57717L24.4897 4.57717L24.4897 24.0598Z" fill="white"/>
<path d="M9.21675 8.68909L9.21675 19.85L20.3777 19.85L20.3776 8.68909L9.21675 8.68909Z" fill="white"/>
<path d="M78.8256 0.367369L78.8256 28.1717L106.63 28.1717L106.63 0.367367L78.8256 0.367369ZM102.42 24.0598L82.9375 24.0598L82.9375 4.57717L102.42 4.57717L102.42 24.0598Z" fill="white"/>
<path d="M87.1474 8.6891L87.1474 19.85L98.3083 19.85L98.3083 8.6891L87.1474 8.6891Z" fill="white"/>
<path d="M0.797246 106.298L28.6016 106.298L28.6016 78.4935L0.797245 78.4935L0.797246 106.298ZM5.00706 82.6054L24.4897 82.6054L24.4897 102.088L5.00706 102.088L5.00706 82.6054Z" fill="white"/>
<path d="M9.21675 86.7172L9.21675 97.8781L20.3777 97.8781L20.3777 86.7172L9.21675 86.7172Z" fill="white"/>
</svg>
