<svg width="83" height="245" viewBox="0 0 83 245" fill="none" xmlns="http://www.w3.org/2000/svg">
<path d="M75.9752 0.333474C74.5025 0.347237 73.3198 1.55225 73.3336 3.02495C73.3473 4.49764 74.5523 5.68034 76.025 5.66657C77.4977 5.65281 78.6804 4.4478 78.6667 2.9751C78.6529 1.50241 77.4479 0.31971 75.9752 0.333474ZM83.0004 242L78.2003 238.792L77.822 244.553L83.0004 242ZM76.0001 2.50002C75.6564 2.50002 75.3137 2.50323 74.972 2.50963L74.9907 3.50945C75.3262 3.50317 75.6626 3.50002 76.0001 3.50002L76.0001 2.50002ZM72.934 2.58604C72.2588 2.62414 71.5876 2.67479 70.9206 2.73782L71.0146 3.73339C71.6691 3.67155 72.3277 3.62184 72.9904 3.58446L72.934 2.58604ZM68.9318 2.96386C68.2677 3.05216 67.6078 3.15286 66.9522 3.26575L67.1219 4.25124C67.7649 4.14052 68.4122 4.04175 69.0636 3.95513L68.9318 2.96386ZM64.9579 3.64936C64.2976 3.7898 63.6418 3.94274 62.9904 4.10797L63.2364 5.07727C63.8751 4.91521 64.5183 4.76521 65.1659 4.62748L64.9579 3.64936ZM61.0501 4.64036C60.407 4.83023 59.7685 5.03222 59.1346 5.24612L59.4543 6.19363C60.0762 5.9838 60.7025 5.78566 61.3333 5.59943L61.0501 4.64036ZM57.2351 5.92774C56.6066 6.16687 55.9829 6.41783 55.3638 6.68042L55.7543 7.60102C56.3619 7.34329 56.9741 7.09701 57.5907 6.86238L57.2351 5.92774ZM53.521 7.50286C52.9121 7.78817 52.308 8.08487 51.7087 8.39274L52.1656 9.28223C52.7543 8.97985 53.3475 8.68849 53.9453 8.40837L53.521 7.50286ZM49.9414 9.34055C49.3571 9.66731 48.7774 10.0048 48.2026 10.3529L48.7205 11.2083C49.2856 10.8662 49.8553 10.5344 50.4295 10.2134L49.9414 9.34055ZM46.4923 11.4285C45.927 11.7975 45.3665 12.1768 44.8108 12.5662L45.3847 13.3851C45.9315 13.0019 46.4829 12.6288 47.0388 12.2659L46.4923 11.4285ZM43.1959 13.7364C42.6622 14.1359 42.1332 14.5449 41.6089 14.9632L42.2325 15.7449C42.749 15.3329 43.2699 14.9302 43.7952 14.5368L43.1959 13.7364ZM40.0498 16.2457C39.5348 16.6824 39.0244 17.1282 38.5187 17.5828L39.1873 18.3264C39.6859 17.8782 40.189 17.4388 40.6965 17.0085L40.0498 16.2457ZM37.0521 18.9387C36.571 19.3958 36.0944 19.8612 35.6222 20.3345L36.3301 21.0407C36.7961 20.5736 37.2664 20.1145 37.7409 19.6636L37.0521 18.9387ZM34.2189 21.7782C33.7556 22.2674 33.2968 22.7644 32.8425 23.269L33.5856 23.9381C34.0344 23.4396 34.4875 22.9489 34.945 22.4659L34.2189 21.7782ZM31.5133 24.7818C31.0834 25.2832 30.6576 25.7916 30.2361 26.3067L31.01 26.94C31.4267 26.4307 31.8476 25.9282 32.2724 25.4328L31.5133 24.7818ZM28.9841 27.8726C28.571 28.4012 28.1621 28.9366 27.7574 29.4784L28.5587 30.0768C28.959 29.5407 29.3635 29.0112 29.772 28.4883L28.9841 27.8726ZM26.5563 31.1232C26.1733 31.6594 25.7944 32.2016 25.4194 32.7495L26.2447 33.3143C26.6159 32.7718 26.9911 32.2351 27.3701 31.7044L26.5563 31.1232ZM24.3092 34.4066C23.9431 34.9647 23.581 35.5283 23.223 36.0975L24.0694 36.63C24.4241 36.0661 24.7828 35.5078 25.1454 34.9551L24.3092 34.4066ZM22.1608 37.8213C21.814 38.3961 21.4711 38.9761 21.1321 39.5612L21.9975 40.0624C22.3334 39.4824 22.6733 38.9076 23.017 38.338L22.1608 37.8213ZM20.1525 41.2866C19.8297 41.8665 19.5107 42.4512 19.1955 43.0405L20.0773 43.5121C20.3899 42.9277 20.7062 42.3479 21.0262 41.7729L20.1525 41.2866ZM18.2613 44.8221C17.9538 45.4205 17.65 46.0235 17.3501 46.6308L18.2467 47.0736C18.5443 46.471 18.8456 45.8729 19.1507 45.2793L18.2613 44.8221ZM16.4737 48.4406C16.1905 49.0371 15.911 49.6376 15.635 50.2419L16.5447 50.6573C16.8186 50.0574 17.096 49.4614 17.3771 48.8695L16.4737 48.4406ZM14.818 52.0665C14.5494 52.6785 14.2843 53.2943 14.0229 53.9137L14.9442 54.3025C15.2038 53.6875 15.4669 53.0761 15.7337 52.4685L14.818 52.0665ZM13.2496 55.7829C12.9986 56.4018 12.7512 57.0243 12.5074 57.6501L13.4392 58.0131C13.6813 57.3916 13.9271 56.7734 14.1763 56.1586L13.2496 55.7829ZM11.7978 59.5076C11.5648 60.13 11.3352 60.7555 11.1092 61.384L12.0502 61.7224C12.2748 61.0979 12.5028 60.4765 12.7343 59.8583L11.7978 59.5076ZM10.4415 63.2787C10.2225 63.9132 10.007 64.5507 9.79499 65.191L10.7443 65.5053C10.955 64.8689 11.1692 64.2355 11.3868 63.605L10.4415 63.2787ZM9.17403 67.1063C8.97388 67.7369 8.7771 68.3702 8.5837 69.0059L9.54042 69.2969C9.73265 68.665 9.92824 68.0356 10.1272 67.4088L9.17403 67.1063ZM8.0137 70.9206C7.8271 71.5613 7.64389 72.2044 7.46409 72.8498L8.42741 73.1182C8.60616 72.4765 8.7883 71.8372 8.9738 71.2003L8.0137 70.9206ZM6.93495 74.793C6.76215 75.4423 6.59277 76.0939 6.42683 76.7476L7.39608 76.9937C7.56109 76.3437 7.72952 75.6958 7.90132 75.0501L6.93495 74.793ZM5.94794 78.6792C5.79162 79.3251 5.63863 79.9729 5.48896 80.6226L6.46344 80.8471C6.61228 80.201 6.76443 79.5567 6.91988 78.9145L5.94794 78.6792ZM5.04996 82.5772C4.90697 83.2306 4.76732 83.8857 4.63102 84.5425L5.61016 84.7457C5.74573 84.0924 5.88462 83.4408 6.02684 82.791L5.04996 82.5772ZM4.23219 86.5179C4.1039 87.1714 3.97891 87.8265 3.85723 88.4831L4.84049 88.6653C4.96152 88.0122 5.08585 87.3606 5.21346 86.7105L4.23219 86.5179ZM3.50369 90.4482C3.38913 91.1046 3.27785 91.7625 3.16989 92.4216L4.15674 92.5832C4.26414 91.9275 4.37484 91.2731 4.4888 90.6201L3.50369 90.4482ZM2.85592 94.4028C2.75457 95.0644 2.65653 95.7272 2.56183 96.3912L3.55181 96.5324C3.64603 95.8718 3.74356 95.2124 3.84439 94.5542L2.85592 94.4028ZM2.28834 98.3814C2.20114 99.041 2.11721 99.7016 2.03656 100.363L3.02921 100.484C3.10945 99.8259 3.19296 99.1687 3.27971 98.5124L2.28834 98.3814ZM1.80449 102.35C1.73042 103.014 1.65964 103.678 1.59217 104.343L2.58706 104.444C2.65419 103.782 2.72461 103.121 2.79831 102.461L1.80449 102.35ZM1.39969 106.34C1.33885 107.006 1.28132 107.673 1.22712 108.341L2.22383 108.422C2.27776 107.758 2.33501 107.094 2.39555 106.431L1.39969 106.34ZM1.07506 110.338C1.02774 111.003 0.983731 111.669 0.943034 112.335L1.94117 112.396C1.98167 111.733 2.02546 111.071 2.07254 110.409L1.07506 110.338ZM0.830898 114.335C0.796847 115.002 0.766118 115.669 0.738726 116.337L1.73789 116.378C1.76514 115.714 1.79571 115.05 1.8296 114.386L0.830898 114.335ZM0.66658 118.341C0.645883 119.009 0.628528 119.677 0.614539 120.345L1.61432 120.366C1.62824 119.701 1.64551 119.036 1.6661 118.372L0.66658 118.341ZM0.582653 122.349C0.575392 123.017 0.571496 123.685 0.570978 124.353L1.57098 124.354C1.57149 123.689 1.57537 123.025 1.5826 122.36L0.582653 122.349ZM0.57958 126.357C0.585828 127.025 0.595471 127.692 0.608514 128.36L1.60832 128.34C1.59534 127.676 1.58575 127.012 1.57954 126.347L0.57958 126.357ZM0.657851 130.361C0.677758 131.03 0.701102 131.698 0.727884 132.366L1.72708 132.326C1.70044 131.661 1.67722 130.996 1.6574 130.331L0.657851 130.361ZM0.818683 134.371C0.852407 135.039 0.88959 135.706 0.930246 136.373L1.92839 136.312C1.88795 135.648 1.85095 134.985 1.81741 134.32L0.818683 134.371ZM1.06265 138.371C1.11026 139.037 1.16136 139.701 1.21596 140.366L2.2126 140.284C2.15829 139.623 2.10746 138.962 2.0601 138.3L1.06265 138.371ZM1.39056 142.359C1.45266 143.027 1.51834 143.694 1.58759 144.36L2.58223 144.257C2.51336 143.594 2.44804 142.931 2.38626 142.267L1.39056 142.359ZM1.80608 146.356C1.88249 147.021 1.96249 147.684 2.0461 148.346L3.03822 148.221C2.95508 147.562 2.87553 146.903 2.79952 146.242L1.80608 146.356ZM2.30771 150.329C2.39852 150.989 2.49294 151.648 2.59099 152.305L3.58005 152.158C3.48256 151.504 3.38867 150.849 3.29838 150.193L2.30771 150.329ZM2.89891 154.292C3.00555 154.955 3.11593 155.616 3.23003 156.276L4.21541 156.106C4.10197 155.45 3.99224 154.792 3.88621 154.133L2.89891 154.292ZM3.58358 158.252C3.70518 158.909 3.83052 159.564 3.95962 160.218L4.94068 160.024C4.81234 159.374 4.68776 158.723 4.56688 158.07L3.58358 158.252ZM4.35823 162.174C4.49565 162.828 4.63688 163.48 4.78195 164.131L5.75797 163.913C5.6138 163.267 5.47344 162.618 5.33685 161.968L4.35823 162.174ZM5.23319 166.096C5.38751 166.749 5.54576 167.4 5.70794 168.049L6.67811 167.806C6.51697 167.162 6.35973 166.515 6.20638 165.866L5.23319 166.096ZM6.20628 169.99C6.37634 170.635 6.55034 171.277 6.7283 171.918L7.69179 171.65C7.51502 171.014 7.34217 170.375 7.17322 169.735L6.20628 169.99ZM7.27465 173.834C7.46402 174.482 7.65751 175.127 7.85514 175.769L8.81097 175.475C8.61471 174.837 8.42255 174.196 8.23447 173.553L7.27465 173.834ZM8.46043 177.69C8.66634 178.327 8.8764 178.962 9.09062 179.594L10.0377 179.273C9.82504 178.646 9.61648 178.015 9.41203 177.382L8.46043 177.69ZM9.74579 181.483C9.96835 182.109 10.1951 182.733 10.426 183.354L11.3633 183.005C11.1341 182.389 10.909 181.77 10.6881 181.148L9.74579 181.483ZM11.144 185.24C11.3885 185.867 11.6373 186.492 11.8905 187.113L12.8165 186.736C12.5653 186.119 12.3184 185.5 12.0758 184.877L11.144 185.24ZM12.6635 188.967C12.9255 189.581 13.192 190.192 13.4628 190.8L14.3762 190.393C14.1076 189.79 13.8433 189.184 13.5833 188.574L12.6635 188.967ZM14.2888 192.613C14.5731 193.223 14.8619 193.83 15.1553 194.432L16.0544 193.995C15.7635 193.397 15.4772 192.796 15.1953 192.19L14.2888 192.613ZM16.0545 196.239C16.3589 196.838 16.6679 197.432 16.9817 198.022L17.8647 197.553C17.5538 196.968 17.2475 196.379 16.9458 195.786L16.0545 196.239ZM17.937 199.781C18.2601 200.363 18.5879 200.941 18.9205 201.515L19.7856 201.013C19.4562 200.445 19.1314 199.872 18.8113 199.296L17.937 199.781ZM19.9482 203.249C20.2975 203.825 20.6518 204.397 21.011 204.964L21.8558 204.429C21.5002 203.868 21.1494 203.301 20.8035 202.73L19.9482 203.249ZM22.1034 206.652C22.4725 207.21 22.8466 207.763 23.2257 208.311L24.048 207.742C23.6729 207.199 23.3027 206.652 22.9373 206.1L22.1034 206.652ZM24.3779 209.939C24.7728 210.485 25.1729 211.026 25.5782 211.562L26.3755 210.958C25.9747 210.429 25.5789 209.894 25.1881 209.353L24.3779 209.939ZM26.8129 213.156C27.2297 213.682 27.6517 214.203 28.079 214.717L28.8485 214.079C28.4261 213.57 28.0088 213.055 27.5967 212.535L26.8129 213.156ZM29.3765 216.245C29.8144 216.749 30.2576 217.247 30.7061 217.739L31.4452 217.065C31.002 216.579 30.564 216.087 30.1311 215.589L29.3765 216.245ZM32.0835 219.214C32.5481 219.699 33.0181 220.179 33.4935 220.652L34.1988 219.943C33.7293 219.476 33.265 219.002 32.8061 218.522L32.0835 219.214ZM34.936 222.052C35.4223 222.512 35.9141 222.966 36.4114 223.413L37.0802 222.67C36.5893 222.228 36.1037 221.78 35.6235 221.326L34.936 222.052ZM37.921 224.737C38.431 225.172 38.9465 225.601 39.4675 226.023L40.0968 225.246C39.5826 224.83 39.0738 224.406 38.5705 223.976L37.921 224.737ZM41.0473 227.268C41.5795 227.676 42.1172 228.077 42.6605 228.471L43.2474 227.661C42.7114 227.273 42.1809 226.877 41.6558 226.475L41.0473 227.268ZM44.3071 229.631C44.8591 230.008 45.4166 230.379 45.9797 230.742L46.5216 229.902C45.9662 229.543 45.4163 229.178 44.8718 228.805L44.3071 229.631ZM47.6794 231.805C48.2515 232.152 48.8291 232.492 49.4123 232.824L49.9071 231.955C49.332 231.628 48.7623 231.293 48.1981 230.95L47.6794 231.805ZM51.1785 233.797C51.7727 234.114 52.3726 234.423 52.978 234.724L53.4235 233.829C52.8264 233.532 52.2349 233.227 51.6488 232.915L51.1785 233.797ZM54.7797 235.59C55.3827 235.869 55.991 236.141 56.6047 236.405L57 235.487C56.3948 235.226 55.7949 234.958 55.2002 234.683L54.7797 235.59ZM58.4618 237.175C59.0862 237.423 59.716 237.664 60.3511 237.896L60.6951 236.957C60.0686 236.728 59.4475 236.491 58.8316 236.245L58.4618 237.175ZM62.2728 238.57C62.8976 238.78 63.5276 238.982 64.1626 239.176L64.4551 238.22C63.8286 238.028 63.2071 237.829 62.5907 237.622L62.2728 238.57ZM66.0752 239.734C66.7178 239.912 67.3654 240.082 68.018 240.245L68.2597 239.274C67.6155 239.114 66.9764 238.946 66.3423 238.77L66.0752 239.734ZM69.9911 240.709C70.6538 240.856 71.3216 240.994 71.9944 241.125L72.1851 240.143C71.5207 240.014 70.8615 239.877 70.2072 239.732L69.9911 240.709ZM73.9422 241.478C74.5903 241.588 75.2431 241.69 75.9004 241.784L76.0427 240.794C75.3934 240.701 74.7487 240.6 74.1085 240.492L73.9422 241.478ZM77.8861 242.045C78.5526 242.125 79.2237 242.197 79.8993 242.261L79.9941 241.266C79.3263 241.202 78.6631 241.131 78.0046 241.053L77.8861 242.045ZM75.9752 0.333474C74.5025 0.347237 73.3198 1.55225 73.3336 3.02495C73.3473 4.49764 74.5523 5.68034 76.025 5.66657C77.4977 5.65281 78.6804 4.4478 78.6667 2.9751C78.6529 1.50241 77.4479 0.31971 75.9752 0.333474ZM83.0004 242L78.2003 238.792L77.822 244.553L83.0004 242ZM76.0001 2.50002C75.6564 2.50002 75.3137 2.50323 74.972 2.50963L74.9907 3.50945C75.3262 3.50317 75.6626 3.50002 76.0001 3.50002L76.0001 2.50002ZM72.934 2.58604C72.2588 2.62414 71.5876 2.67479 70.9206 2.73782L71.0146 3.73339C71.6691 3.67155 72.3277 3.62184 72.9904 3.58446L72.934 2.58604ZM68.9318 2.96386C68.2677 3.05216 67.6078 3.15286 66.9522 3.26575L67.1219 4.25124C67.7649 4.14052 68.4122 4.04175 69.0636 3.95513L68.9318 2.96386ZM64.9579 3.64936C64.2976 3.7898 63.6418 3.94274 62.9904 4.10797L63.2364 5.07727C63.8751 4.91521 64.5183 4.76521 65.1659 4.62748L64.9579 3.64936ZM61.0501 4.64036C60.407 4.83023 59.7685 5.03222 59.1346 5.24612L59.4543 6.19363C60.0762 5.9838 60.7025 5.78566 61.3333 5.59943L61.0501 4.64036ZM57.2351 5.92774C56.6066 6.16687 55.9829 6.41783 55.3638 6.68042L55.7543 7.60102C56.3619 7.34329 56.9741 7.09701 57.5907 6.86238L57.2351 5.92774ZM53.521 7.50286C52.9121 7.78817 52.308 8.08487 51.7087 8.39274L52.1656 9.28223C52.7543 8.97985 53.3475 8.68849 53.9453 8.40837L53.521 7.50286ZM49.9414 9.34055C49.3571 9.66731 48.7774 10.0048 48.2026 10.3529L48.7205 11.2083C49.2856 10.8662 49.8553 10.5344 50.4295 10.2134L49.9414 9.34055ZM46.4923 11.4285C45.927 11.7975 45.3665 12.1768 44.8108 12.5662L45.3847 13.3851C45.9315 13.0019 46.4829 12.6288 47.0388 12.2659L46.4923 11.4285ZM43.1959 13.7364C42.6622 14.1359 42.1332 14.5449 41.6089 14.9632L42.2325 15.7449C42.749 15.3329 43.2699 14.9302 43.7952 14.5368L43.1959 13.7364ZM40.0498 16.2457C39.5348 16.6824 39.0244 17.1282 38.5187 17.5828L39.1873 18.3264C39.6859 17.8782 40.189 17.4388 40.6965 17.0085L40.0498 16.2457ZM37.0521 18.9387C36.571 19.3958 36.0944 19.8612 35.6222 20.3345L36.3301 21.0407C36.7961 20.5736 37.2664 20.1145 37.7409 19.6636L37.0521 18.9387ZM34.2189 21.7782C33.7556 22.2674 33.2968 22.7644 32.8425 23.269L33.5856 23.9381C34.0344 23.4396 34.4875 22.9489 34.945 22.4659L34.2189 21.7782ZM31.5133 24.7818C31.0834 25.2832 30.6576 25.7916 30.2361 26.3067L31.01 26.94C31.4267 26.4307 31.8476 25.9282 32.2724 25.4328L31.5133 24.7818ZM28.9841 27.8726C28.571 28.4012 28.1621 28.9366 27.7574 29.4784L28.5587 30.0768C28.959 29.5407 29.3635 29.0112 29.772 28.4883L28.9841 27.8726ZM26.5563 31.1232C26.1733 31.6594 25.7944 32.2016 25.4194 32.7495L26.2447 33.3143C26.6159 32.7718 26.9911 32.2351 27.3701 31.7044L26.5563 31.1232ZM24.3092 34.4066C23.9431 34.9647 23.581 35.5283 23.223 36.0975L24.0694 36.63C24.4241 36.0661 24.7828 35.5078 25.1454 34.9551L24.3092 34.4066ZM22.1608 37.8213C21.814 38.3961 21.4711 38.9761 21.1321 39.5612L21.9975 40.0624C22.3334 39.4824 22.6733 38.9076 23.017 38.338L22.1608 37.8213ZM20.1525 41.2866C19.8297 41.8665 19.5107 42.4512 19.1955 43.0405L20.0773 43.5121C20.3899 42.9277 20.7062 42.3479 21.0262 41.7729L20.1525 41.2866ZM18.2613 44.8221C17.9538 45.4205 17.65 46.0235 17.3501 46.6308L18.2467 47.0736C18.5443 46.471 18.8456 45.8729 19.1507 45.2793L18.2613 44.8221ZM16.4737 48.4406C16.1905 49.0371 15.911 49.6376 15.635 50.2419L16.5447 50.6573C16.8186 50.0574 17.096 49.4614 17.3771 48.8695L16.4737 48.4406ZM14.818 52.0665C14.5494 52.6785 14.2843 53.2943 14.0229 53.9137L14.9442 54.3025C15.2038 53.6875 15.4669 53.0761 15.7337 52.4685L14.818 52.0665ZM13.2496 55.7829C12.9986 56.4018 12.7512 57.0243 12.5074 57.6501L13.4392 58.0131C13.6813 57.3916 13.9271 56.7734 14.1763 56.1586L13.2496 55.7829ZM11.7978 59.5076C11.5648 60.13 11.3352 60.7555 11.1092 61.384L12.0502 61.7224C12.2748 61.0979 12.5028 60.4765 12.7343 59.8583L11.7978 59.5076ZM10.4415 63.2787C10.2225 63.9132 10.007 64.5507 9.79499 65.191L10.7443 65.5053C10.955 64.8689 11.1692 64.2355 11.3868 63.605L10.4415 63.2787ZM9.17403 67.1063C8.97388 67.7369 8.7771 68.3702 8.5837 69.0059L9.54042 69.2969C9.73265 68.665 9.92824 68.0356 10.1272 67.4088L9.17403 67.1063ZM8.0137 70.9206C7.8271 71.5613 7.64389 72.2044 7.46409 72.8498L8.42741 73.1182C8.60616 72.4765 8.7883 71.8372 8.9738 71.2003L8.0137 70.9206ZM6.93495 74.793C6.76215 75.4423 6.59277 76.0939 6.42683 76.7476L7.39608 76.9937C7.56109 76.3437 7.72952 75.6958 7.90132 75.0501L6.93495 74.793ZM5.94794 78.6792C5.79162 79.3251 5.63863 79.9729 5.48896 80.6226L6.46344 80.8471C6.61228 80.201 6.76443 79.5567 6.91988 78.9145L5.94794 78.6792ZM5.04996 82.5772C4.90697 83.2306 4.76732 83.8857 4.63102 84.5425L5.61016 84.7457C5.74573 84.0924 5.88462 83.4408 6.02684 82.791L5.04996 82.5772ZM4.23219 86.5179C4.1039 87.1714 3.97891 87.8265 3.85723 88.4831L4.84049 88.6653C4.96152 88.0122 5.08585 87.3606 5.21346 86.7105L4.23219 86.5179ZM3.50369 90.4482C3.38913 91.1046 3.27785 91.7625 3.16989 92.4216L4.15674 92.5832C4.26414 91.9275 4.37484 91.2731 4.4888 90.6201L3.50369 90.4482ZM2.85592 94.4028C2.75457 95.0644 2.65653 95.7272 2.56183 96.3912L3.55181 96.5324C3.64603 95.8718 3.74356 95.2124 3.84439 94.5542L2.85592 94.4028ZM2.28834 98.3814C2.20114 99.041 2.11721 99.7016 2.03656 100.363L3.02921 100.484C3.10945 99.8259 3.19296 99.1687 3.27971 98.5124L2.28834 98.3814ZM1.80449 102.35C1.73042 103.014 1.65964 103.678 1.59217 104.343L2.58706 104.444C2.65419 103.782 2.72461 103.121 2.79831 102.461L1.80449 102.35ZM1.39969 106.34C1.33885 107.006 1.28132 107.673 1.22712 108.341L2.22383 108.422C2.27776 107.758 2.33501 107.094 2.39555 106.431L1.39969 106.34ZM1.07506 110.338C1.02774 111.003 0.983731 111.669 0.943034 112.335L1.94117 112.396C1.98167 111.733 2.02546 111.071 2.07254 110.409L1.07506 110.338ZM0.830898 114.335C0.796847 115.002 0.766118 115.669 0.738726 116.337L1.73789 116.378C1.76514 115.714 1.79571 115.05 1.8296 114.386L0.830898 114.335ZM0.66658 118.341C0.645883 119.009 0.628528 119.677 0.614539 120.345L1.61432 120.366C1.62824 119.701 1.64551 119.036 1.6661 118.372L0.66658 118.341ZM0.582653 122.349C0.575392 123.017 0.571496 123.685 0.570978 124.353L1.57098 124.354C1.57149 123.689 1.57537 123.025 1.5826 122.36L0.582653 122.349ZM0.57958 126.357C0.585828 127.025 0.595471 127.692 0.608514 128.36L1.60832 128.34C1.59534 127.676 1.58575 127.012 1.57954 126.347L0.57958 126.357ZM0.657851 130.361C0.677758 131.03 0.701102 131.698 0.727884 132.366L1.72708 132.326C1.70044 131.661 1.67722 130.996 1.6574 130.331L0.657851 130.361ZM0.818683 134.371C0.852407 135.039 0.88959 135.706 0.930246 136.373L1.92839 136.312C1.88795 135.648 1.85095 134.985 1.81741 134.32L0.818683 134.371ZM1.06265 138.371C1.11026 139.037 1.16136 139.701 1.21596 140.366L2.2126 140.284C2.15829 139.623 2.10746 138.962 2.0601 138.3L1.06265 138.371ZM1.39056 142.359C1.45266 143.027 1.51834 143.694 1.58759 144.36L2.58223 144.257C2.51336 143.594 2.44804 142.931 2.38626 142.267L1.39056 142.359ZM1.80608 146.356C1.88249 147.021 1.96249 147.684 2.0461 148.346L3.03822 148.221C2.95508 147.562 2.87553 146.903 2.79952 146.242L1.80608 146.356ZM2.30771 150.329C2.39852 150.989 2.49294 151.648 2.59099 152.305L3.58005 152.158C3.48256 151.504 3.38867 150.849 3.29838 150.193L2.30771 150.329ZM2.89891 154.292C3.00555 154.955 3.11593 155.616 3.23003 156.276L4.21541 156.106C4.10197 155.45 3.99224 154.792 3.88621 154.133L2.89891 154.292ZM3.58358 158.252C3.70518 158.909 3.83052 159.564 3.95962 160.218L4.94068 160.024C4.81234 159.374 4.68776 158.723 4.56688 158.07L3.58358 158.252ZM4.35823 162.174C4.49565 162.828 4.63688 163.48 4.78195 164.131L5.75797 163.913C5.6138 163.267 5.47344 162.618 5.33685 161.968L4.35823 162.174ZM5.23319 166.096C5.38751 166.749 5.54576 167.4 5.70794 168.049L6.67811 167.806C6.51697 167.162 6.35973 166.515 6.20638 165.866L5.23319 166.096ZM6.20628 169.99C6.37634 170.635 6.55034 171.277 6.7283 171.918L7.69179 171.65C7.51502 171.014 7.34217 170.375 7.17322 169.735L6.20628 169.99ZM7.27465 173.834C7.46402 174.482 7.65751 175.127 7.85514 175.769L8.81097 175.475C8.61471 174.837 8.42255 174.196 8.23447 173.553L7.27465 173.834ZM8.46043 177.69C8.66634 178.327 8.8764 178.962 9.09062 179.594L10.0377 179.273C9.82504 178.646 9.61648 178.015 9.41203 177.382L8.46043 177.69ZM9.74579 181.483C9.96835 182.109 10.1951 182.733 10.426 183.354L11.3633 183.005C11.1341 182.389 10.909 181.77 10.6881 181.148L9.74579 181.483ZM11.144 185.24C11.3885 185.867 11.6373 186.492 11.8905 187.113L12.8165 186.736C12.5653 186.119 12.3184 185.5 12.0758 184.877L11.144 185.24ZM12.6635 188.967C12.9255 189.581 13.192 190.192 13.4628 190.8L14.3762 190.393C14.1076 189.79 13.8433 189.184 13.5833 188.574L12.6635 188.967ZM14.2888 192.613C14.5731 193.223 14.8619 193.83 15.1553 194.432L16.0544 193.995C15.7635 193.397 15.4772 192.796 15.1953 192.19L14.2888 192.613ZM16.0545 196.239C16.3589 196.838 16.6679 197.432 16.9817 198.022L17.8647 197.553C17.5538 196.968 17.2475 196.379 16.9458 195.786L16.0545 196.239ZM17.937 199.781C18.2601 200.363 18.5879 200.941 18.9205 201.515L19.7856 201.013C19.4562 200.445 19.1314 199.872 18.8113 199.296L17.937 199.781ZM19.9482 203.249C20.2975 203.825 20.6518 204.397 21.011 204.964L21.8558 204.429C21.5002 203.868 21.1494 203.301 20.8035 202.73L19.9482 203.249ZM22.1034 206.652C22.4725 207.21 22.8466 207.763 23.2257 208.311L24.048 207.742C23.6729 207.199 23.3027 206.652 22.9373 206.1L22.1034 206.652ZM24.3779 209.939C24.7728 210.485 25.1729 211.026 25.5782 211.562L26.3755 210.958C25.9747 210.429 25.5789 209.894 25.1881 209.353L24.3779 209.939ZM26.8129 213.156C27.2297 213.682 27.6517 214.203 28.079 214.717L28.8485 214.079C28.4261 213.57 28.0088 213.055 27.5967 212.535L26.8129 213.156ZM29.3765 216.245C29.8144 216.749 30.2576 217.247 30.7061 217.739L31.4452 217.065C31.002 216.579 30.564 216.087 30.1311 215.589L29.3765 216.245ZM32.0835 219.214C32.5481 219.699 33.0181 220.179 33.4935 220.652L34.1988 219.943C33.7293 219.476 33.265 219.002 32.8061 218.522L32.0835 219.214ZM34.936 222.052C35.4223 222.512 35.9141 222.966 36.4114 223.413L37.0802 222.67C36.5893 222.228 36.1037 221.78 35.6235 221.326L34.936 222.052ZM37.921 224.737C38.431 225.172 38.9465 225.601 39.4675 226.023L40.0968 225.246C39.5826 224.83 39.0738 224.406 38.5705 223.976L37.921 224.737ZM41.0473 227.268C41.5795 227.676 42.1172 228.077 42.6605 228.471L43.2474 227.661C42.7114 227.273 42.1809 226.877 41.6558 226.475L41.0473 227.268ZM44.3071 229.631C44.8591 230.008 45.4166 230.379 45.9797 230.742L46.5216 229.902C45.9662 229.543 45.4163 229.178 44.8718 228.805L44.3071 229.631ZM47.6794 231.805C48.2515 232.152 48.8291 232.492 49.4123 232.824L49.9071 231.955C49.332 231.628 48.7623 231.293 48.1981 230.95L47.6794 231.805ZM51.1785 233.797C51.7727 234.114 52.3726 234.423 52.978 234.724L53.4235 233.829C52.8264 233.532 52.2349 233.227 51.6488 232.915L51.1785 233.797ZM54.7797 235.59C55.3827 235.869 55.991 236.141 56.6047 236.405L57 235.487C56.3948 235.226 55.7949 234.958 55.2002 234.683L54.7797 235.59ZM58.4618 237.175C59.0862 237.423 59.716 237.664 60.3511 237.896L60.6951 236.957C60.0686 236.728 59.4475 236.491 58.8316 236.245L58.4618 237.175ZM62.2728 238.57C62.8976 238.78 63.5276 238.982 64.1626 239.176L64.4551 238.22C63.8286 238.028 63.2071 237.829 62.5907 237.622L62.2728 238.57ZM66.0752 239.734C66.7178 239.912 67.3654 240.082 68.018 240.245L68.2597 239.274C67.6155 239.114 66.9764 238.946 66.3423 238.77L66.0752 239.734ZM69.9911 240.709C70.6538 240.856 71.3216 240.994 71.9944 241.125L72.1851 240.143C71.5207 240.014 70.8615 239.877 70.2072 239.732L69.9911 240.709ZM73.9422 241.478C74.5903 241.588 75.2431 241.69 75.9004 241.784L76.0427 240.794C75.3934 240.701 74.7487 240.6 74.1085 240.492L73.9422 241.478ZM77.8861 242.045C78.5526 242.125 79.2237 242.197 79.8993 242.261L79.9941 241.266C79.3263 241.202 78.6631 241.131 78.0046 241.053L77.8861 242.045Z" fill="white"/>
</svg>
