<svg width="61" height="12" viewBox="0 0 61 12" fill="none" xmlns="http://www.w3.org/2000/svg">
<path d="M0.666667 6C0.666667 3.05448 3.05448 0.666667 6 0.666667C8.94552 0.666667 11.3333 3.05448 11.3333 6C11.3333 8.94552 8.94552 11.3333 6 11.3333C3.05448 11.3333 0.666667 8.94552 0.666667 6ZM61 6L51 11.7735V0.226497L61 6ZM6 5H7.96429V7H6V5ZM11.8929 5H15.8214V7H11.8929V5ZM19.75 5H23.6786V7H19.75V5ZM27.6071 5H31.5357V7H27.6071V5ZM35.4643 5H39.3929V7H35.4643V5ZM43.3214 5H47.25V7H43.3214V5ZM51.1786 5H55.1071V7H51.1786V5ZM0.666667 6C0.666667 3.05448 3.05448 0.666667 6 0.666667C8.94552 0.666667 11.3333 3.05448 11.3333 6C11.3333 8.94552 8.94552 11.3333 6 11.3333C3.05448 11.3333 0.666667 8.94552 0.666667 6ZM61 6L51 11.7735V0.226497L61 6ZM6 5H7.96429V7H6V5ZM11.8929 5H15.8214V7H11.8929V5ZM19.75 5H23.6786V7H19.75V5ZM27.6071 5H31.5357V7H27.6071V5ZM35.4643 5H39.3929V7H35.4643V5ZM43.3214 5H47.25V7H43.3214V5ZM51.1786 5H55.1071V7H51.1786V5Z" fill="#2E2F33"/>
</svg>
