<svg width="291" height="40" viewBox="0 0 291 40" fill="none" xmlns="http://www.w3.org/2000/svg">
<path d="M0.666667 11.3761C0.666667 14.3216 3.05448 16.7094 6 16.7094C8.94552 16.7094 11.3333 14.3216 11.3333 11.3761C11.3333 8.43058 8.94552 6.04276 6 6.04276C3.05448 6.04276 0.666667 8.43058 0.666667 11.3761ZM291 11.3761L283.682 2.444L279.606 13.2475L291 11.3761ZM5.52627 12.2568C6.13867 12.5862 6.74901 12.9121 7.35729 13.2345L8.29388 11.4673C7.68925 11.1469 7.08254 10.8229 6.47373 10.4954L5.52627 12.2568ZM10.9825 15.127C12.1827 15.7439 13.3749 16.3471 14.5591 16.9367L15.4505 15.1463C14.274 14.5606 13.0895 13.9613 11.8968 13.3482L10.9825 15.127ZM18.0879 18.6648C19.3273 19.2616 20.5578 19.8433 21.7796 20.4103L22.6214 18.5961C21.4083 18.0332 20.1865 17.4556 18.9556 16.8629L18.0879 18.6648ZM25.4743 22.0916C26.697 22.637 27.9109 23.1674 29.1162 23.6831L29.9029 21.8443C28.7071 21.3326 27.5025 20.8063 26.289 20.265L25.4743 22.0916ZM32.7982 25.2239C34.075 25.7462 35.3421 26.2518 36.5994 26.741L37.3246 24.8771C36.0781 24.3921 34.8217 23.8908 33.5554 23.3728L32.7982 25.2239ZM40.3429 28.16C41.5936 28.6215 42.8347 29.0666 44.0664 29.4957L44.7244 27.6071C43.5043 27.182 42.2746 26.741 41.0351 26.2836L40.3429 28.16ZM47.9572 30.8087C49.2436 31.2286 50.5197 31.6309 51.7855 32.016L52.3676 30.1026C51.1148 29.7215 49.8516 29.3232 48.5778 28.9074L47.9572 30.8087ZM55.5911 33.1309C56.9217 33.5057 58.241 33.8612 59.5492 34.1981L60.048 32.2613C58.7545 31.9282 57.4496 31.5765 56.1332 31.2058L55.5911 33.1309ZM63.4409 35.1533C64.7559 35.4601 66.0597 35.7479 67.3525 36.0173L67.7604 34.0593C66.4833 33.7932 65.195 33.5089 63.8952 33.2056L63.4409 35.1533ZM71.3513 36.7985C72.6725 37.0394 73.9822 37.2609 75.2806 37.4636L75.5891 35.4876C74.3076 35.2875 73.0146 35.0688 71.71 34.831L71.3513 36.7985ZM79.3014 38.0368C80.6502 38.2106 81.9867 38.3641 83.3115 38.498L83.5127 36.5082C82.2061 36.3761 80.8877 36.2246 79.557 36.0532L79.3014 38.0368ZM87.2971 38.8453C88.6647 38.9453 90.0196 39.0245 91.3623 39.0836L91.4504 37.0856C90.1269 37.0272 88.7913 36.9492 87.4429 36.8507L87.2971 38.8453ZM95.3543 39.2022C96.7234 39.223 98.0798 39.2233 99.424 39.2039L99.3951 37.2041C98.0706 37.2232 96.734 37.223 95.3848 37.2024L95.3543 39.2022ZM103.443 39.0866C104.8 39.0269 106.145 38.9475 107.478 38.8493L107.331 36.8547C106.017 36.9514 104.692 37.0297 103.355 37.0885L103.443 39.0866ZM111.498 38.4936C112.843 38.3548 114.176 38.1973 115.498 38.0222L115.235 36.0395C113.932 36.2121 112.618 36.3674 111.293 36.5042L111.498 38.4936ZM119.498 37.4344C120.83 37.2196 122.15 36.9876 123.459 36.7395L123.087 34.7744C121.795 35.0192 120.493 35.2481 119.18 35.46L119.498 37.4344ZM127.422 35.9342C128.738 35.6489 130.044 35.3482 131.339 35.0333L130.867 33.0898C129.587 33.4009 128.298 33.698 126.999 33.9796L127.422 35.9342ZM135.254 34.0325C136.553 33.6843 137.843 33.3228 139.124 32.9494L138.564 31.0293C137.297 31.3988 136.021 31.7564 134.737 32.1007L135.254 34.0325ZM142.987 31.7807C144.269 31.3791 145.543 30.9666 146.809 30.5447L146.177 28.6472C144.921 29.0656 143.659 29.4744 142.389 29.8722L142.987 31.7807ZM150.622 29.2399C151.888 28.7956 153.148 28.343 154.401 27.8837L153.713 26.0058C152.467 26.4623 151.216 26.9117 149.96 27.3528L150.622 29.2399ZM158.171 26.4772C159.424 26.0017 160.672 25.5209 161.916 25.0361L161.189 23.1726C159.95 23.6555 158.708 24.1342 157.461 24.6072L158.171 26.4772ZM165.654 23.5637C166.897 23.0693 168.138 22.5723 169.375 22.0744L168.629 20.2189C167.393 20.7161 166.155 21.212 164.915 21.7052L165.654 23.5637ZM173.095 20.5733C174.335 20.0723 175.572 19.5719 176.809 19.0734L176.061 17.2185C174.823 17.7174 173.585 18.2183 172.346 18.7191L173.095 20.5733ZM180.526 17.5817C181.765 17.087 183.005 16.5959 184.245 16.1099L183.516 14.2477C182.271 14.7356 181.027 15.2282 179.784 15.7241L180.526 17.5817ZM187.975 14.6662C189.22 14.1909 190.466 13.7223 191.715 13.2619L191.023 11.3854C189.766 11.8487 188.513 12.3201 187.261 12.7978L187.975 14.6662ZM195.471 11.9058C196.725 11.4634 197.983 11.0306 199.244 10.609L198.61 8.71215C197.338 9.1375 196.07 9.5739 194.806 10.0198L195.471 11.9058ZM203.039 9.38029C204.305 8.98402 205.576 8.6004 206.853 8.23094L206.297 6.30977C205.005 6.68346 203.721 7.07126 202.442 7.4716L203.039 9.38029ZM210.694 7.16837C211.973 6.83126 213.259 6.50955 214.551 6.20471L214.093 4.25809C212.782 4.5671 211.479 4.89305 210.184 5.23441L210.694 7.16837ZM218.441 5.34471C219.732 5.07848 221.032 4.83008 222.34 4.60093L221.995 2.63093C220.666 2.86363 219.347 3.11578 218.037 3.38591L218.441 5.34471ZM226.274 3.97506C227.574 3.78926 228.884 3.62331 230.204 3.47853L229.986 1.49045C228.644 1.63766 227.313 1.80635 225.991 1.99516L226.274 3.97506ZM234.171 3.11088C235.478 3.01208 236.795 2.93464 238.122 2.87978L238.04 0.881489C236.689 0.937296 235.349 1.01608 234.02 1.11658L234.171 3.11088ZM242.103 2.78447C243.412 2.77587 244.732 2.78964 246.064 2.82692L246.12 0.827705C244.765 0.789777 243.422 0.775762 242.09 0.784513L242.103 2.78447ZM250.033 3.00656C251.343 3.08837 252.664 3.19317 253.997 3.32198L254.19 1.33125C252.834 1.20026 251.49 1.09367 250.158 1.01045L250.033 3.00656ZM257.928 3.76766C259.24 3.93821 260.563 4.1321 261.898 4.35027L262.221 2.37643C260.864 2.15477 259.519 1.95772 258.186 1.78436L257.928 3.76766ZM265.762 5.04312C267.062 5.29679 268.374 5.57345 269.698 5.87393L270.14 3.92353C268.797 3.6186 267.465 3.33775 266.146 3.08016L265.762 5.04312ZM273.524 6.80053C274.792 7.12676 276.072 7.47478 277.363 7.84526L277.915 5.92282C276.606 5.54731 275.309 5.19446 274.022 4.86358L273.524 6.80053ZM281.216 9.00701C282.446 9.39556 283.686 9.80437 284.937 10.234L285.587 8.34239C284.32 7.9075 283.064 7.49354 281.819 7.09995L281.216 9.00701ZM0.666667 11.3761C0.666667 14.3216 3.05448 16.7094 6 16.7094C8.94552 16.7094 11.3333 14.3216 11.3333 11.3761C11.3333 8.43058 8.94552 6.04276 6 6.04276C3.05448 6.04276 0.666667 8.43058 0.666667 11.3761ZM291 11.3761L283.682 2.444L279.606 13.2475L291 11.3761ZM5.52627 12.2568C6.13867 12.5862 6.74901 12.9121 7.35729 13.2345L8.29388 11.4673C7.68925 11.1469 7.08254 10.8229 6.47373 10.4954L5.52627 12.2568ZM10.9825 15.127C12.1827 15.7439 13.3749 16.3471 14.5591 16.9367L15.4505 15.1463C14.274 14.5606 13.0895 13.9613 11.8968 13.3482L10.9825 15.127ZM18.0879 18.6648C19.3273 19.2616 20.5578 19.8433 21.7796 20.4103L22.6214 18.5961C21.4083 18.0332 20.1865 17.4556 18.9556 16.8629L18.0879 18.6648ZM25.4743 22.0916C26.697 22.637 27.9109 23.1674 29.1162 23.6831L29.9029 21.8443C28.7071 21.3326 27.5025 20.8063 26.289 20.265L25.4743 22.0916ZM32.7982 25.2239C34.075 25.7462 35.3421 26.2518 36.5994 26.741L37.3246 24.8771C36.0781 24.3921 34.8217 23.8908 33.5554 23.3728L32.7982 25.2239ZM40.3429 28.16C41.5936 28.6215 42.8347 29.0666 44.0664 29.4957L44.7244 27.6071C43.5043 27.182 42.2746 26.741 41.0351 26.2836L40.3429 28.16ZM47.9572 30.8087C49.2436 31.2286 50.5197 31.6309 51.7855 32.016L52.3676 30.1026C51.1148 29.7215 49.8516 29.3232 48.5778 28.9074L47.9572 30.8087ZM55.5911 33.1309C56.9217 33.5057 58.241 33.8612 59.5492 34.1981L60.048 32.2613C58.7545 31.9282 57.4496 31.5765 56.1332 31.2058L55.5911 33.1309ZM63.4409 35.1533C64.7559 35.4601 66.0597 35.7479 67.3525 36.0173L67.7604 34.0593C66.4833 33.7932 65.195 33.5089 63.8952 33.2056L63.4409 35.1533ZM71.3513 36.7985C72.6725 37.0394 73.9822 37.2609 75.2806 37.4636L75.5891 35.4876C74.3076 35.2875 73.0146 35.0688 71.71 34.831L71.3513 36.7985ZM79.3014 38.0368C80.6502 38.2106 81.9867 38.3641 83.3115 38.498L83.5127 36.5082C82.2061 36.3761 80.8877 36.2246 79.557 36.0532L79.3014 38.0368ZM87.2971 38.8453C88.6647 38.9453 90.0196 39.0245 91.3623 39.0836L91.4504 37.0856C90.1269 37.0272 88.7913 36.9492 87.4429 36.8507L87.2971 38.8453ZM95.3543 39.2022C96.7234 39.223 98.0798 39.2233 99.424 39.2039L99.3951 37.2041C98.0706 37.2232 96.734 37.223 95.3848 37.2024L95.3543 39.2022ZM103.443 39.0866C104.8 39.0269 106.145 38.9475 107.478 38.8493L107.331 36.8547C106.017 36.9514 104.692 37.0297 103.355 37.0885L103.443 39.0866ZM111.498 38.4936C112.843 38.3548 114.176 38.1973 115.498 38.0222L115.235 36.0395C113.932 36.2121 112.618 36.3674 111.293 36.5042L111.498 38.4936ZM119.498 37.4344C120.83 37.2196 122.15 36.9876 123.459 36.7395L123.087 34.7744C121.795 35.0192 120.493 35.2481 119.18 35.46L119.498 37.4344ZM127.422 35.9342C128.738 35.6489 130.044 35.3482 131.339 35.0333L130.867 33.0898C129.587 33.4009 128.298 33.698 126.999 33.9796L127.422 35.9342ZM135.254 34.0325C136.553 33.6843 137.843 33.3228 139.124 32.9494L138.564 31.0293C137.297 31.3988 136.021 31.7564 134.737 32.1007L135.254 34.0325ZM142.987 31.7807C144.269 31.3791 145.543 30.9666 146.809 30.5447L146.177 28.6472C144.921 29.0656 143.659 29.4744 142.389 29.8722L142.987 31.7807ZM150.622 29.2399C151.888 28.7956 153.148 28.343 154.401 27.8837L153.713 26.0058C152.467 26.4623 151.216 26.9117 149.96 27.3528L150.622 29.2399ZM158.171 26.4772C159.424 26.0017 160.672 25.5209 161.916 25.0361L161.189 23.1726C159.95 23.6555 158.708 24.1342 157.461 24.6072L158.171 26.4772ZM165.654 23.5637C166.897 23.0693 168.138 22.5723 169.375 22.0744L168.629 20.2189C167.393 20.7161 166.155 21.212 164.915 21.7052L165.654 23.5637ZM173.095 20.5733C174.335 20.0723 175.572 19.5719 176.809 19.0734L176.061 17.2185C174.823 17.7174 173.585 18.2183 172.346 18.7191L173.095 20.5733ZM180.526 17.5817C181.765 17.087 183.005 16.5959 184.245 16.1099L183.516 14.2477C182.271 14.7356 181.027 15.2282 179.784 15.7241L180.526 17.5817ZM187.975 14.6662C189.22 14.1909 190.466 13.7223 191.715 13.2619L191.023 11.3854C189.766 11.8487 188.513 12.3201 187.261 12.7978L187.975 14.6662ZM195.471 11.9058C196.725 11.4634 197.983 11.0306 199.244 10.609L198.61 8.71215C197.338 9.1375 196.07 9.5739 194.806 10.0198L195.471 11.9058ZM203.039 9.38029C204.305 8.98402 205.576 8.6004 206.853 8.23094L206.297 6.30977C205.005 6.68346 203.721 7.07126 202.442 7.4716L203.039 9.38029ZM210.694 7.16837C211.973 6.83126 213.259 6.50955 214.551 6.20471L214.093 4.25809C212.782 4.5671 211.479 4.89305 210.184 5.23441L210.694 7.16837ZM218.441 5.34471C219.732 5.07848 221.032 4.83008 222.34 4.60093L221.995 2.63093C220.666 2.86363 219.347 3.11578 218.037 3.38591L218.441 5.34471ZM226.274 3.97506C227.574 3.78926 228.884 3.62331 230.204 3.47853L229.986 1.49045C228.644 1.63766 227.313 1.80635 225.991 1.99516L226.274 3.97506ZM234.171 3.11088C235.478 3.01208 236.795 2.93464 238.122 2.87978L238.04 0.881489C236.689 0.937296 235.349 1.01608 234.02 1.11658L234.171 3.11088ZM242.103 2.78447C243.412 2.77587 244.732 2.78964 246.064 2.82692L246.12 0.827705C244.765 0.789777 243.422 0.775762 242.09 0.784513L242.103 2.78447ZM250.033 3.00656C251.343 3.08837 252.664 3.19317 253.997 3.32198L254.19 1.33125C252.834 1.20026 251.49 1.09367 250.158 1.01045L250.033 3.00656ZM257.928 3.76766C259.24 3.93821 260.563 4.1321 261.898 4.35027L262.221 2.37643C260.864 2.15477 259.519 1.95772 258.186 1.78436L257.928 3.76766ZM265.762 5.04312C267.062 5.29679 268.374 5.57345 269.698 5.87393L270.14 3.92353C268.797 3.6186 267.465 3.33775 266.146 3.08016L265.762 5.04312ZM273.524 6.80053C274.792 7.12676 276.072 7.47478 277.363 7.84526L277.915 5.92282C276.606 5.54731 275.309 5.19446 274.022 4.86358L273.524 6.80053ZM281.216 9.00701C282.446 9.39556 283.686 9.80437 284.937 10.234L285.587 8.34239C284.32 7.9075 283.064 7.49354 281.819 7.09995L281.216 9.00701Z" fill="#2E2F33"/>
</svg>
