<svg width="96" height="96" viewBox="0 0 96 96" fill="none" xmlns="http://www.w3.org/2000/svg">
<path d="M59.6817 74C56.9606 74 54.6667 73.0606 52.8 71.1817C50.9333 69.3028 50 67.0028 50 64.2817C50 61.5606 50.9394 59.2667 52.8183 57.4C54.6972 55.5333 56.9972 54.6 59.7183 54.6C62.4394 54.6 64.7333 55.5394 66.6 57.4183C68.4667 59.2972 69.4 61.5972 69.4 64.3183C69.4 67.0394 68.4606 69.3333 66.5817 71.2C64.7028 73.0667 62.4028 74 59.6817 74ZM18 88C16.4 88 15 87.4 13.8 86.2C12.6 85 12 83.6 12 82V20C12 18.4 12.6 17 13.8 15.8C15 14.6 16.4 14 18 14H24.5V8H31V14H65V8H71.5V14H78C79.6 14 81 14.6 82.2 15.8C83.4 17 84 18.4 84 20V82C84 83.6 83.4 85 82.2 86.2C81 87.4 79.6 88 78 88H18ZM18 82H78V39H18V82ZM18 33H78V20H18V33Z" fill="white"/>
<path d="M59.6817 74.0001C56.9606 74.0001 54.6667 73.0607 52.8 71.1818C50.9333 69.3029 50 67.0029 50 64.2818C50 61.5607 50.9394 59.2668 52.8183 57.4001C54.6972 55.5334 56.9972 54.6001 59.7183 54.6001C62.4394 54.6001 64.7333 55.5395 66.6 57.4184C68.4667 59.2973 69.4 61.5973 69.4 64.3184C69.4 67.0395 68.4606 69.3334 66.5817 71.2001C64.7028 73.0668 62.4028 74.0001 59.6817 74.0001Z" fill="#61D56E"/>
</svg>
