<svg width="96" height="96" viewBox="0 0 96 96" fill="none" xmlns="http://www.w3.org/2000/svg">
<path d="M57.5 59.6C55.9667 56.1333 52.95 53.3833 48.45 51.35C43.95 49.3167 39.2667 48.3 34.4 48.3C29.5333 48.3 24.85 49.3167 20.35 51.35C15.85 53.3833 12.8 56.1333 11.2 59.6H57.5ZM4 65.6C4 58.3333 7.1 52.6333 13.3 48.5C19.5 44.3667 26.5333 42.3 34.4 42.3C42.2667 42.3 49.3 44.3667 55.5 48.5C61.7 52.6333 64.8 58.3333 64.8 65.6H4ZM4 78.4V72.4H64.8V78.4H4ZM70.8 92V86H79.4L85.1 28H45.3L44.6 22H65.1V4H71.1V22H92L85.3 86C85.0939 87.7241 84.3384 89.1552 83.0333 90.2931C81.7283 91.431 80.2172 92 78.5 92H70.8ZM7 92C6.15 92 5.4375 91.7125 4.8625 91.1375C4.2875 90.5625 4 89.85 4 89V86H64.8V89.0175C64.8 89.8725 64.5125 90.5833 63.9375 91.15C63.3625 91.7167 62.65 92 61.8 92H7Z" fill="white"/>
<path d="M70.8 92V86H79.4L85.1 28H45.3L44.6 22H65.1V4H71.1V22H92L85.3 86C85.0939 87.7241 84.3383 89.1552 83.0333 90.2931C81.7283 91.431 80.2172 92 78.5 92H70.8Z" fill="#61D56E"/>
</svg>
