<svg width="96" height="96" viewBox="0 0 96 96" fill="none" xmlns="http://www.w3.org/2000/svg">
<path d="M8 25.3V8H25.3V14H14V25.3H8ZM8 88V70.7H14V82H25.3V88H8ZM70.7 88V82H82V70.7H88V88H70.7ZM82 25.3V14H70.7V8H88V25.3H82ZM70.8 70.9H77.1V77.2H70.8V70.9ZM70.8 58.3H77.1V64.6H70.8V58.3ZM64.5 64.6H70.8V70.9H64.5V64.6ZM58.2 70.9H64.5V77.2H58.2V70.9ZM51.9 64.6H58.2V70.9H51.9V64.6ZM64.5 52H70.8V58.3H64.5V52ZM58.2 58.3H64.5V64.6H58.2V58.3ZM51.9 52H58.2V58.3H51.9V52ZM77.1 18.8V44H51.9V18.8H77.1ZM44 52V77.2H18.8V52H44ZM44 18.8V44H18.8V18.8H44ZM39 72.2V57H23.8V72.2H39ZM39 39V23.8H23.8V39H39ZM72.1 39V23.8H56.9V39H72.1Z" fill="white"/>
<path d="M70.7 88V82H82V70.7H88V88H70.7ZM70.8 70.9H77.1V77.2H70.8V70.9ZM70.8 58.3H77.1V64.6H70.8V58.3ZM64.5 64.6H70.8V70.9H64.5V64.6ZM58.2 70.9H64.5V77.2H58.2V70.9ZM51.9 64.6H58.2V70.9H51.9V64.6ZM64.5 52H70.8V58.3H64.5V52ZM58.2 58.3H64.5V64.6H58.2V58.3ZM51.9 52H58.2V58.3H51.9V52Z" fill="#61D56E"/>
</svg>
