<svg width="134" height="95" viewBox="0 0 134 95" fill="none" xmlns="http://www.w3.org/2000/svg">
<path d="M128.37 4.27072C127.17 1.58091 124.016 0.373516 121.326 1.57393C118.636 2.77434 117.429 5.92799 118.629 8.6178C119.83 11.3076 122.983 12.515 125.673 11.3146C128.363 10.1142 129.57 6.96054 128.37 4.27072ZM1.78655e-06 59.9441L2.85116 71.1336L11.1159 63.0696L1.78655e-06 59.9441ZM122.508 6.57296C122.595 7.24056 122.673 7.90667 122.743 8.57115L124.732 8.36159C124.66 7.68113 124.58 6.99909 124.491 6.31557L122.508 6.57296ZM123.065 12.5378C123.141 13.8802 123.183 15.2149 123.193 16.5411L125.193 16.5262C125.183 15.1671 125.139 13.7995 125.061 12.4244L123.065 12.5378ZM123.124 20.5316C123.067 21.8658 122.977 23.1902 122.855 24.5038L124.847 24.6889C124.972 23.3419 125.064 21.9841 125.122 20.6163L123.124 20.5316ZM122.384 28.4745C122.192 29.7987 121.967 31.1105 121.71 32.4088L123.672 32.7973C123.935 31.4653 124.166 30.1195 124.363 28.7612L122.384 28.4745ZM120.835 36.2959C120.507 37.5915 120.147 38.872 119.756 40.1362L121.666 40.7277C122.068 39.43 122.437 38.1157 122.774 36.786L120.835 36.2959ZM118.474 43.9174C118.012 45.1699 117.518 46.4043 116.994 47.6194L118.83 48.4116C119.369 47.1636 119.876 45.8959 120.35 44.6099L118.474 43.9174ZM115.318 51.2321C114.723 52.4277 114.098 53.602 113.443 54.7539L115.182 55.7419C115.855 54.558 116.497 53.3513 117.108 52.1229L115.318 51.2321ZM111.377 58.1652C110.655 59.2857 109.904 60.3817 109.125 61.452L110.743 62.6287C111.544 61.5278 112.316 60.4007 113.058 59.2487L111.377 58.1652ZM106.692 64.6029C105.847 65.6336 104.976 66.6366 104.078 67.6105L105.548 68.9661C106.473 67.9634 107.37 66.931 108.239 65.8703L106.692 64.6029ZM101.292 70.4585C100.334 71.3814 99.3506 72.2732 98.3432 73.1325L99.6411 74.6541C100.679 73.7684 101.693 72.8496 102.68 71.899L101.292 70.4585ZM95.2384 75.6206C94.1767 76.4189 93.092 77.1829 91.9854 77.9112L93.0849 79.5819C94.2266 78.8304 95.3456 78.0423 96.4404 77.2191L95.2384 75.6206ZM88.5943 79.9917C87.4426 80.6485 86.2703 81.268 85.0787 81.8489L85.955 83.6467C87.1857 83.0468 88.3962 82.407 89.5851 81.729L88.5943 79.9917ZM81.4502 83.4725C80.2247 83.9731 78.9813 84.4339 77.721 84.8534L78.3527 86.751C79.6552 86.3174 80.9403 85.8412 82.2066 85.324L81.4502 83.4725ZM73.9113 85.9813C72.6346 86.3132 71.3427 86.6035 70.0368 86.8507L70.4089 88.8158C71.759 88.5602 73.0946 88.2601 74.4145 87.917L73.9113 85.9813ZM66.1106 87.4582C64.8012 87.616 63.4794 87.7309 62.1462 87.8017L62.2523 89.7989C63.63 89.7258 64.9963 89.6069 66.3499 89.4438L66.1106 87.4582ZM58.1722 87.8812C56.8602 87.8642 55.5385 87.8046 54.2082 87.7012L54.0531 89.6951C55.4263 89.8019 56.7911 89.8635 58.1463 89.881L58.1722 87.8812ZM50.2541 87.2667C48.9488 87.0814 47.6363 86.8538 46.3174 86.5826L45.9147 88.5416C47.2736 88.821 48.6268 89.0557 49.9731 89.2468L50.2541 87.2667ZM42.4594 85.6689C41.1934 85.3294 39.9225 84.9495 38.6475 84.5282L38.0201 86.4272C39.3309 86.8604 40.6383 87.2512 41.9414 87.6006L42.4594 85.6689ZM34.8783 83.1656C33.6631 82.6884 32.4449 82.1731 31.2244 81.6189L30.3975 83.4399C31.6492 84.0083 32.8994 84.5371 34.1472 85.0272L34.8783 83.1656ZM27.6344 79.8788C26.4611 79.2739 25.2863 78.6325 24.1105 77.9538L23.1107 79.6859C24.3135 80.3802 25.5161 81.0368 26.718 81.6564L27.6344 79.8788ZM20.7198 75.8938C19.6046 75.1822 18.4892 74.4365 17.374 73.6561L16.2272 75.2947C17.3654 76.0912 18.5045 76.8527 19.644 77.5798L20.7198 75.8938ZM14.1626 71.3112C13.1126 70.5122 12.0633 69.6819 11.0152 68.8197L9.74461 70.3642C10.812 71.2423 11.8811 72.0883 12.9516 72.9028L14.1626 71.3112ZM7.9737 66.2243C6.98655 65.3514 6.00085 64.4495 5.01694 63.5182L3.64213 64.9708C4.64216 65.9173 5.6445 66.8344 6.64877 67.7225L7.9737 66.2243ZM128.37 4.27072C127.17 1.58091 124.016 0.373516 121.326 1.57393C118.636 2.77434 117.429 5.92799 118.629 8.6178C119.83 11.3076 122.983 12.515 125.673 11.3146C128.363 10.1142 129.57 6.96054 128.37 4.27072ZM1.78655e-06 59.9441L2.85116 71.1336L11.1159 63.0696L1.78655e-06 59.9441ZM122.508 6.57296C122.595 7.24056 122.673 7.90667 122.743 8.57115L124.732 8.36159C124.66 7.68113 124.58 6.99909 124.491 6.31557L122.508 6.57296ZM123.065 12.5378C123.141 13.8802 123.183 15.2149 123.193 16.5411L125.193 16.5262C125.183 15.1671 125.139 13.7995 125.061 12.4244L123.065 12.5378ZM123.124 20.5316C123.067 21.8658 122.977 23.1902 122.855 24.5038L124.847 24.6889C124.972 23.3419 125.064 21.9841 125.122 20.6163L123.124 20.5316ZM122.384 28.4745C122.192 29.7987 121.967 31.1105 121.71 32.4088L123.672 32.7973C123.935 31.4653 124.166 30.1195 124.363 28.7612L122.384 28.4745ZM120.835 36.2959C120.507 37.5915 120.147 38.872 119.756 40.1362L121.666 40.7277C122.068 39.43 122.437 38.1157 122.774 36.786L120.835 36.2959ZM118.474 43.9174C118.012 45.1699 117.518 46.4043 116.994 47.6194L118.83 48.4116C119.369 47.1636 119.876 45.8959 120.35 44.6099L118.474 43.9174ZM115.318 51.2321C114.723 52.4277 114.098 53.602 113.443 54.7539L115.182 55.7419C115.855 54.558 116.497 53.3513 117.108 52.1229L115.318 51.2321ZM111.377 58.1652C110.655 59.2857 109.904 60.3817 109.125 61.452L110.743 62.6287C111.544 61.5278 112.316 60.4007 113.058 59.2487L111.377 58.1652ZM106.692 64.6029C105.847 65.6336 104.976 66.6366 104.078 67.6105L105.548 68.9661C106.473 67.9634 107.37 66.931 108.239 65.8703L106.692 64.6029ZM101.292 70.4585C100.334 71.3814 99.3506 72.2732 98.3432 73.1325L99.6411 74.6541C100.679 73.7684 101.693 72.8496 102.68 71.899L101.292 70.4585ZM95.2384 75.6206C94.1767 76.4189 93.092 77.1829 91.9854 77.9112L93.0849 79.5819C94.2266 78.8304 95.3456 78.0423 96.4404 77.2191L95.2384 75.6206ZM88.5943 79.9917C87.4426 80.6485 86.2703 81.268 85.0787 81.8489L85.955 83.6467C87.1857 83.0468 88.3962 82.407 89.5851 81.729L88.5943 79.9917ZM81.4502 83.4725C80.2247 83.9731 78.9813 84.4339 77.721 84.8534L78.3527 86.751C79.6552 86.3174 80.9403 85.8412 82.2066 85.324L81.4502 83.4725ZM73.9113 85.9813C72.6346 86.3132 71.3427 86.6035 70.0368 86.8507L70.4089 88.8158C71.759 88.5602 73.0946 88.2601 74.4145 87.917L73.9113 85.9813ZM66.1106 87.4582C64.8012 87.616 63.4794 87.7309 62.1462 87.8017L62.2523 89.7989C63.63 89.7258 64.9963 89.6069 66.3499 89.4438L66.1106 87.4582ZM58.1722 87.8812C56.8602 87.8642 55.5385 87.8046 54.2082 87.7012L54.0531 89.6951C55.4263 89.8019 56.7911 89.8635 58.1463 89.881L58.1722 87.8812ZM50.2541 87.2667C48.9488 87.0814 47.6363 86.8538 46.3174 86.5826L45.9147 88.5416C47.2736 88.821 48.6268 89.0557 49.9731 89.2468L50.2541 87.2667ZM42.4594 85.6689C41.1934 85.3294 39.9225 84.9495 38.6475 84.5282L38.0201 86.4272C39.3309 86.8604 40.6383 87.2512 41.9414 87.6006L42.4594 85.6689ZM34.8783 83.1656C33.6631 82.6884 32.4449 82.1731 31.2244 81.6189L30.3975 83.4399C31.6492 84.0083 32.8994 84.5371 34.1472 85.0272L34.8783 83.1656ZM27.6344 79.8788C26.4611 79.2739 25.2863 78.6325 24.1105 77.9538L23.1107 79.6859C24.3135 80.3802 25.5161 81.0368 26.718 81.6564L27.6344 79.8788ZM20.7198 75.8938C19.6046 75.1822 18.4892 74.4365 17.374 73.6561L16.2272 75.2947C17.3654 76.0912 18.5045 76.8527 19.644 77.5798L20.7198 75.8938ZM14.1626 71.3112C13.1126 70.5122 12.0633 69.6819 11.0152 68.8197L9.74461 70.3642C10.812 71.2423 11.8811 72.0883 12.9516 72.9028L14.1626 71.3112ZM7.9737 66.2243C6.98655 65.3514 6.00085 64.4495 5.01694 63.5182L3.64213 64.9708C4.64216 65.9173 5.6445 66.8344 6.64877 67.7225L7.9737 66.2243Z" fill="#4C4958"/>
</svg>
