<svg width="48" height="49" viewBox="0 0 48 49" fill="none" xmlns="http://www.w3.org/2000/svg">
<path fill-rule="evenodd" clip-rule="evenodd" d="M24 41.0273C28.7333 41.0273 32.75 39.369 36.05 36.0523C39.35 32.7357 41 28.7273 41 24.0273C41 19.294 39.35 15.2773 36.05 11.9773C32.75 8.67734 28.7333 7.02734 24 7.02734C19.3 7.02734 15.2917 8.67734 11.975 11.9773C8.65833 15.2773 7 19.294 7 24.0273C7 28.7273 8.65833 32.7357 11.975 36.0523C15.2917 39.369 19.3 41.0273 24 41.0273ZM35.2 18.9773L21.05 33.1273L12.8 24.8273L15.05 22.5773L21.05 28.5773L32.9 16.7273L35.2 18.9773Z" fill="#61D56E"/>
<path fill-rule="evenodd" clip-rule="evenodd" d="M16.25 42.4523C18.6833 43.5023 21.2667 44.0273 24 44.0273C26.7667 44.0273 29.3667 43.5023 31.8 42.4523C34.2333 41.4023 36.35 39.969 38.15 38.1523C39.95 36.3357 41.375 34.2107 42.425 31.7773C43.475 29.344 44 26.7607 44 24.0273C44 21.2607 43.475 18.6607 42.425 16.2273C41.375 13.794 39.95 11.6773 38.15 9.87734C36.35 8.07734 34.2333 6.65234 31.8 5.60234C29.3667 4.55234 26.7667 4.02734 24 4.02734C21.2667 4.02734 18.6833 4.55234 16.25 5.60234C13.8167 6.65234 11.6917 8.07734 9.875 9.87734C8.05833 11.6773 6.625 13.794 5.575 16.2273C4.525 18.6607 4 21.2607 4 24.0273C4 26.7607 4.525 29.344 5.575 31.7773C6.625 34.2107 8.05833 36.3357 9.875 38.1523C11.6917 39.969 13.8167 41.4023 16.25 42.4523ZM36.05 36.0523C32.75 39.369 28.7333 41.0273 24 41.0273C19.3 41.0273 15.2917 39.369 11.975 36.0523C8.65833 32.7357 7 28.7273 7 24.0273C7 19.294 8.65833 15.2773 11.975 11.9773C15.2917 8.67734 19.3 7.02734 24 7.02734C28.7333 7.02734 32.75 8.67734 36.05 11.9773C39.35 15.2773 41 19.294 41 24.0273C41 28.7273 39.35 32.7357 36.05 36.0523Z" fill="#61D56E"/>
<path d="M21.05 33.1273L35.2 18.9773L32.9 16.7273L21.05 28.5773L15.05 22.5773L12.8 24.8273L21.05 33.1273Z" fill="#121214"/>
</svg>
