<svg width="76" height="20" viewBox="0 0 76 20" fill="none" xmlns="http://www.w3.org/2000/svg">
<path fill-rule="evenodd" clip-rule="evenodd" d="M36.4792 0.561409H23.8359V19.8947H36.257V17.7427H26.4675V10.7368H35.1693V8.61989H26.4675V2.73685H35.9295L36.4792 0.561409ZM57.0172 10.0819C57.0172 3.94153 52.0231 0.596494 46.1634 0.514623C45.6839 0.514623 45.2394 0.514623 44.7716 0.514623C43.2628 0.514623 41.7073 0.538015 40.2219 0.631582V19.8597C41.7892 20 43.4266 20 44.9938 20C51.8242 19.9766 57.0172 16.6667 57.0172 10.0819ZM54.257 10.1053C54.257 15.2982 50.409 17.8597 45.2979 17.8597C44.4909 17.8597 43.6488 17.8012 42.8418 17.7427V2.67837C43.7892 2.59649 44.7716 2.5965 45.719 2.5965C50.3973 2.5965 54.257 5.11111 54.257 10.1053ZM75.6839 19.8947L66.6663 0H66.5494L57.5669 19.8947H60.3272L62.4792 14.8421H70.7131L72.8652 19.8947H75.6839ZM69.8476 12.8421H63.3447L66.6079 5.1696L69.8476 12.8421Z" fill="white"/>
<path d="M9.4386 0.128326H0V9.56693H9.4386V0.128326Z" fill="#E31ECF"/>
<path d="M19.6261 0.128296H10.1875V9.5669H19.6261V0.128296Z" fill="#F58220"/>
<path d="M9.4386 10.3159H0V19.7544H9.4386V10.3159Z" fill="#61D56E"/>
<path d="M19.6261 10.3159H10.1875V19.7545H19.6261V10.3159Z" fill="#E31E36"/>
<path fill-rule="evenodd" clip-rule="evenodd" d="M7.49694 1.85984H6.61975L4.72501 6.39786L2.81858 1.85984H1.92969L4.68992 8.0002H4.73671L7.49694 1.85984Z" fill="white"/>
<path fill-rule="evenodd" clip-rule="evenodd" d="M16.8304 6.16342C16.8304 4.32716 13.8947 4.47921 13.8947 3.25114C13.8947 2.67804 14.5029 2.42073 15.0526 2.42073C15.5087 2.42073 15.9999 2.5026 16.3742 2.71313L16.5146 2.05814C16.1169 1.85931 15.614 1.76575 15.076 1.76575C14.0818 1.76575 13.0409 2.29206 13.0409 3.34469C13.0409 5.13417 15.9765 4.95874 15.9765 6.28038C15.9765 6.93535 15.2865 7.27453 14.6549 7.27453C14.1052 7.27453 13.5906 7.13418 13.1227 6.86517L12.9707 7.52014C13.4502 7.80084 13.9064 7.94119 14.6198 7.94119C15.7075 7.9295 16.8304 7.34471 16.8304 6.16342Z" fill="white"/>
<path fill-rule="evenodd" clip-rule="evenodd" d="M6.66622 12.0468H2.77148V18.0117H6.59605V17.3567H3.5785V15.193H6.26856V14.538H3.5785V12.7134H6.50248L6.66622 12.0468Z" fill="white"/>
<path fill-rule="evenodd" clip-rule="evenodd" d="M17.9062 18.1051L17.8244 11.9647H17.801L14.9121 15.4267L12.0115 11.9647H11.9764L11.9062 18.1051H12.7016L12.7367 13.9062L14.8887 16.4676H14.9121L17.0758 13.9062L17.1109 18.1051H17.9062Z" fill="white"/>
</svg>
