<svg width="15" height="16" viewBox="0 0 15 16" fill="none" xmlns="http://www.w3.org/2000/svg">
<path d="M4.82812 2.23438H4.6875C4.76484 2.23438 4.82812 2.17109 4.82812 2.09375V2.23438H10.1719V2.09375C10.1719 2.17109 10.2352 2.23438 10.3125 2.23438H10.1719V3.5H11.4375V2.09375C11.4375 1.47324 10.933 0.96875 10.3125 0.96875H4.6875C4.06699 0.96875 3.5625 1.47324 3.5625 2.09375V3.5H4.82812V2.23438ZM13.6875 3.5H1.3125C1.00137 3.5 0.75 3.75137 0.75 4.0625V4.625C0.75 4.70234 0.813281 4.76562 0.890625 4.76562H1.95234L2.38652 13.959C2.41465 14.5584 2.91035 15.0312 3.50977 15.0312H11.4902C12.0914 15.0312 12.5854 14.5602 12.6135 13.959L13.0477 4.76562H14.1094C14.1867 4.76562 14.25 4.70234 14.25 4.625V4.0625C14.25 3.75137 13.9986 3.5 13.6875 3.5ZM11.3549 13.7656H3.64512L3.21973 4.76562H11.7803L11.3549 13.7656Z" fill="#8C8C8C"/>
</svg>
