<svg width="25" height="26" viewBox="0 0 25 26" fill="none" xmlns="http://www.w3.org/2000/svg">
<g clip-path="url(#clip0)">
<path d="M9.83022 24.2745C9.58139 24.2745 9.34525 24.1653 9.18377 23.9759L2.05408 15.601C1.41322 14.8591 0.933341 14.0674 0.631193 13.2519C-0.505291 10.2847 -0.0909167 6.91438 1.74381 4.24633C3.60037 1.54781 6.54721 0 9.82971 0C13.0574 0 15.9753 1.50668 17.8359 4.13309C19.6792 6.73512 20.1581 10.0547 19.1176 13.0127L17.5165 12.4495C18.3747 10.01 17.976 7.26832 16.4506 5.11418C14.9124 2.94277 12.4993 1.69762 9.82971 1.69762C7.11444 1.69762 4.67744 2.9773 3.14283 5.20863C1.62447 7.41609 1.27967 10.1994 2.22014 12.6542C2.45475 13.2874 2.83154 13.9044 3.34291 14.497L9.82971 22.1168L10.7961 20.9808L12.089 22.0812L10.4762 23.9769C10.3152 24.1648 10.0785 24.2745 9.83022 24.2745Z" fill="black"/>
<path d="M9.83125 14.5414C7.21043 14.5414 5.07812 12.4091 5.07812 9.78828C5.07812 7.16746 7.21043 5.03516 9.83125 5.03516C12.4521 5.03516 14.5844 7.16746 14.5844 9.78828C14.5844 12.4091 12.4521 14.5414 9.83125 14.5414ZM9.83125 6.73328C8.14633 6.73328 6.77574 8.10387 6.77574 9.78879C6.77574 11.4737 8.14633 12.8443 9.83125 12.8443C11.5162 12.8443 12.8868 11.4737 12.8868 9.78879C12.8868 8.10387 11.5162 6.73328 9.83125 6.73328Z" fill="black"/>
<path d="M17.1286 25.9994C13.2129 25.9994 10.0273 22.8139 10.0273 18.8981C10.0273 14.9824 13.2129 11.7969 17.1286 11.7969C21.0443 11.7969 24.2298 14.9824 24.2298 18.8981C24.2298 22.8139 21.0443 25.9994 17.1286 25.9994ZM17.1286 13.4945C14.1493 13.4945 11.725 15.9183 11.725 18.8981C11.725 21.878 14.1487 24.3023 17.1286 24.3023C20.1084 24.3023 22.5327 21.8785 22.5327 18.8981C22.5327 15.9188 20.1084 13.4945 17.1286 13.4945Z" fill="black"/>
<path d="M17.1298 23.1145C16.6611 23.1145 16.2812 22.7346 16.2812 22.2659V16.0986C16.2812 15.6298 16.6611 15.25 17.1298 15.25C17.5985 15.25 17.9784 15.6298 17.9784 16.0986V22.2659C17.9784 22.7346 17.599 23.1145 17.1298 23.1145Z" fill="black"/>
<path d="M19.9306 19.6625C19.7132 19.6625 19.4964 19.5797 19.3303 19.4137L17.1295 17.2133L14.9291 19.4137C14.598 19.7453 14.0608 19.7453 13.7292 19.4137C13.3976 19.0826 13.3976 18.5453 13.7292 18.2137L16.5297 15.4126C16.8481 15.0942 17.4118 15.0942 17.7297 15.4126L20.5308 18.2137C20.8624 18.5448 20.8624 19.0826 20.5308 19.4137C20.3647 19.5797 20.1474 19.6625 19.9306 19.6625Z" fill="black"/>
</g>
<defs>
<clipPath id="clip0">
<rect width="24.2303" height="26" fill="white"/>
</clipPath>
</defs>
</svg>
