<svg width="19" height="18" viewBox="0 0 19 18" fill="none" xmlns="http://www.w3.org/2000/svg">
<path d="M17.8195 14.7516H16.5586C16.4602 14.7516 16.3781 14.8336 16.3781 14.932V16.3805H1.61953V1.61953H16.3805V3.06797C16.3805 3.16641 16.4625 3.24844 16.5609 3.24844H17.8219C17.9203 3.24844 18.0023 3.16875 18.0023 3.06797V0.719531C18.0023 0.321094 17.6813 0 17.2828 0H0.719531C0.321094 0 0 0.321094 0 0.719531V17.2805C0 17.6789 0.321094 18 0.719531 18H17.2805C17.6789 18 18 17.6789 18 17.2805V14.932C18 14.8312 17.918 14.7516 17.8195 14.7516ZM18.1406 8.15625H10.7812V6.375C10.7812 6.21797 10.5984 6.12891 10.4766 6.22734L7.15078 8.85234C7.12837 8.86988 7.11025 8.89229 7.09778 8.91788C7.08532 8.94346 7.07884 8.97154 7.07884 9C7.07884 9.02846 7.08532 9.05654 7.09778 9.08212C7.11025 9.10771 7.12837 9.13012 7.15078 9.14766L10.4766 11.7727C10.6008 11.8711 10.7812 11.782 10.7812 11.625V9.84375H18.1406C18.2437 9.84375 18.3281 9.75937 18.3281 9.65625V8.34375C18.3281 8.24063 18.2437 8.15625 18.1406 8.15625Z" fill="#272727"/>
</svg>
