<svg width="22" height="16" viewBox="0 0 22 16" fill="none" xmlns="http://www.w3.org/2000/svg">
<path d="M14.8594 16H19.1927C19.7673 16 20.3184 15.7893 20.7248 15.4142C21.1311 15.0391 21.3594 14.5304 21.3594 14V2C21.3594 1.46957 21.1311 0.960859 20.7248 0.585786C20.3184 0.210714 19.7673 0 19.1927 0H14.8594V2H19.1927V14H14.8594V16Z" fill="black"/>
<path d="M7.58901 1.65677L9.12734 3.06477L4.88068 7.01777L14.7878 7.01777C15.0751 7.01777 15.3506 7.12312 15.5538 7.31066C15.757 7.4982 15.8711 7.75255 15.8711 8.01777C15.8711 8.28298 15.757 8.53734 15.5538 8.72487C15.3506 8.91241 15.0751 9.01777 14.7878 9.01777L4.86118 9.01777L9.17284 12.9648L7.64751 14.3848L0.723927 8.04777L7.58901 1.65677Z" fill="black"/>
</svg>
