<svg width="26" height="26" viewBox="0 0 26 26" fill="none" xmlns="http://www.w3.org/2000/svg">
<path d="M20.2954 14.9121H9.94041C9.41251 14.9121 8.98438 14.4839 8.98438 13.956C8.98438 13.4281 9.41251 13 9.94041 13H20.2961C20.824 13 21.2521 13.4281 21.2521 13.956C21.2514 14.4839 20.8233 14.9121 20.2954 14.9121Z" fill="#1A1413"/>
<path d="M6.11793 18.0031H17.8432C18.3711 18.0031 18.7993 18.4312 18.7993 18.9591V21.2848C18.7993 22.7431 19.986 23.9291 21.4436 23.9291C22.9019 23.9291 24.0879 22.7424 24.0879 21.2848V3.11041L22.3636 4.63591C22.0006 4.95666 21.4547 4.95528 21.093 4.63244L18.4168 2.23889L15.7399 4.63244C15.3769 4.95736 14.8282 4.95736 14.4652 4.63244L11.789 2.23958L9.11282 4.63314C8.75188 4.95597 8.20597 4.95805 7.84226 4.6366L6.11724 3.11041V18.0031H6.11793ZM21.4436 25.8412C18.9309 25.8412 16.8872 23.7975 16.8872 21.2848V19.9145H1.91207V21.2848C1.91207 22.7431 3.09811 23.9291 4.55641 23.9291V25.8412C2.0437 25.8412 0 23.7975 0 21.2848V18.9591C0 18.4312 0.428138 18.0031 0.956035 18.0031H4.20586V0.988423C4.20586 0.612244 4.42617 0.271396 4.76909 0.116907C5.11202 -0.0368905 5.51383 0.0240741 5.7951 0.272089L8.472 2.64001L11.1517 0.243685C11.5147 -0.0812284 12.0627 -0.0812284 12.4257 0.243685L15.1026 2.63724L17.7788 0.243685C18.1418 -0.0812284 18.6905 -0.0812284 19.0535 0.243685L21.7332 2.64001L24.4101 0.272089C24.692 0.0233813 25.0932 -0.0375833 25.4361 0.116907C25.779 0.271396 25.9993 0.612244 25.9993 0.988423V21.2848C26 23.7975 23.9556 25.8412 21.4436 25.8412Z" fill="#1A1413"/>
</svg>
