<svg width="18" height="20" viewBox="0 0 18 20" fill="none" xmlns="http://www.w3.org/2000/svg">
<g clip-path="url(#clip0)">
<path d="M17.2949 19.3159H0.705106C0.31577 19.3159 0 19.0001 0 18.6108C0 13.6252 3.19618 10.8799 9 10.8799C14.8038 10.8799 18 13.6256 18 18.6108C18 19.0001 17.6842 19.3159 17.2949 19.3159ZM1.43549 17.906H16.5645C16.2868 14.1783 13.7456 12.2897 9 12.2897C4.2544 12.2897 1.71278 14.1783 1.43549 17.906Z" fill="#272727"/>
<path d="M8.99991 9.84583C6.42131 9.84583 4.32373 7.56904 4.32373 4.77012C4.32373 2.0508 6.33379 0 8.99991 0C11.666 0 13.6761 2.0508 13.6761 4.77012C13.6761 7.56904 11.5785 9.84583 8.99991 9.84583ZM8.99991 1.40983C7.10718 1.40983 5.73356 2.82306 5.73356 4.77012C5.73356 6.7915 7.19885 8.43599 8.99991 8.43599C10.801 8.43599 12.2663 6.7915 12.2663 4.77012C12.2663 2.85438 10.8621 1.40983 8.99991 1.40983Z" fill="#272727"/>
</g>
<defs>
<clipPath id="clip0">
<rect width="18" height="19.3159" fill="white"/>
</clipPath>
</defs>
</svg>
