<svg width="50" height="50" viewBox="0 0 50 50" fill="none" xmlns="http://www.w3.org/2000/svg">
<rect width="50" height="50" transform="translate(50 50) rotate(180)" fill="url(#paint0_radial)"/>
<path d="M25 48.4336C37.9441 48.4336 48.4375 37.9403 48.4375 24.9961C48.4375 12.0519 37.9441 1.55859 25 1.5586C12.0559 1.5586 1.5625 12.052 1.5625 24.9961C1.5625 37.9402 12.0559 48.4336 25 48.4336ZM10.6369 10.633C14.1985 7.08224 18.9545 4.98464 23.9782 4.74895C29.0018 4.51326 33.9333 6.15635 37.8117 9.35808C41.6901 12.5598 44.2375 17.0908 44.9577 22.0682C45.6778 27.0455 44.519 32.1127 41.7071 36.2824C38.8953 40.4521 34.6317 43.4255 29.7472 44.6234C24.8628 45.8212 19.7073 45.1576 15.2853 42.7619C10.8634 40.3662 7.49182 36.41 5.82751 31.6641C4.1632 26.9183 4.3254 21.7228 6.28252 17.09C7.30253 14.6762 8.78133 12.4833 10.6369 10.633Z" fill="white"/>
<path d="M23.378 33.888L25.5878 36.0977L36.6895 24.996L25.5878 13.8944L23.378 16.104L30.7075 23.4335L12.4028 23.4335L12.4028 26.5585L30.7075 26.5585L23.378 33.888Z" fill="white"/>
<defs>
<radialGradient id="paint0_radial" cx="0" cy="0" r="1" gradientUnits="userSpaceOnUse" gradientTransform="translate(25 25) rotate(90) scale(25)">
<stop stop-color="#525252" stop-opacity="0.48"/>
<stop offset="1" stop-color="#5C5C5C" stop-opacity="0"/>
</radialGradient>
</defs>
</svg>
