<svg width="30" height="30" viewBox="0 0 30 30" fill="none" xmlns="http://www.w3.org/2000/svg">
<g clip-path="url(#clip0)">
<path d="M17.4215 12.8476C15.8425 11.2686 14.2211 9.91255 12.856 9.02927C11.1758 7.94209 10.123 7.70611 9.54275 8.28626C9.4318 8.39722 9.35093 8.52564 9.29991 8.67231L0.255949 29.1769C0.158426 29.3981 0.206513 29.6563 0.377046 29.8275C0.489406 29.9403 0.639766 30 0.79259 30C0.871758 30 0.951571 29.984 1.02716 29.951L21.6025 20.9662C21.7466 20.9151 21.8734 20.8357 21.9828 20.7262C22.5631 20.146 22.327 19.0932 21.2398 17.413C20.3566 16.0479 19.0005 14.4266 17.4215 12.8476ZM15.9384 22.1598L14.3945 20.6159C14.1655 20.3869 13.7942 20.3869 13.5651 20.6159C13.3361 20.8449 13.3361 21.2163 13.5651 21.4453L14.7838 22.664L9.02095 25.1805L5.05135 21.2109L7.58543 15.4656L10.2478 18.1279C10.3623 18.2424 10.5124 18.2997 10.6624 18.2997C10.8125 18.2997 10.9626 18.2424 11.0771 18.1279C11.3061 17.8989 11.3061 17.5276 11.0771 17.2985L8.09304 14.3145L9.71774 10.6309C9.87057 10.9277 10.0595 11.2497 10.2857 11.5994C11.169 12.9645 12.525 14.5859 14.1041 16.1649C15.683 17.7439 17.3044 19.0999 18.6695 19.9832C19.0162 20.2076 19.3359 20.3953 19.6306 20.5474L15.9384 22.1598ZM16.5921 13.677C17.9862 15.0711 19.2167 16.5181 20.0567 17.7516C20.8672 18.9417 21.0842 19.5976 21.1129 19.8564C20.8541 19.8277 20.1982 19.6107 19.0081 18.8002C17.7746 17.9601 16.3276 16.7297 14.9334 15.3355C13.5393 13.9414 12.3089 12.4944 11.4688 11.2609C10.6583 10.0708 10.4413 9.4149 10.4126 9.15611C10.6714 9.18485 11.3274 9.40189 12.5174 10.2123C13.751 11.0524 15.198 12.2828 16.5921 13.677ZM4.54368 22.3618L7.86645 25.6846L1.93589 28.2744L4.54368 22.3618Z" fill="white"/>
<path d="M24.5784 6.22734C24.5049 5.80188 24.5014 5.66038 24.6196 5.54209C24.7379 5.42375 24.8794 5.42727 25.305 5.50075C25.7621 5.57969 26.4531 5.69896 27.019 5.13288C27.248 4.90388 27.248 4.53256 27.019 4.30356C26.79 4.07462 26.4186 4.07456 26.1896 4.30362C26.0713 4.42184 25.9297 4.41838 25.5043 4.34496C25.0471 4.26603 24.3561 4.14686 23.7902 4.71283C23.2243 5.27885 23.3436 5.96978 23.4226 6.42696C23.4961 6.85241 23.4996 6.99392 23.3813 7.11226C23.2631 7.23048 23.1217 7.22708 22.6961 7.15354C22.239 7.07467 21.548 6.95533 20.982 7.52129C20.4161 8.08726 20.5355 8.77819 20.6145 9.23537C20.6881 9.66076 20.6915 9.80227 20.5734 9.92049C20.4551 10.0387 20.3136 10.0353 19.8882 9.96172C19.4311 9.88278 18.7402 9.76345 18.1742 10.3295C17.9452 10.5585 17.9452 10.9298 18.1742 11.1588C18.2887 11.2733 18.4388 11.3305 18.5888 11.3305C18.7389 11.3305 18.889 11.2732 19.0035 11.1587C19.1217 11.0405 19.2632 11.044 19.6886 11.1175C20.1458 11.1964 20.8367 11.3158 21.4027 10.7498C21.9686 10.1838 21.8492 9.49281 21.7703 9.03563C21.6967 8.61029 21.6933 8.46873 21.8114 8.35056C21.9296 8.23234 22.0712 8.2358 22.4965 8.30928C22.9538 8.38827 23.6447 8.50755 24.2106 7.94153C24.7767 7.37551 24.6574 6.68458 24.5784 6.22734Z" fill="white"/>
<path d="M12.9579 6.86568C13.0724 6.98021 13.2225 7.03744 13.3726 7.03744C13.5226 7.03744 13.6728 6.98015 13.7872 6.86568C15.2457 5.40705 15.2457 3.03372 13.7872 1.57509C13.5583 1.34609 13.187 1.34603 12.9579 1.57509C12.7289 1.80409 12.7288 2.17536 12.9579 2.40442C13.9591 3.40575 13.9591 5.03508 12.9579 6.03641C12.7289 6.26541 12.7289 6.63674 12.9579 6.86568Z" fill="white"/>
<path d="M26.5389 17.4199C25.5398 17.4199 24.6004 17.8091 23.8939 18.5157C23.6649 18.7447 23.6649 19.116 23.894 19.345C24.1229 19.574 24.4943 19.574 24.7233 19.345C25.2083 18.86 25.8531 18.5928 26.539 18.5928C27.2249 18.5928 27.8697 18.8599 28.3547 19.345C28.4692 19.4595 28.6193 19.5168 28.7694 19.5168C28.9194 19.5168 29.0695 19.4595 29.184 19.345C29.413 19.116 29.413 18.7447 29.184 18.5157C28.4774 17.8091 27.5381 17.4199 26.5389 17.4199Z" fill="white"/>
<path d="M28.3028 2.93214C28.6267 2.93214 28.8892 2.66954 28.8892 2.34572L28.8892 0.586429C28.8892 0.262603 28.6266 0 28.3027 0C27.9789 0 27.7163 0.262603 27.7163 0.586429L27.7164 2.34572C27.7164 2.6696 27.9789 2.93214 28.3028 2.93214Z" fill="white"/>
<path d="M17.8335 4.10952H18.4152V4.6912C18.4152 5.01508 18.6778 5.27763 19.0017 5.27763C19.3255 5.27763 19.588 5.01502 19.588 4.6912V4.10952H20.1697C20.4935 4.10952 20.7561 3.84692 20.7561 3.52309C20.7561 3.19926 20.4935 2.93666 20.1697 2.93666H19.588V2.35498C19.588 2.0311 19.3254 1.76855 19.0015 1.76855C18.6777 1.76855 18.4151 2.03116 18.4151 2.35498V2.93666H17.8335C17.5096 2.93666 17.2471 3.19926 17.2471 3.52309C17.2471 3.84692 17.5097 4.10952 17.8335 4.10952Z" fill="white"/>
<path d="M29.2055 8.26953L27.4462 8.26959C27.1224 8.26959 26.8599 8.53219 26.8599 8.85602C26.8599 9.17985 27.1225 9.44245 27.4464 9.44245L29.2056 9.44239C29.5295 9.44239 29.792 9.17979 29.792 8.85596C29.792 8.53213 29.5295 8.26947 29.2055 8.26953Z" fill="white"/>
<path d="M25.3941 15.4229C26.3641 15.4229 27.1533 14.6337 27.1533 13.6636C27.1533 12.6935 26.3641 11.9043 25.3941 11.9043C24.424 11.9043 23.6348 12.6935 23.6348 13.6636C23.6348 14.6337 24.424 15.4229 25.3941 15.4229ZM25.3941 13.0772C25.7174 13.0772 25.9805 13.3402 25.9805 13.6636C25.9805 13.9869 25.7174 14.25 25.3941 14.25C25.0707 14.25 24.8076 13.9869 24.8076 13.6636C24.8076 13.3402 25.0707 13.0772 25.3941 13.0772Z" fill="white"/>
<path d="M12.3208 18.7852C11.997 18.7852 11.7344 19.0477 11.7344 19.3716C11.7344 19.6955 11.997 19.958 12.3208 19.958H12.3214C12.6452 19.958 12.9075 19.6955 12.9075 19.3716C12.9075 19.0477 12.6447 18.7852 12.3208 18.7852Z" fill="white"/>
<path d="M25.4531 21.126C25.1293 21.126 24.8667 21.3885 24.8667 21.7124C24.8667 22.0363 25.1293 22.2988 25.4531 22.2988H25.4537C25.7775 22.2988 26.0398 22.0363 26.0398 21.7124C26.0398 21.3885 25.777 21.126 25.4531 21.126Z" fill="white"/>
<path d="M28.9702 11.7275C28.6464 11.7275 28.3838 11.9901 28.3838 12.314C28.3838 12.6379 28.6464 12.9004 28.9702 12.9004H28.9708C29.2946 12.9004 29.5569 12.6379 29.5569 12.314C29.5569 11.9901 29.294 11.7275 28.9702 11.7275Z" fill="white"/>
<path d="M21.3281 13.5293C21.0043 13.5293 20.7417 13.7918 20.7417 14.1157C20.7417 14.4396 21.0043 14.7022 21.3281 14.7022H21.3287C21.6525 14.7022 21.9148 14.4396 21.9148 14.1157C21.9148 13.7918 21.652 13.5293 21.3281 13.5293Z" fill="white"/>
<path d="M16.6025 7.68262C16.2787 7.68262 16.0161 7.94516 16.0161 8.26905C16.0161 8.59293 16.2787 8.85548 16.6025 8.85548H16.6031C16.927 8.85548 17.1893 8.59293 17.1893 8.26905C17.1893 7.94516 16.9264 7.68262 16.6025 7.68262Z" fill="white"/>
<path d="M23.6982 0.644531C23.3744 0.644531 23.1118 0.907075 23.1118 1.23096C23.1118 1.55484 23.3744 1.81739 23.6982 1.81739H23.6988C24.0227 1.81739 24.285 1.55484 24.285 1.23096C24.285 0.907075 24.0221 0.644531 23.6982 0.644531Z" fill="white"/>
<path d="M10.2051 3.51758C9.88125 3.51758 9.61865 3.78012 9.61865 4.10401C9.61865 4.42789 9.88125 4.69044 10.2051 4.69044H10.2057C10.5295 4.69044 10.7918 4.42789 10.7918 4.10401C10.7918 3.78012 10.5289 3.51758 10.2051 3.51758Z" fill="white"/>
</g>
<defs>
<clipPath id="clip0">
<rect width="30" height="30" fill="white"/>
</clipPath>
</defs>
</svg>
