<svg width="11" height="9" viewBox="0 0 11 9" fill="none" xmlns="http://www.w3.org/2000/svg">
<path d="M1.91308 3.33594H1.91326C1.99256 3.33603 2.07081 3.35409 2.14213 3.38876C2.21341 3.4234 2.27591 3.47373 2.32497 3.53598L1.91308 3.33594ZM1.91308 3.33594H1.09394C0.890308 3.33594 0.776602 3.57053 0.902321 3.72998L0.902371 3.73005L4.11214 7.79645L4.11218 7.79651C4.32247 8.06266 4.72568 8.06192 4.93667 7.79696L4.93708 7.79644L10.6597 0.544765C10.6598 0.544562 10.66 0.54436 10.6602 0.544157C10.7884 0.38373 10.6699 0.150781 10.4689 0.150781H9.6498C9.48941 0.150781 9.33668 0.224282 9.2376 0.351222C9.23751 0.351332 9.23742 0.351442 9.23734 0.351553L4.52403 6.32235M1.91308 3.33594L4.52403 6.32235M4.52403 6.32235L2.32506 3.53609L4.52403 6.32235Z" fill="white" stroke="white" stroke-width="0.3"/>
</svg>
