<svg width="100" height="100" viewBox="0 0 100 100" fill="none" xmlns="http://www.w3.org/2000/svg">
<g clip-path="url(#clip0)">
<path d="M81.8877 67.6688C81.0787 67.6688 80.4229 68.3246 80.4229 69.1336V91.7316C80.4229 94.675 78.0281 97.0697 75.0846 97.0697H24.9162C21.9727 97.0697 19.5779 94.675 19.5779 91.7316V36.0408H33.8408C34.6498 36.0408 35.3057 35.385 35.3057 34.576C35.3057 33.767 34.6498 33.1111 33.8408 33.1111H27.9162V28.0834H27.9143C27.9143 27.7016 27.767 27.3332 27.498 27.0586L23.5791 23.0557H32.2055C33.0773 25.8781 35.7105 27.9348 38.8154 27.9348C41.9203 27.9348 44.5535 25.8781 45.4254 23.0557H57.483C58.292 23.0557 58.9479 22.3998 58.9479 21.5908C58.9479 20.7818 58.292 20.126 57.483 20.126H45.6725C45.2332 16.7324 42.3268 14.1016 38.8154 14.1016C35.3041 14.1016 32.3977 16.7322 31.9584 20.126H20.0951C20.0773 20.126 20.06 20.1283 20.0422 20.1287C20.0143 20.1297 19.9863 20.1305 19.9584 20.133C18.1215 20.2057 16.6484 21.7184 16.6484 23.5729V91.7316C16.6484 96.2904 20.3574 99.9994 24.9164 99.9994H75.0848C79.6438 99.9994 83.3527 96.2904 83.3527 91.7316V69.1336C83.3525 68.3246 82.6967 67.6688 81.8877 67.6688ZM22.3787 33.1111L24.9865 31.0807V33.1111H22.3787ZM19.5779 31.5789V23.5729C19.5779 23.4566 19.6178 23.3506 19.6828 23.2641L24.2566 27.9357L19.5779 31.5789ZM38.8152 17.0314C41.0135 17.0314 42.8022 18.8199 42.8022 21.0184C42.8022 23.2168 41.0137 25.0053 38.8152 25.0053C36.6168 25.0053 34.8283 23.2168 34.8283 21.0184C34.8285 18.8199 36.617 17.0314 38.8152 17.0314Z" fill="#A1A1A1" fill-opacity="0.32"/>
<path d="M80.0418 20.1328C80.0148 20.1303 79.9879 20.1297 79.9609 20.1287C79.9422 20.1285 79.924 20.126 79.9053 20.126H64.7141C63.9051 20.126 63.2492 20.7818 63.2492 21.5908C63.2492 22.3998 63.9051 23.0557 64.7141 23.0557H76.4213L72.5023 27.0586C72.2334 27.3332 72.0861 27.7016 72.0861 28.0834H72.0842V33.1111H63.0615C63.0621 33.0762 63.0639 33.0412 63.0639 33.0061C63.0639 29.8262 60.4768 27.2391 57.2969 27.2391C54.117 27.2391 51.5299 29.8262 51.5299 33.0061C51.5299 33.0412 51.5316 33.076 51.5322 33.1111H41.0723C40.2633 33.1111 39.6074 33.767 39.6074 34.576C39.6074 35.385 40.2633 36.0408 41.0723 36.0408H80.4225V61.9018C80.4225 62.7107 81.0783 63.3666 81.8873 63.3666C82.6963 63.3666 83.3521 62.7107 83.3521 61.9018V23.5727C83.3521 21.7182 81.8789 20.2053 80.0418 20.1328ZM80.3176 23.2639C80.3824 23.3504 80.4225 23.4564 80.4225 23.5727V31.5787L75.7437 27.9355L80.3176 23.2639ZM75.0139 31.0805L77.6217 33.1109H75.0139V31.0805ZM54.4598 33.0061C54.4598 31.4416 55.7326 30.1688 57.2971 30.1688C58.8615 30.1688 60.1344 31.4416 60.1344 33.0061C60.1344 33.0412 60.1309 33.076 60.1295 33.1111H54.4646C54.4633 33.076 54.4598 33.0412 54.4598 33.0061Z" fill="#A1A1A1" fill-opacity="0.32"/>
<path d="M40.2805 45.0455C40.2805 42.4137 38.1393 40.2725 35.5074 40.2725C32.8756 40.2725 30.7344 42.4135 30.7344 45.0455C30.7344 47.1664 32.1254 48.9678 34.0426 49.5877V60.1367C34.0426 68.9361 41.2014 76.0949 50.0008 76.0949C58.8002 76.0949 65.959 68.9361 65.959 60.1367V49.5877C67.8762 48.9678 69.2672 47.1664 69.2672 45.0455C69.2672 42.4137 67.126 40.2725 64.4941 40.2725C61.8623 40.2725 59.7211 42.4135 59.7211 45.0455C59.7211 47.1664 61.1121 48.9678 63.0293 49.5877V60.1367C63.0293 67.3207 57.1848 73.1652 50.0008 73.1652C42.8168 73.1652 36.9723 67.3207 36.9723 60.1367V49.5877C38.8896 48.9678 40.2805 47.1664 40.2805 45.0455ZM64.4941 43.2021C65.5105 43.2021 66.3375 44.0289 66.3375 45.0455C66.3375 45.9467 65.6871 46.6975 64.8312 46.8564C64.7228 46.8309 64.6103 46.8158 64.4941 46.8158C64.3779 46.8158 64.2654 46.8309 64.157 46.8564C63.3012 46.6975 62.6508 45.9467 62.6508 45.0455C62.6508 44.0291 63.4777 43.2021 64.4941 43.2021ZM35.5074 43.2021C36.5238 43.2021 37.3508 44.0289 37.3508 45.0455C37.3508 46.0621 36.5238 46.8889 35.5074 46.8889C34.491 46.8889 33.6641 46.0619 33.6641 45.0455C33.6641 44.0291 34.491 43.2021 35.5074 43.2021Z" fill="#A1A1A1" fill-opacity="0.32"/>
<path d="M62.7904 13.9939C65.9703 13.9939 68.5574 11.4068 68.5574 8.22695C68.5574 5.04707 65.9703 2.45996 62.7904 2.45996C59.6105 2.45996 57.0234 5.04688 57.0234 8.22676C57.0234 11.4066 59.6105 13.9939 62.7904 13.9939ZM62.7904 5.38945C64.3549 5.38945 65.6277 6.6623 65.6277 8.22676C65.6277 9.79121 64.3549 11.0641 62.7904 11.0641C61.226 11.0641 59.9531 9.79121 59.9531 8.22676C59.9531 6.6623 61.226 5.38945 62.7904 5.38945Z" fill="#A1A1A1" fill-opacity="0.32"/>
<path d="M26.4486 14.9852C29.6285 14.9852 32.2156 12.398 32.2156 9.21816C32.2156 6.03828 29.6285 3.45117 26.4486 3.45117C23.2687 3.45117 20.6816 6.03828 20.6816 9.21816C20.6816 12.398 23.2686 14.9852 26.4486 14.9852ZM26.4486 6.38086C28.0131 6.38086 29.2859 7.65371 29.2859 9.21816C29.2859 10.7826 28.0131 12.0555 26.4486 12.0555C24.8842 12.0555 23.6113 10.7826 23.6113 9.21816C23.6113 7.65371 24.884 6.38086 26.4486 6.38086Z" fill="#A1A1A1" fill-opacity="0.32"/>
<path d="M42.1654 6.15718C42.4513 6.44312 42.8263 6.58628 43.2011 6.58628C43.5759 6.58628 43.9509 6.44331 44.2369 6.15718L45.0294 5.3646L45.822 6.15718C46.108 6.44331 46.483 6.58628 46.8578 6.58628C47.2326 6.58628 47.6076 6.44331 47.8935 6.15718C48.4656 5.58511 48.4656 4.65776 47.8935 4.08569L47.1009 3.29312L47.8935 2.50054C48.4656 1.92847 48.4656 1.00093 47.8935 0.429053C47.3214 -0.143018 46.3939 -0.143018 45.822 0.429053L45.0294 1.22163L44.2369 0.429053C43.6648 -0.143018 42.7373 -0.143018 42.1654 0.429053C41.5933 1.00112 41.5933 1.92847 42.1654 2.50054L42.958 3.29312L42.1654 4.08569C41.5933 4.65757 41.5933 5.58511 42.1654 6.15718Z" fill="#A1A1A1" fill-opacity="0.32"/>
<path d="M74.8548 16.6474C75.1408 16.9333 75.5158 17.0765 75.8906 17.0765C76.2654 17.0765 76.6404 16.9335 76.9263 16.6474L77.7189 15.8548L78.5115 16.6474C78.7974 16.9335 79.1724 17.0765 79.5472 17.0765C79.922 17.0765 80.297 16.9335 80.583 16.6474C81.155 16.0753 81.155 15.148 80.583 14.5759L79.7904 13.7833L80.583 12.9908C81.155 12.4187 81.155 11.4912 80.583 10.9193C80.0109 10.3472 79.0834 10.3472 78.5115 10.9193L77.7189 11.7119L76.9263 10.9193C76.3544 10.3472 75.4269 10.3472 74.8548 10.9193C74.2828 11.4914 74.2828 12.4187 74.8548 12.9908L75.6474 13.7833L74.8548 14.5759C74.2828 15.148 74.2828 16.0755 74.8548 16.6474Z" fill="#A1A1A1" fill-opacity="0.32"/>
</g>
<defs>
<clipPath id="clip0">
<rect width="100" height="100" fill="white"/>
</clipPath>
</defs>
</svg>
