<svg width="16" height="18" viewBox="0 0 16 18" fill="none" xmlns="http://www.w3.org/2000/svg">
<path d="M13.5512 3.44751L13.5512 0.947266C13.5512 0.804394 13.435 0.6875 13.293 0.6875L11.7439 0.6875C11.6018 0.6875 11.4857 0.804394 11.4857 0.947266L11.4857 3.44751C11.8116 3.34036 12.157 3.28516 12.5184 3.28516C12.8799 3.28516 13.2253 3.3436 13.5512 3.44751ZM11.4857 9.87671L11.4857 17.0527C11.4857 17.1956 11.6018 17.3125 11.7439 17.3125L13.293 17.3125C13.435 17.3125 13.5512 17.1956 13.5512 17.0527L13.5512 9.87671C13.2253 9.98386 12.8799 10.0391 12.5184 10.0391C12.157 10.0391 11.8116 9.98062 11.4857 9.87671ZM13.5512 3.44751C13.2253 3.34036 12.8799 3.28516 12.5184 3.28516C12.157 3.28516 11.8116 3.3436 11.4857 3.44751C10.1366 3.88586 9.16188 5.15872 9.16188 6.66211C9.16188 8.1655 10.1366 9.43835 11.4857 9.87671C11.8116 9.98386 12.157 10.0391 12.5184 10.0391C12.8799 10.0391 13.2253 9.98062 13.5512 9.87671C14.9003 9.43835 15.875 8.1655 15.875 6.66211C15.875 5.15872 14.9003 3.88586 13.5512 3.44751ZM13.548 7.20437C13.5383 7.22385 13.5254 7.24333 13.5157 7.26282L13.5157 7.26606L13.477 7.32451C13.4738 7.33101 13.4705 7.33425 13.4673 7.34075C13.4576 7.35698 13.4447 7.36997 13.435 7.3862C13.4318 7.38945 13.4286 7.39595 13.4254 7.39919C13.4092 7.41868 13.3963 7.43491 13.3802 7.45115L13.3705 7.46089L13.3318 7.49985L13.3189 7.51284C13.3027 7.52908 13.2866 7.54206 13.2672 7.5583C13.2478 7.57454 13.2317 7.58753 13.2123 7.60051C13.2059 7.60376 13.2027 7.60701 13.1962 7.61025C13.1801 7.62 13.1672 7.63298 13.151 7.64273C13.1478 7.64597 13.1413 7.64922 13.1381 7.65247C13.1187 7.66545 13.0994 7.67519 13.0768 7.68818C13.0736 7.69143 13.0671 7.69143 13.0639 7.69468C13.0477 7.70442 13.0316 7.71091 13.0122 7.72065L12.9929 7.7304C12.9703 7.74014 12.9509 7.74988 12.9283 7.75637C12.9057 7.76611 12.8831 7.77261 12.8606 7.7791C12.8541 7.78235 12.8476 7.78235 12.8412 7.7856C12.8218 7.79209 12.8057 7.79534 12.7863 7.79858C12.7799 7.79858 12.7766 7.80183 12.7702 7.80183C12.7476 7.80833 12.7218 7.81157 12.6992 7.81482C12.6927 7.81482 12.6895 7.81482 12.683 7.81807C12.6637 7.82131 12.6443 7.82131 12.6249 7.82456L12.6056 7.82456C12.5798 7.82456 12.5572 7.82781 12.5314 7.82781C12.5055 7.82781 12.4829 7.82781 12.4571 7.82456L12.4378 7.82456C12.4184 7.82456 12.399 7.82131 12.3797 7.81807C12.3732 7.81807 12.37 7.81807 12.3635 7.81482C12.3409 7.81157 12.3151 7.80833 12.2925 7.80183C12.2861 7.80183 12.2828 7.79858 12.2764 7.79858C12.257 7.79534 12.2377 7.78884 12.2215 7.7856C12.2151 7.78235 12.2086 7.78235 12.2022 7.7791C12.1796 7.77261 12.157 7.76611 12.1344 7.75637C12.1118 7.74988 12.0924 7.74014 12.0698 7.7304L12.0505 7.72065C12.0343 7.71416 12.015 7.70442 11.9988 7.69468C11.9956 7.69143 11.9891 7.69143 11.9859 7.68818C11.9665 7.67844 11.944 7.66545 11.9246 7.65247C11.9214 7.64922 11.9149 7.64597 11.9117 7.64273C11.8955 7.63298 11.8794 7.62324 11.8665 7.61025C11.86 7.60701 11.8568 7.60376 11.8504 7.60051C11.831 7.58753 11.8116 7.57129 11.7955 7.5583C11.7794 7.54531 11.76 7.52908 11.7439 7.51284L11.7309 7.49985L11.6922 7.46089L11.6825 7.45115C11.6664 7.43491 11.6503 7.41543 11.6373 7.3992C11.6341 7.39595 11.6309 7.38945 11.6277 7.38621C11.6148 7.37322 11.6051 7.35698 11.5954 7.34075C11.5922 7.33425 11.5889 7.33101 11.5857 7.32451L11.547 7.26606C11.547 7.26606 11.547 7.26282 11.5437 7.26282C11.4361 7.08114 11.3793 6.8736 11.3791 6.66211C11.3791 6.46729 11.4276 6.2822 11.5115 6.11985C11.5212 6.10037 11.5341 6.08088 11.5437 6.0614C11.5437 6.0614 11.5437 6.05816 11.547 6.05816L11.5857 5.99971C11.5889 5.99321 11.5922 5.98997 11.5954 5.98347C11.6051 5.96724 11.618 5.95425 11.6277 5.93801C11.6309 5.93477 11.6341 5.92827 11.6373 5.92502C11.6535 5.90554 11.6664 5.88931 11.6825 5.87307L11.6922 5.86333L11.7309 5.82437L11.7439 5.81138C11.76 5.79514 11.7761 5.78215 11.7955 5.76592C11.8149 5.74968 11.831 5.73669 11.8504 5.72371C11.8568 5.72046 11.86 5.71721 11.8665 5.71396C11.8826 5.70422 11.8955 5.69123 11.9117 5.68149C11.9149 5.67825 11.9214 5.675 11.9246 5.67175C11.944 5.65877 11.9633 5.64902 11.9859 5.63604C11.9891 5.63279 11.9956 5.63279 11.9988 5.62954C12.015 5.6198 12.0311 5.61331 12.0505 5.60357L12.0698 5.59382C12.0924 5.58408 12.1118 5.57434 12.1344 5.56785C12.157 5.5581 12.1796 5.55161 12.2022 5.54512C12.2086 5.54187 12.2151 5.54187 12.2215 5.53862C12.2409 5.53213 12.257 5.52888 12.2764 5.52564C12.2828 5.52564 12.2861 5.52239 12.2925 5.52239C12.3151 5.51589 12.3409 5.51265 12.3635 5.5094C12.37 5.5094 12.3732 5.5094 12.3797 5.50615C12.399 5.50291 12.4184 5.50291 12.4378 5.49966L12.4571 5.49966C12.4829 5.49966 12.5055 5.49641 12.5314 5.49641C12.5572 5.49641 12.5798 5.49641 12.6056 5.49966L12.6249 5.49966C12.6443 5.49966 12.6637 5.50291 12.683 5.50615C12.6895 5.50615 12.6927 5.50615 12.6992 5.5094C12.7218 5.51265 12.7476 5.51589 12.7702 5.52239C12.7766 5.52239 12.7799 5.52564 12.7863 5.52564C12.8057 5.52888 12.8251 5.53538 12.8412 5.53862C12.8476 5.54187 12.8541 5.54187 12.8606 5.54512C12.8831 5.55161 12.9057 5.5581 12.9283 5.56785C12.9509 5.57434 12.9703 5.58408 12.9929 5.59382L13.0122 5.60357C13.0284 5.61006 13.0477 5.6198 13.0639 5.62954C13.0671 5.63279 13.0736 5.63279 13.0768 5.63604C13.0962 5.64578 13.1187 5.65877 13.1381 5.67175C13.1413 5.675 13.1478 5.67825 13.151 5.68149C13.1672 5.69123 13.1833 5.70098 13.1962 5.71396C13.2027 5.71721 13.2059 5.72046 13.2123 5.72371C13.2317 5.73669 13.2511 5.75293 13.2672 5.76592C13.2833 5.77891 13.3027 5.79514 13.3189 5.81138L13.3318 5.82437L13.3705 5.86333L13.3802 5.87307C13.3963 5.88931 13.4124 5.90879 13.4254 5.92502C13.4286 5.92827 13.4318 5.93477 13.435 5.93801C13.4479 5.951 13.4576 5.96724 13.4673 5.98347C13.4705 5.98997 13.4738 5.99321 13.477 5.99971L13.5157 6.05816L13.5157 6.0614C13.5286 6.08088 13.5383 6.10036 13.548 6.11985C13.6319 6.2822 13.6803 6.46729 13.6803 6.66211C13.6803 6.85693 13.6319 7.04202 13.548 7.20437ZM4.51434 8.12329L4.51434 0.947267C4.51434 0.804395 4.39815 0.687501 4.25615 0.687501L2.70697 0.687501C2.56496 0.687501 2.44877 0.804395 2.44877 0.947267L2.44877 8.12329C2.77474 8.01614 3.12008 7.96094 3.48156 7.96094C3.84303 7.96094 4.18837 8.01939 4.51434 8.12329ZM2.44877 14.5525L2.44877 17.0527C2.44877 17.1956 2.56496 17.3125 2.70697 17.3125L4.25615 17.3125C4.39816 17.3125 4.51435 17.1956 4.51435 17.0527L4.51434 14.5525C4.18837 14.6596 3.84303 14.7148 3.48156 14.7148C3.12008 14.7148 2.77474 14.6564 2.44877 14.5525ZM4.51434 8.12329C4.18837 8.01614 3.84303 7.96094 3.48156 7.96094C3.12008 7.96094 2.77474 8.01939 2.44877 8.12329C1.09969 8.56165 0.125 9.8345 0.125 11.3379C0.125001 12.8413 1.09969 14.1141 2.44877 14.5525C2.77474 14.6596 3.12008 14.7148 3.48156 14.7148C3.84303 14.7148 4.18837 14.6564 4.51434 14.5525C5.86342 14.1141 6.83811 12.8413 6.83811 11.3379C6.83811 9.8345 5.86342 8.56165 4.51434 8.12329ZM4.51112 11.8802C4.50143 11.8996 4.48852 11.9191 4.47884 11.9386L4.47884 11.9418L4.44011 12.0003C4.43689 12.0068 4.43366 12.01 4.43043 12.0165C4.42075 12.0328 4.40784 12.0458 4.39816 12.062C4.39493 12.0652 4.3917 12.0717 4.38847 12.075C4.37233 12.0945 4.35943 12.1107 4.34329 12.1269L4.33361 12.1367L4.29488 12.1756L4.28196 12.1886C4.26583 12.2049 4.24969 12.2178 4.23033 12.2341C4.21096 12.2503 4.19483 12.2633 4.17546 12.2763C4.16901 12.2795 4.16578 12.2828 4.15932 12.286C4.14319 12.2958 4.13028 12.3088 4.11414 12.3185C4.11091 12.3218 4.10446 12.325 4.10123 12.3282C4.08186 12.3412 4.0625 12.351 4.03991 12.364C4.03668 12.3672 4.03023 12.3672 4.027 12.3705C4.01086 12.3802 3.99472 12.3867 3.97536 12.3964L3.95599 12.4062C3.9334 12.4159 3.91404 12.4257 3.89144 12.4322C3.86885 12.4419 3.84626 12.4484 3.82367 12.4549C3.81721 12.4581 3.81076 12.4581 3.8043 12.4614C3.78494 12.4679 3.7688 12.4711 3.74943 12.4744C3.74298 12.4744 3.73975 12.4776 3.7333 12.4776C3.7107 12.4841 3.68489 12.4874 3.66229 12.4906C3.65584 12.4906 3.65261 12.4906 3.64616 12.4938C3.62679 12.4971 3.60743 12.4971 3.58806 12.5003L3.5687 12.5003C3.54288 12.5003 3.52029 12.5036 3.49447 12.5036C3.46865 12.5036 3.44605 12.5036 3.42024 12.5003L3.40087 12.5003C3.38151 12.5003 3.36214 12.4971 3.34278 12.4938C3.33632 12.4938 3.3331 12.4938 3.32664 12.4906C3.30405 12.4874 3.27823 12.4841 3.25563 12.4776C3.24918 12.4776 3.24595 12.4744 3.2395 12.4744C3.22013 12.4711 3.20077 12.4646 3.18463 12.4614C3.17817 12.4581 3.17172 12.4581 3.16527 12.4549C3.14267 12.4484 3.12008 12.4419 3.09749 12.4322C3.0749 12.4257 3.05553 12.4159 3.03294 12.4062L3.01358 12.3964C2.99744 12.3899 2.97807 12.3802 2.96194 12.3705C2.95871 12.3672 2.95225 12.3672 2.94903 12.364C2.92966 12.3542 2.90707 12.3412 2.8877 12.3282C2.88448 12.325 2.87802 12.3218 2.8748 12.3185C2.85866 12.3088 2.84252 12.299 2.82961 12.286C2.82315 12.2828 2.81993 12.2795 2.81347 12.2763C2.79411 12.2633 2.77474 12.2471 2.75861 12.2341C2.74247 12.2211 2.7231 12.2049 2.70697 12.1886L2.69406 12.1756L2.65533 12.1367L2.64564 12.1269C2.62951 12.1107 2.61337 12.0912 2.60046 12.075C2.59723 12.0717 2.59401 12.0652 2.59078 12.062C2.57787 12.049 2.56819 12.0328 2.5585 12.0165C2.55528 12.01 2.55205 12.0068 2.54882 12.0003L2.51009 11.9418L2.51009 11.9386C2.40248 11.7569 2.34561 11.5494 2.34549 11.3379C2.34549 11.1431 2.3939 10.958 2.47782 10.7956C2.4875 10.7761 2.50041 10.7567 2.51009 10.7372L2.51009 10.7339L2.54882 10.6755C2.55205 10.669 2.55528 10.6657 2.5585 10.6593C2.56819 10.643 2.5811 10.63 2.59078 10.6138C2.59401 10.6105 2.59723 10.6041 2.60046 10.6008C2.6166 10.5813 2.62951 10.5651 2.64564 10.5489L2.65533 10.5391L2.69406 10.5001L2.70697 10.4872C2.7231 10.4709 2.73924 10.4579 2.75861 10.4417C2.77797 10.4255 2.79411 10.4125 2.81347 10.3995C2.81993 10.3962 2.82315 10.393 2.82961 10.3897C2.84575 10.38 2.85866 10.367 2.8748 10.3573C2.87802 10.354 2.88448 10.3508 2.8877 10.3475C2.90707 10.3345 2.92643 10.3248 2.94903 10.3118C2.95225 10.3086 2.95871 10.3086 2.96194 10.3053C2.97807 10.2956 2.99421 10.2891 3.01358 10.2793L3.03294 10.2696C3.05553 10.2599 3.0749 10.2501 3.09749 10.2436C3.12008 10.2339 3.14267 10.2274 3.16527 10.2209C3.17172 10.2177 3.17817 10.2177 3.18463 10.2144C3.20399 10.2079 3.22013 10.2047 3.2395 10.2014C3.24595 10.2014 3.24918 10.1982 3.25563 10.1982C3.27823 10.1917 3.30405 10.1884 3.32664 10.1852C3.33309 10.1852 3.33632 10.1852 3.34278 10.1819C3.36214 10.1787 3.38151 10.1787 3.40087 10.1754L3.42024 10.1754C3.44605 10.1754 3.46865 10.1722 3.49447 10.1722C3.52029 10.1722 3.54288 10.1722 3.5687 10.1754L3.58806 10.1754C3.60743 10.1754 3.62679 10.1787 3.64616 10.1819C3.65261 10.1819 3.65584 10.1819 3.66229 10.1852C3.68489 10.1884 3.7107 10.1917 3.7333 10.1982C3.73975 10.1982 3.74298 10.2014 3.74943 10.2014C3.7688 10.2047 3.78817 10.2112 3.8043 10.2144C3.81076 10.2177 3.81721 10.2177 3.82367 10.2209C3.84626 10.2274 3.86885 10.2339 3.89144 10.2436C3.91404 10.2501 3.9334 10.2599 3.95599 10.2696L3.97536 10.2793C3.99149 10.2858 4.01086 10.2956 4.027 10.3053C4.03023 10.3086 4.03668 10.3086 4.0399 10.3118C4.05927 10.3216 4.08186 10.3345 4.10123 10.3475C4.10446 10.3508 4.11091 10.354 4.11414 10.3573C4.13028 10.367 4.14641 10.3768 4.15932 10.3897C4.16578 10.393 4.16901 10.3962 4.17546 10.3995C4.19483 10.4125 4.21419 10.4287 4.23033 10.4417C4.24647 10.4547 4.26583 10.4709 4.28196 10.4872L4.29488 10.5001L4.33361 10.5391L4.34329 10.5489C4.35943 10.5651 4.37556 10.5846 4.38847 10.6008C4.3917 10.6041 4.39493 10.6105 4.39816 10.6138C4.41107 10.6268 4.42075 10.643 4.43043 10.6593C4.43366 10.6657 4.43689 10.669 4.44011 10.6755L4.47884 10.7339L4.47884 10.7372C4.49175 10.7567 4.50143 10.7761 4.51112 10.7956C4.59503 10.958 4.64344 11.1431 4.64344 11.3379C4.64344 11.5327 4.59503 11.7178 4.51112 11.8802Z" fill="white"/>
</svg>
