<svg width="18" height="14" viewBox="0 0 18 14" fill="none" xmlns="http://www.w3.org/2000/svg">
<rect width="18" height="14" fill="#F3F3F3"/>
<path d="M11.9217 0C10.8753 0 9.92688 0.196 9.18567 0.56525C8.44504 0.9345 7.83631 1.53592 7.83631 2.33333V4.66667C7.83631 4.74192 7.86141 4.81483 7.87308 4.88542C7.28888 4.73704 6.68817 4.66354 6.08542 4.66667C5.03897 4.66667 4.09057 4.86267 3.34936 5.23192C2.60873 5.60117 2 6.20258 2 7V11.6667C2 12.4641 2.60873 13.0655 3.34994 13.4348C4.09057 13.804 5.03897 14 6.08542 14C7.13187 14 8.08027 13.804 8.82148 13.4348C9.56153 13.0655 10.1708 12.4641 10.1708 11.6667V11.4298C10.7418 11.5841 11.3303 11.6637 11.9217 11.6667C12.9682 11.6667 13.9166 11.4707 14.6578 11.1014C15.3978 10.7322 16.0071 10.1307 16.0071 9.33333V2.33333C16.0071 1.53592 15.3984 0.9345 14.6572 0.56525C13.9172 0.196 12.9688 0 11.9217 0ZM11.9217 1.16667C12.8106 1.16667 13.602 1.358 14.1284 1.62225C14.6555 1.8865 14.8399 2.16475 14.8399 2.33333C14.8399 2.5025 14.6555 2.78017 14.1284 3.04442C13.6026 3.30867 12.8106 3.5 11.9217 3.5C11.0329 3.5 10.2415 3.30867 9.71502 3.04442C9.188 2.78017 9.00357 2.50192 9.00357 2.33333C9.00357 2.16417 9.188 1.8865 9.71502 1.62225C10.2409 1.358 11.0329 1.16667 11.9217 1.16667ZM9.00357 3.99233C9.06486 4.02617 9.12205 4.06992 9.18625 4.10142C9.92688 4.47067 10.8753 4.66667 11.9217 4.66667C12.9682 4.66667 13.9166 4.47067 14.6578 4.10142C14.7214 4.06992 14.7786 4.02617 14.8399 3.99233V4.66667C14.8399 4.83583 14.6555 5.1135 14.1284 5.37775C13.602 5.642 12.8106 5.83333 11.9217 5.83333C11.0329 5.83333 10.2415 5.642 9.71502 5.37775C9.188 5.1135 9.00357 4.83525 9.00357 4.66667V3.99233ZM6.08542 5.83333C6.97429 5.83333 7.76569 6.02467 8.29213 6.28892C8.81915 6.55317 9.00357 6.83142 9.00357 7C9.00357 7.16917 8.81915 7.44683 8.29213 7.71108C7.76569 7.97533 6.97429 8.16667 6.08542 8.16667C5.19655 8.16667 4.40514 7.97533 3.87871 7.71108C3.35169 7.44683 3.16726 7.16858 3.16726 7C3.16726 6.83083 3.35169 6.55317 3.87871 6.28892C4.40456 6.02467 5.19655 5.83333 6.08542 5.83333ZM14.8399 6.32567V7C14.8399 7.16917 14.6555 7.44683 14.1284 7.71108C13.602 7.97533 12.8106 8.16667 11.9217 8.16667C11.3272 8.16989 10.736 8.07752 10.1708 7.89308V7C10.1708 6.92475 10.1457 6.85183 10.1341 6.78125C10.6768 6.92242 11.2786 7 11.9217 7C12.9682 7 13.9166 6.804 14.6578 6.43475C14.7214 6.40325 14.7786 6.3595 14.8399 6.32567ZM3.16726 8.659C3.22854 8.69283 3.28574 8.73658 3.34994 8.76808C4.09057 9.13733 5.03897 9.33333 6.08542 9.33333C7.13187 9.33333 8.08027 9.13733 8.82148 8.76808C8.8851 8.73658 8.94229 8.69283 9.00357 8.659V9.33333C9.00357 9.5025 8.81915 9.78017 8.29213 10.0444C7.76569 10.3087 6.97429 10.5 6.08542 10.5C5.19655 10.5 4.40514 10.3087 3.87871 10.0444C3.35169 9.78017 3.16726 9.50192 3.16726 9.33333V8.659ZM14.8399 8.659V9.33333C14.8399 9.5025 14.6555 9.78017 14.1284 10.0444C13.602 10.3087 12.8106 10.5 11.9217 10.5C11.2581 10.5 10.6588 10.4067 10.1708 10.2445V9.11458C10.7066 9.25575 11.2902 9.33333 11.9217 9.33333C12.9682 9.33333 13.9166 9.13733 14.6578 8.76808C14.7214 8.73658 14.7786 8.69283 14.8399 8.659ZM3.16726 10.9923C3.22854 11.0262 3.28574 11.0699 3.34994 11.1014C4.09057 11.4707 5.03897 11.6667 6.08542 11.6667C7.13187 11.6667 8.08027 11.4707 8.82148 11.1014C8.8851 11.0699 8.94229 11.0262 9.00357 10.9923V11.6667C9.00357 11.8358 8.81915 12.1135 8.29213 12.3778C7.76569 12.642 6.97429 12.8333 6.08542 12.8333C5.19655 12.8333 4.40514 12.642 3.87871 12.3778C3.35169 12.1135 3.16726 11.8353 3.16726 11.6667V10.9923Z" fill="#272727"/>
</svg>
