<svg width="105" height="131" viewBox="0 0 105 131" fill="none" xmlns="http://www.w3.org/2000/svg">
<path d="M104.478 57.1304L94.8071 20.163C96.7481 18.2899 97.9915 14.9022 97.9915 10.8696C97.9915 4.67391 95.0573 0 91.1678 0H9.28377C5.39428 0 2.4601 4.67391 2.4601 10.8696C2.4601 17.0652 5.39428 21.7391 9.28377 21.7391H9.78418L0.522939 57.1304C0.299275 57.9928 0.185547 58.8768 0.185547 59.7645V128.261C0.185547 129.46 1.20531 130.435 2.4601 130.435H102.541C103.795 130.435 104.815 129.46 104.815 128.261V59.7645C104.815 58.8768 104.701 57.9928 104.478 57.1304ZM100.266 59.7645V123.011L93.4424 116.489V63.0435C93.4424 61.8442 92.4226 60.8696 91.1678 60.8696C89.913 60.8696 88.8933 61.8442 88.8933 63.0435V116.493L82.0696 123.014V59.7645C82.0696 59.2319 82.1378 58.6993 82.2705 58.1848L91.1678 24.1812L100.061 58.1848C100.198 58.7029 100.266 59.2319 100.266 59.7645ZM91.1678 120.464L97.0513 126.087H85.2881L91.1678 120.464ZM93.4424 10.8696C93.4424 15.0797 91.7327 17.3913 91.1678 17.3913C90.603 17.3913 88.8933 15.0797 88.8933 10.8696C88.8933 6.65942 90.603 4.34783 91.1678 4.34783C91.7327 4.34783 93.4424 6.65942 93.4424 10.8696ZM7.00922 10.8696C7.00922 6.44565 8.83265 4.34783 9.28377 4.34783H85.6369C84.7498 6.41667 84.31 8.63406 84.3441 10.8696C84.3062 13.1051 84.746 15.3225 85.6369 17.3913H9.28377C8.83265 17.3913 7.00922 15.2935 7.00922 10.8696ZM4.73466 59.7645C4.73466 59.2319 4.8029 58.6993 4.93937 58.1848L14.4698 21.7391H87.1153L77.8579 57.1304C77.6342 57.9928 77.5205 58.8768 77.5205 59.7645V126.087H4.73466V59.7645Z" fill="#BFBFBF"/>
<path d="M38.8538 56.5215C37.599 56.5215 36.5793 57.4961 36.5793 58.6954V65.2171H32.0302V58.6954C32.0302 57.4961 31.0104 56.5215 29.7556 56.5215C28.5008 56.5215 27.481 57.4961 27.481 58.6954V65.2171H22.9319V58.6954C22.9319 57.4961 21.9122 56.5215 20.6574 56.5215C19.4026 56.5215 18.3828 57.4961 18.3828 58.6954V67.3911H18.3866C18.3866 67.728 18.4662 68.0613 18.6216 68.3621L22.9016 76.5432L21.0061 110.424C20.8772 112.228 21.5369 114 22.8258 115.319C24.1185 116.637 25.923 117.387 27.8109 117.387H31.689C33.5769 117.387 35.3851 116.637 36.674 115.319C37.963 114 38.6226 112.224 38.4937 110.424L36.5982 76.5432L40.8782 68.3621C41.0336 68.0577 41.117 67.728 41.1132 67.3911H41.1284V58.6954C41.1284 57.4961 40.1086 56.5215 38.8538 56.5215ZM35.1728 69.565L32.8983 73.9128H26.6129L24.3384 69.565H35.1728ZM33.357 112.351C32.9286 112.793 32.3221 113.047 31.6928 113.043H27.8184C27.1891 113.043 26.5864 112.793 26.1542 112.351C25.7258 111.909 25.506 111.315 25.5515 110.714L25.5552 110.674L27.3635 78.2606H32.1477L33.9597 110.674L33.9635 110.714C34.009 111.315 33.7929 111.913 33.357 112.351Z" fill="#BFBFBF"/>
<path d="M63.366 110.261L61.5994 84.7099V58.6954C61.5994 57.4961 60.5797 56.5215 59.3249 56.5215C45.4311 56.5215 43.4864 79.3041 43.4106 80.2715C43.3423 81.1519 43.8352 81.9853 44.6616 82.3766L47.9521 83.949V84.7099L46.1855 110.261C46.0074 112.087 46.6404 113.902 47.9331 115.261C49.2259 116.619 51.0569 117.391 52.9789 117.391H56.5727C58.4947 117.391 60.3257 116.619 61.6184 115.261C62.9111 113.906 63.548 112.087 63.366 110.261ZM50.2039 70.1918C51.9515 65.2751 54.2488 62.286 57.0503 61.2642V82.6084H52.5012C52.5012 81.786 52.0122 81.0324 51.2426 80.6628L48.1075 79.1628C48.5018 76.1193 49.2031 73.1121 50.2039 70.1918ZM58.2596 112.329C57.8313 112.786 57.2171 113.047 56.5727 113.043H52.9789C52.3344 113.043 51.7241 112.782 51.2919 112.326C50.8597 111.869 50.6512 111.261 50.7157 110.652C50.7195 110.627 50.7195 110.605 50.7233 110.579L52.3572 86.9563H57.1982L58.8321 110.579C58.8321 110.605 58.8358 110.627 58.8396 110.652C58.9041 111.264 58.6956 111.873 58.2596 112.329Z" fill="#BFBFBF"/>
</svg>
