<svg width="250" height="174" viewBox="0 0 250 174" fill="none" xmlns="http://www.w3.org/2000/svg">
<mask id="mask0_5220_60154" style="mask-type:alpha" maskUnits="userSpaceOnUse" x="0" y="0" width="250" height="152">
<rect width="250" height="152" fill="#BFBFBF"/>
</mask>
<g mask="url(#mask0_5220_60154)">
<rect width="251" height="174" fill="#F9F9F9"/>
<path d="M96.5723 59.4628L61.2967 50.9515C60.729 50.8111 60.1452 50.7394 59.555 50.7423C56.2706 50.7308 53.4865 52.9009 53.0567 55.8106C52.6269 58.7203 54.6797 61.4637 57.8551 62.2148L92.3738 70.5426C92.5053 80.1001 99.7092 88.4222 110.031 90.9363L143.648 99.0462C149.774 100.531 156.311 99.7772 161.815 96.9506C167.319 94.124 171.341 89.4542 172.99 83.9759L173.84 81.1551C174.722 78.2368 171.287 75.1981 163.031 71.5803C154.493 68.0256 145.608 65.1761 136.489 63.0662C132.938 62.2062 105.351 55.7361 96.5723 59.4628ZM59.0001 58.4537C57.839 58.1699 57.1559 57.1006 57.4734 56.0629C57.7909 55.0251 58.9873 54.4145 60.1484 54.6983L93.7562 62.8082L93.1852 64.6859C92.9928 65.3194 92.8485 65.9558 92.7234 66.5923L59.0001 58.4537ZM144.784 95.2822L111.169 87.1723C105.255 85.7361 100.437 81.9004 98.16 76.812C102.679 79.1312 107.417 81.092 112.318 82.6687C112.561 82.749 112.825 82.792 113.084 82.792C114.136 82.792 115.038 82.1212 115.224 81.1952C115.413 80.2693 114.832 79.3577 113.848 79.028C105.563 76.2387 99.3564 73.372 96.8225 71.1646C96.7968 71.1417 96.7616 71.136 96.7359 71.1159C96.6653 69.7915 96.7616 68.4671 97.0278 67.1627C102.112 70.4537 107.721 73.0395 113.668 74.8369L114.582 75.1407C115.147 75.33 115.711 75.5134 116.269 75.694C119.907 76.878 123.813 78.0275 127.89 79.0739C129.551 79.5096 130.789 79.8135 131.37 79.9539C132.82 80.3037 134.26 80.6362 135.687 80.9458C136.018 81.0204 136.342 81.0892 136.675 81.158C137.836 81.4102 138.985 81.6482 140.126 81.8746L140.899 82.0237C142.189 82.2817 143.459 82.5196 144.71 82.7289C144.8 82.7432 144.886 82.7604 144.973 82.7748C149.232 83.5115 153.242 84.0476 156.85 84.3658L156.962 84.3744C157.684 84.4375 158.406 84.5005 159.092 84.5435C159.506 84.5722 159.884 84.5837 160.279 84.6037H160.394C161.482 84.6582 162.543 84.6955 163.506 84.6955C165.096 84.7098 166.684 84.6037 168.253 84.3801C164.773 92.9114 154.582 97.6386 144.784 95.2822ZM151.346 79.8221C150.24 79.6701 149.117 79.5067 147.959 79.3233L147.359 79.2315C145.877 78.9879 144.36 78.7213 142.811 78.4289L142.426 78.3543C141.044 78.0906 139.636 77.8011 138.215 77.5L137.272 77.3051C135.697 76.964 134.109 76.6028 132.512 76.2158C130.915 75.8288 129.337 75.4274 127.781 75.0117C127.47 74.9286 127.168 74.8455 126.864 74.7652C125.465 74.3897 124.089 74.0027 122.748 73.5985L122.357 73.4867C120.859 73.0452 119.406 72.5951 117.992 72.1364L117.395 71.9415C116.308 71.5832 115.253 71.222 114.22 70.8579C113.982 70.7776 113.745 70.6916 113.514 70.6085C120.112 71.5144 126.642 72.7585 133.08 74.3323C139.53 75.8718 145.874 77.738 152.084 79.9281L151.346 79.8221ZM169.516 80.1087C167.874 80.6735 166.11 80.9114 164.356 80.8111C154.791 76.3591 144.678 72.9219 134.218 70.5741C123.865 67.8765 113.19 66.2912 102.416 65.8469C100.841 65.1417 99.4558 64.1441 98.346 62.92C100.761 61.587 114.358 61.7533 135.35 66.8216C156.347 71.8928 168.185 77.8756 169.516 80.1087Z" fill="#BFBFBF"/>
<path d="M130.164 28.8056C130.177 31.4229 131.867 33.8051 134.517 34.926V41.4448C134.517 42.5198 135.492 43.3885 136.691 43.3885H145.393C146.596 43.3885 147.568 42.517 147.568 41.4448V34.9317C150.788 33.5729 152.52 30.3994 151.737 27.2977C150.958 24.193 147.866 21.9914 144.309 22H137.782C133.577 22 130.164 25.0473 130.164 28.8056ZM138.869 39.5012V35.6111H143.222V39.5012H138.869ZM147.571 28.8056C147.571 30.4166 146.108 31.721 144.306 31.721H137.779C135.976 31.721 134.513 30.4166 134.513 28.8056C134.513 27.1945 135.976 25.8901 137.779 25.8901H144.306C146.112 25.8901 147.571 27.1945 147.571 28.8056Z" fill="#BFBFBF"/>
<path d="M171.544 47.1695C171.602 46.6564 171.429 46.1432 171.066 45.7419L164.192 38.2053C163.827 37.8069 163.301 37.5517 162.727 37.503C162.153 37.4428 161.575 37.5976 161.133 37.9273L152.7 44.0706C151.767 44.7471 151.626 45.9741 152.386 46.8054L159.259 54.342C159.625 54.7404 160.151 54.9956 160.725 55.0472C160.796 55.05 160.87 55.05 160.943 55.0472C161.444 55.0472 161.931 54.8924 162.319 54.6086L170.752 48.4681C171.198 48.147 171.483 47.6798 171.544 47.1695ZM161.261 50.3773L157.126 45.8565L162.185 42.1614L166.319 46.685L161.261 50.3773Z" fill="#BFBFBF"/>
<path d="M130.165 39.501C130.165 35.2067 126.268 31.7236 121.464 31.7236C116.659 31.7236 112.762 35.2067 112.762 39.501C112.762 43.7953 116.659 47.2783 121.464 47.2783C126.272 47.2783 130.165 43.7953 130.165 39.501ZM121.464 43.3911C119.061 43.3911 117.111 41.651 117.111 39.501C117.111 37.3538 119.058 35.6109 121.464 35.6109C123.866 35.6109 125.816 37.351 125.816 39.501C125.816 41.6481 123.869 43.3911 121.464 43.3911Z" fill="#BFBFBF"/>
<path d="M148.521 137.344L150.599 131.763C152.235 127.368 151.735 122.561 149.223 118.51L141.827 106.616C141.343 105.848 140.339 105.467 139.383 105.69C138.427 105.911 137.76 106.679 137.754 107.562V118.258C137.754 118.608 137.734 118.957 137.702 119.307C137.244 117.825 136.592 116.397 135.758 115.053L126.887 100.782C126.406 100.008 125.398 99.6215 124.439 99.8451C123.48 100.069 122.81 100.843 122.81 101.729V114.563C122.804 117.928 121.581 121.199 119.33 123.897C118.525 124.866 117.822 125.9 117.232 126.984C116.96 126.597 116.684 126.207 116.376 125.846C114.551 123.653 113.556 120.996 113.547 118.264V107.565C113.547 106.679 112.876 105.905 111.917 105.685C110.958 105.464 109.951 105.848 109.47 106.622L102.071 118.519C99.5559 122.569 99.0555 127.374 100.688 131.769L102.776 137.35C103.071 138.144 103.902 138.677 104.839 138.677H146.459C147.392 138.674 148.226 138.138 148.521 137.344ZM104.813 130.539C103.565 127.179 103.95 123.504 105.868 120.408L109.188 115.067V118.258C109.201 121.833 110.497 125.307 112.886 128.177C114.002 129.498 114.801 131.009 115.234 132.62C115.118 133.337 115.045 134.059 115.016 134.784H106.404L104.813 130.539ZM119.349 134.784C119.529 131.688 120.735 128.713 122.807 126.227C125.623 122.859 127.15 118.765 127.159 114.56V109.228L131.945 116.942C133.975 120.219 134.617 124.037 133.754 127.704C133.539 128.63 134.097 129.558 135.078 129.905C136.06 130.255 137.179 129.922 137.734 129.12L137.952 128.782C138.084 128.569 138.228 128.369 138.389 128.174C140.781 125.31 142.077 121.83 142.087 118.255V115.064L145.419 120.394C147.341 123.492 147.722 127.168 146.471 130.53L144.887 134.784H119.349Z" fill="#BFBFBF"/>
</g>
</svg>
