<svg width="61" height="62" viewBox="0 0 61 62" fill="none" xmlns="http://www.w3.org/2000/svg">
<path d="M3.6875 33.0625H9.16898C8.96352 33.6342 8.93215 34.2539 9.07883 34.8434C9.22551 35.4329 9.54367 35.9656 9.99308 36.3744L18.4594 44.1345L18.4602 44.1337C18.4672 44.1402 18.473 44.1474 18.4809 44.1536L31.8605 55.75H31.5312C31.2577 55.75 30.9954 55.8587 30.802 56.052C30.6086 56.2454 30.5 56.5077 30.5 56.7812V60.9062C30.5 61.1798 30.6086 61.4421 30.802 61.6355C30.9954 61.8288 31.2577 61.9375 31.5312 61.9375H43.9062C44.1798 61.9375 44.4421 61.8288 44.6355 61.6355C44.8288 61.4421 44.9375 61.1798 44.9375 60.9062V56.7812C44.9375 56.5077 44.8288 56.2454 44.6355 56.052C44.4421 55.8587 44.1798 55.75 43.9062 55.75V54.1146L44.4585 53.5623C44.9388 53.0847 45.3196 52.5165 45.5789 51.8906C45.8381 51.2648 45.9706 50.5938 45.9688 49.9163V43.5984L49.707 35.3742C50.0397 34.6459 50.0756 33.8168 49.8071 33.0625H57.3125C58.1327 33.0615 58.9191 32.7353 59.4991 32.1553C60.079 31.5753 60.4053 30.789 60.4062 29.9688V27.9062C60.4062 27.6327 60.2976 27.3704 60.1042 27.177C59.9108 26.9836 59.6485 26.875 59.375 26.875H55.25V25.8438C55.25 13.9024 45.5351 4.1875 33.5938 4.1875V2.125H34.625C34.8985 2.125 35.1608 2.01635 35.3542 1.82295C35.5476 1.62956 35.6562 1.36725 35.6562 1.09375C35.6562 0.820246 35.5476 0.557943 35.3542 0.364546C35.1608 0.171149 34.8985 0.0625 34.625 0.0625H26.375C26.1015 0.0625 25.8392 0.171149 25.6458 0.364546C25.4524 0.557943 25.3438 0.820246 25.3438 1.09375C25.3438 1.36725 25.4524 1.62956 25.6458 1.82295C25.8392 2.01635 26.1015 2.125 26.375 2.125H27.4062V4.1875C15.4649 4.1875 5.75 13.9024 5.75 25.8438V26.875H1.625C1.3515 26.875 1.08919 26.9836 0.895796 27.177C0.702399 27.3704 0.59375 27.6327 0.59375 27.9062V29.9688C0.594705 30.789 0.92096 31.5753 1.50094 32.1553C2.08093 32.7353 2.86728 33.0615 3.6875 33.0625ZM11.1224 33.7199C11.195 33.5244 11.3264 33.3562 11.4985 33.2385C11.6706 33.1207 11.875 33.0593 12.0836 33.0625H12.6723C12.8702 33.0627 13.0639 33.1198 13.2303 33.227C13.3968 33.3341 13.5289 33.4869 13.6111 33.6669L14.3863 35.3724V35.3739L16.124 39.1966L11.3867 34.8543C11.2307 34.7158 11.1216 34.5323 11.0742 34.3291C11.0269 34.126 11.0437 33.9131 11.1224 33.7199ZM42.875 59.875H32.5625V57.8125H42.875V59.875ZM47.7577 33.5355C47.8527 33.6799 47.9091 33.8462 47.9217 34.0186C47.9342 34.191 47.9025 34.3637 47.8295 34.5204L43.9987 42.9482C43.9378 43.0822 43.9063 43.2278 43.9062 43.375V49.9163C43.9073 50.3228 43.8278 50.7254 43.6723 51.1009C43.5168 51.4764 43.2883 51.8174 43.0002 52.104L42.1458 52.9583C42.05 53.054 41.9741 53.1677 41.9222 53.2929C41.8704 53.418 41.8437 53.5521 41.8438 53.6875V55.75H35.0097L20.0019 42.7434L16.2636 34.5206C16.1922 34.3634 16.1613 34.1909 16.1739 34.0187C16.1864 33.8465 16.242 33.6803 16.3355 33.5352C16.429 33.3901 16.5574 33.2708 16.709 33.1882C16.8606 33.1056 17.0304 33.0624 17.2031 33.0625H17.8815C18.0732 33.0618 18.2612 33.1149 18.4242 33.2156C18.5873 33.3164 18.7188 33.4608 18.8039 33.6325L22.3589 40.7425C22.4719 40.9684 22.6638 41.145 22.8983 41.2388L33.2108 45.3638C33.412 45.4443 33.6335 45.4593 33.8438 45.4067L37.9688 44.3754C38.1071 44.3409 38.2368 44.278 38.3495 44.1908C38.4623 44.1036 38.5558 43.994 38.6241 43.8688L44.2253 33.5999C44.314 33.4372 44.445 33.3015 44.6043 33.2069C44.7637 33.1123 44.9456 33.0625 45.1309 33.0625H46.8909C47.0638 33.0609 47.2341 33.1035 47.3858 33.1863C47.5375 33.2691 47.6655 33.3893 47.7577 33.5355ZM20.8248 33.0625H42.1691L37.03 42.4843L33.6671 43.3249L24.0289 39.4691L20.8248 33.0625ZM29.4688 2.125H31.5312V4.1875H29.4688V2.125ZM7.8125 25.8438C7.8125 15.0397 16.6022 6.25 27.4062 6.25H33.5938C44.3978 6.25 53.1875 15.0397 53.1875 25.8438V26.875H7.8125V25.8438ZM2.65625 28.9375H58.3438V29.9688C58.3434 30.2422 58.2347 30.5043 58.0414 30.6976C57.848 30.8909 57.5859 30.9997 57.3125 31H3.6875C3.41409 30.9997 3.15197 30.8909 2.95864 30.6976C2.7653 30.5043 2.65656 30.2422 2.65625 29.9688V28.9375Z" fill="#BFBFBF"/>
</svg>
