<svg width="77" height="52" viewBox="0 0 77 52" fill="none" xmlns="http://www.w3.org/2000/svg">
<path d="M75.8721 49.6761H70.8639C70.3346 46.8505 67.9172 44.7088 65.0222 44.7088H60.5352C59.8819 44.7088 59.325 44.2071 59.2674 43.5662C58.9337 39.8492 57.3388 36.3495 54.778 33.7109C53.7817 32.6845 52.6461 31.8064 51.396 31.0856C51.6715 30.0435 51.5164 28.9118 50.896 28.0252C50.2821 27.1471 49.3357 26.594 48.2989 26.5074C47.5686 26.4469 46.8496 26.6206 46.231 26.9922L1.69771 0.159139C1.25476 -0.107745 0.693147 -0.0333083 0.330682 0.340087C-0.0323711 0.714088 -0.104629 1.29264 0.154442 1.74894L24.5465 44.7088H24.0337C21.1381 44.7088 18.7206 46.8505 18.1919 49.6761H16.8002C16.1775 49.6761 15.6723 50.1966 15.6723 50.8381C15.6723 51.4802 16.1775 52 16.8002 52H75.8721C76.4948 52 77 51.4802 77 50.8381C77 50.1966 76.4948 49.6761 75.8721 49.6761ZM24.5113 40.0441L21.6427 34.9914H24.5506V40.0441H24.5113ZM38.8718 25.291H33.9671V22.2954L38.8718 25.2505V25.291ZM33.9671 27.6149H38.8718V32.6676H33.9671V27.6149ZM31.7112 32.6676H26.8065V27.6149H31.7112V32.6676ZM31.7112 25.291H26.8065V20.2384H30.5539L31.7112 20.9362V25.291ZM24.5506 25.291H19.6459V20.2384H24.5506V25.291ZM24.5506 17.9145H19.6459V13.6661L24.5506 16.6212V17.9145ZM17.39 12.8619V17.9145H12.4853V12.8619H17.39ZM12.4853 10.538V9.35121L14.4545 10.538H12.4853ZM10.2294 14.8904L9.07743 12.8619H10.2294V14.8904ZM17.39 20.2384V25.291H16.1346L13.266 20.2384H17.39ZM19.6459 27.6149H24.5506V32.6676H20.3233L19.6459 31.4753V27.6149ZM26.8065 34.9914H31.7112V40.0441H26.8065V34.9914ZM33.9671 39.4546V34.9914H38.2996L33.9671 39.4546ZM41.1277 32.0781V27.6149H42.7961L44.4774 28.628L41.1277 32.0781ZM10.2294 7.99197V10.538H7.75799L4.27609 4.40508L10.2294 7.99197ZM24.0337 47.0327H26.8376C27.3076 47.0327 27.7788 46.9849 28.2387 46.8905C28.8497 46.7652 29.2462 46.1534 29.1246 45.524C29.003 44.8946 28.4091 44.4855 27.7981 44.6114C27.5861 44.6549 27.3699 44.6828 27.1531 44.6973L26.8065 44.0867V42.368H31.139L30.783 42.7353C30.3424 43.1886 30.3424 43.9245 30.783 44.3784C31.0033 44.6053 31.2918 44.7185 31.5808 44.7185C31.8693 44.7185 32.1577 44.6053 32.378 44.3784L47.1057 29.2065C47.3724 28.9318 47.7414 28.7932 48.1173 28.8235C48.4992 28.8555 48.8358 29.054 49.0655 29.3826C49.4174 29.8861 49.3134 30.6711 48.8293 31.1697L46.3632 33.7103C45.9226 34.1642 45.9226 34.9001 46.3632 35.3533C46.8038 35.8072 47.5175 35.8072 47.9581 35.3533L50.1905 33.0537C51.3014 33.6812 52.306 34.451 53.1825 35.3533C55.3725 37.6094 56.736 40.6021 57.0215 43.7805C57.1854 45.6039 58.7287 47.0327 60.5352 47.0327H65.0222C66.6659 47.0327 68.0617 48.1444 68.5399 49.6761H20.5159C20.9935 48.1444 22.3899 47.0327 24.0337 47.0327Z" fill="#BFBFBF"/>
</svg>
