<?xml version="1.0" standalone="no"?>
<!DOCTYPE svg PUBLIC "-//W3C//DTD SVG 20010904//EN"
 "http://www.w3.org/TR/2001/REC-SVG-20010904/DTD/svg10.dtd">
<svg version="1.0" xmlns="http://www.w3.org/2000/svg"
 width="700.000000pt" height="700.000000pt" viewBox="0 0 700.000000 700.000000"
 preserveAspectRatio="xMidYMid meet">
<metadata>
Created by potrace 1.14, written by Peter Selinger 2001-2017
</metadata>
<g transform="translate(0.000000,700.000000) scale(0.100000,-0.100000)"
fill="#000000" stroke="none">
<path d="M3458 6855 c-1 -2 -20 -6 -41 -9 -135 -21 -293 -107 -387 -210 -114
-126 -123 -145 -289 -656 -33 -102 -114 -353 -181 -559 -67 -205 -118 -376
-115 -380 4 -3 164 -6 356 -6 l349 0 19 60 c11 33 77 236 146 450 70 215 143
440 162 500 20 61 40 116 46 123 6 7 24 12 41 10 36 -3 16 48 226 -598 67
-206 153 -469 190 -585 38 -115 97 -295 130 -400 34 -104 100 -305 145 -445
158 -482 314 -965 326 -1008 8 -29 17 -41 26 -38 17 7 562 396 567 405 2 3
-30 107 -71 231 -68 206 -116 355 -268 820 -29 91 -106 327 -170 525 -64 198
-120 369 -124 380 -5 11 -18 49 -29 85 -53 170 -227 706 -257 793 -93 272
-283 446 -549 502 -54 11 -239 19 -248 10z"/>
<path d="M837 4854 c-1 -1 -35 -4 -75 -8 -226 -19 -437 -160 -551 -368 -31
-56 -59 -124 -67 -163 -2 -11 -7 -33 -10 -50 -31 -137 -14 -308 44 -435 65
-145 145 -230 361 -382 81 -56 151 -106 156 -111 6 -4 132 -95 280 -200 149
-106 282 -200 295 -210 14 -10 72 -52 129 -92 l105 -74 32 97 c115 345 184
567 180 577 -4 10 -105 85 -326 240 -310 218 -591 422 -595 433 -3 7 1 25 9
40 l14 27 1616 0 c1125 0 1616 3 1616 10 0 9 -80 259 -187 588 -18 52 -31 77
-42 78 -23 1 -2982 4 -2984 3z"/>
<path d="M4959 4850 l-25 -5 103 -320 c57 -176 107 -327 112 -335 7 -13 82
-15 580 -16 616 0 590 2 591 -51 0 -13 -15 -33 -37 -51 -33 -25 -905 -648
-1026 -732 -81 -57 -392 -279 -402 -287 -5 -5 -263 -188 -572 -408 -310 -220
-562 -402 -562 -405 0 -3 68 -52 150 -110 83 -58 212 -151 287 -207 75 -55
142 -98 148 -95 7 4 256 182 555 395 299 213 840 599 1201 856 362 258 680
488 706 513 104 94 188 240 216 373 18 87 14 258 -8 340 -29 110 -99 236 -176
318 -119 127 -243 192 -428 223 -44 8 -1377 11 -1413 4z"/>
<path d="M2115 3992 c-16 -2 -26 -19 -43 -75 -20 -64 -217 -673 -260 -802 -9
-27 -17 -52 -17 -55 -1 -3 -4 -12 -8 -20 -6 -15 -150 -461 -152 -470 -1 -6
-131 -405 -175 -540 -26 -79 -229 -705 -270 -831 -38 -119 -54 -276 -37 -359
47 -223 156 -387 338 -503 116 -74 237 -110 374 -111 108 -1 161 6 238 33 122
43 120 41 850 586 125 94 276 206 336 250 60 44 110 83 110 88 1 4 -27 27 -61
52 -35 24 -164 116 -288 203 l-224 159 -71 -52 c-38 -29 -173 -130 -300 -224
-126 -95 -239 -179 -250 -187 -11 -8 -81 -60 -155 -115 -172 -128 -174 -130
-205 -98 l-24 24 19 55 c10 30 55 170 100 310 45 140 97 300 115 355 114 346
258 790 257 792 -1 2 7 27 17 55 11 29 46 136 79 238 135 417 268 827 333
1025 37 115 66 211 64 214 -6 5 -656 8 -690 3z"/>
<path d="M2601 2757 c-7 -23 -55 -173 -107 -332 -52 -160 -94 -293 -94 -296 0
-4 19 -19 43 -35 23 -16 47 -33 54 -39 10 -9 85 -62 254 -180 104 -73 239
-169 317 -226 42 -31 169 -121 282 -202 174 -124 713 -521 760 -560 8 -7 91
-68 185 -137 93 -69 177 -131 185 -137 8 -7 94 -71 190 -143 209 -156 301
-206 431 -236 55 -13 221 -12 281 2 279 64 500 273 567 536 22 85 27 230 11
308 -12 58 -113 372 -392 1227 l-53 161 -280 -199 c-154 -110 -284 -204 -289
-209 -5 -5 24 -110 69 -247 42 -131 115 -355 162 -498 46 -143 91 -278 99
-300 22 -64 19 -91 -15 -105 -32 -13 32 -58 -856 605 -198 148 -522 385 -720
526 -198 142 -421 301 -495 354 -390 278 -540 384 -558 394 -17 9 -20 6 -31
-32z"/>
</g>
</svg>
