<svg width="20" height="18" viewBox="0 0 20 18" fill="none" xmlns="http://www.w3.org/2000/svg">
<path d="M20 16.2971C20 16.7577 19.8353 17.109 19.5058 17.3511C19.1764 17.5932 18.7721 17.7143 18.2929 17.7143H1.7071C1.22791 17.7143 0.8236 17.5903 0.49416 17.3423C0.16472 17.0943 0 16.7459 0 16.2971C0 15.9429 0.107817 15.5827 0.32345 15.2166L8.60737 0.974286C9.0027 0.324762 9.4699 0 10.009 0C10.5481 0 11.0033 0.324762 11.3747 0.974286L19.6765 15.2343C19.8922 15.6122 20 15.9665 20 16.2971ZM11.2489 7.24514V4.65886H8.75112V7.24514C8.75112 7.41048 8.7631 7.56695 8.78706 7.71457C8.81102 7.86219 8.84397 8.02752 8.88589 8.21057C8.92782 8.39362 8.96077 8.55009 8.98473 8.68L9.45193 11.5497H10.5121L10.9973 8.68C11.0213 8.5619 11.0572 8.40838 11.1051 8.21943C11.153 8.03048 11.189 7.86219 11.2129 7.71457C11.2369 7.56695 11.2489 7.41048 11.2489 7.24514ZM11.2489 14.1006C11.2489 13.7581 11.1261 13.4688 10.8805 13.2326C10.6349 12.9964 10.3384 12.8783 9.99102 12.8783C9.65559 12.8783 9.36508 12.9964 9.1195 13.2326C8.87391 13.4688 8.75112 13.7581 8.75112 14.1006C8.75112 14.443 8.87391 14.7353 9.1195 14.9774C9.36508 15.2195 9.65559 15.3406 9.99102 15.3406C10.3384 15.3406 10.6349 15.2195 10.8805 14.9774C11.1261 14.7353 11.2489 14.443 11.2489 14.1006Z" fill="black"/>
</svg>
