<svg width="58" height="25" viewBox="0 0 58 25" fill="none" xmlns="http://www.w3.org/2000/svg">
<path d="M11.0992 3.65232C10.4271 4.44985 9.35179 5.07711 8.27648 4.9875C8.14206 3.91219 8.67076 2.76519 9.28906 2.06624C9.96113 1.2508 11.135 0.66834 12.0938 0.623535C12.2014 1.73469 11.7623 2.83688 11.0992 3.65232ZM12.0759 5.1936C10.5167 5.10399 9.18153 6.08073 8.44673 6.08073C7.69402 6.08073 6.56494 5.23841 5.32834 5.26529C3.72433 5.29217 2.23682 6.19722 1.42138 7.63993C-0.263273 10.5343 0.982294 14.8087 2.61318 17.1654C3.4107 18.3303 4.36056 19.6117 5.61509 19.5669C6.80689 19.5221 7.27285 18.7963 8.7066 18.7963C10.1493 18.7963 10.5705 19.5669 11.825 19.549C13.1243 19.5221 13.9398 18.3841 14.7373 17.2191C15.6423 15.8929 16.0187 14.6115 16.0366 14.5398C16.0097 14.5129 13.5276 13.5631 13.5007 10.6956C13.4738 8.29408 15.4631 7.15604 15.5527 7.08435C14.4326 5.41762 12.6852 5.23841 12.0759 5.1936ZM21.0727 1.94975V19.4146H23.7878V13.4466H27.5424C30.9745 13.4466 33.376 11.0899 33.376 7.68473C33.376 4.27959 31.0103 1.94975 27.632 1.94975H21.0727ZM23.7878 4.23478H26.9152C29.2719 4.23478 30.616 5.48931 30.616 7.6937C30.616 9.89808 29.2719 11.1705 26.9062 11.1705H23.7878V4.23478ZM38.3224 19.549C40.025 19.549 41.6021 18.6887 42.319 17.3177H42.3728V19.4146H44.8818V10.7225C44.8818 8.20447 42.8656 6.57358 39.7651 6.57358C36.8887 6.57358 34.756 8.22239 34.6753 10.4805H37.1217C37.3278 9.40523 38.3224 8.69732 39.6845 8.69732C41.3422 8.69732 42.2742 9.46796 42.2742 10.8927V11.8605L38.887 12.0666C35.7417 12.2548 34.0391 13.5452 34.0391 15.7854C34.0481 18.0435 35.8044 19.549 38.3224 19.549ZM39.0572 17.479C37.6145 17.479 36.6915 16.7801 36.6915 15.7227C36.6915 14.6205 37.5787 13.9843 39.2723 13.8857L42.2831 13.6975V14.6832C42.2831 16.3141 40.8942 17.479 39.0572 17.479ZM48.2421 24.1639C50.8856 24.1639 52.1312 23.1513 53.2155 20.0956L57.9737 6.74384H55.2137L52.0236 17.0578H51.9699L48.7798 6.74384H45.9482L50.5361 19.4594L50.2852 20.23C49.873 21.5383 49.201 22.0491 48.0002 22.0491C47.7851 22.0491 47.3729 22.0222 47.2027 22.0043V24.1011C47.364 24.137 48.036 24.1639 48.2421 24.1639Z" fill="#2C2C2C"/>
</svg>
