<svg width="58" height="22" viewBox="0 0 58 22" fill="none" xmlns="http://www.w3.org/2000/svg">
<path d="M57.974 4.94317L50.4874 21.671H48.1718L50.9534 15.8172L46.0245 4.94137H48.4603L52.0271 13.2775H52.0737L55.5275 4.94137L57.974 4.94317ZM26.8699 10.1158V16.8926H24.5166V0.164814H30.7431C32.2212 0.124298 33.6605 0.640538 34.7759 1.61122C35.8782 2.51635 36.484 3.79607 36.466 5.14928C36.4736 5.83028 36.3253 6.50399 36.0323 7.1188C35.7393 7.73361 35.3096 8.27322 34.7759 8.6963C33.6933 9.64803 32.3491 10.1158 30.7431 10.1158H26.8699ZM26.8609 2.22779V8.06182H30.8005C31.6581 8.09258 32.4934 7.78412 33.1251 7.20329C33.7327 6.66201 34.0679 5.92357 34.0679 5.15825C34.0679 4.38396 33.7309 3.64552 33.1251 3.1132C32.8157 2.81871 32.4509 2.58863 32.0518 2.43633C31.6528 2.28402 31.2274 2.21253 30.8005 2.22599L26.8609 2.22779ZM41.1799 4.94317C42.6729 4.94317 43.8594 5.36257 44.7269 6.19421C45.5944 7.02585 46.0245 8.16398 46.0245 9.61039V16.527H44.0834V14.9677H43.9992C43.1586 16.2474 42.0474 16.8908 40.6565 16.8908C39.461 16.8908 38.4717 16.527 37.6687 15.7886C37.2813 15.4456 36.9729 15.0226 36.765 14.5489C36.557 14.0751 36.4544 13.5618 36.4643 13.0445C36.4643 11.8867 36.8837 10.9636 37.7332 10.2718C38.5738 9.59068 39.703 9.24476 41.1118 9.24476C42.3162 9.24476 43.3056 9.47776 44.0799 9.9348V9.44908C44.0824 9.09649 44.0095 8.74744 43.866 8.42533C43.7226 8.10323 43.512 7.81551 43.2482 7.58148C42.717 7.08423 42.015 6.81023 41.2874 6.81615C40.1582 6.81615 39.2621 7.31083 38.5989 8.3002L36.8155 7.14235C37.796 5.67623 39.2513 4.93958 41.1745 4.93958L41.1799 4.94317ZM38.5577 13.0929C38.5537 13.3585 38.6125 13.6213 38.7293 13.8599C38.8461 14.0985 39.0176 14.3061 39.2298 14.4658C39.6779 14.8297 40.2389 15.0268 40.8071 15.0161C41.6566 15.0161 42.4775 14.6612 43.0851 14.0357C43.7286 13.4388 44.0942 12.5982 44.0942 11.72C43.4597 11.1966 42.5815 10.9349 41.4523 10.9349C40.6207 10.9349 39.9396 11.141 39.3893 11.5515C38.8391 11.9709 38.5577 12.4763 38.5577 13.0911V13.0929ZM10.3751 0.164814C12.7883 0.135709 15.1219 1.02723 16.901 2.65794L14.1193 5.38408C13.1031 4.44131 11.761 3.92926 10.3751 3.95559C9.16569 3.96151 7.98816 4.34408 7.00621 5.05011C6.02425 5.75614 5.28666 6.75055 4.89595 7.89513C4.48541 9.08057 4.48541 10.3696 4.89595 11.5551C5.28666 12.6996 6.02425 13.6941 7.00621 14.4001C7.98816 15.1061 9.16569 15.4887 10.3751 15.4946C11.6907 15.4946 12.8216 15.1684 13.6981 14.5895C14.2023 14.2611 14.6344 13.8336 14.9682 13.3328C15.3019 12.8321 15.5302 12.2687 15.6392 11.6769H10.3733V7.99909H19.568C19.6809 8.64253 19.7364 9.28777 19.7364 9.94018C19.7364 12.8527 18.6718 15.3172 16.8329 16.9787C15.218 18.4358 13.0062 19.2836 10.3733 19.2836C8.57615 19.2928 6.81129 18.806 5.27288 17.877C3.73447 16.9479 2.48213 15.6125 1.65362 14.0177C0.972444 12.6887 0.617187 11.2167 0.617188 9.72331C0.617187 8.22989 0.972444 6.7579 1.65362 5.42889C2.48113 3.83557 3.73176 2.50115 5.26813 1.57218C6.8045 0.643209 8.56718 0.15564 10.3626 0.163023L10.3751 0.164814Z" fill="#2C2C2C"/>
</svg>
