<svg width="20" height="20" viewBox="0 0 20 20" fill="none" xmlns="http://www.w3.org/2000/svg">
<path d="M19.2837 7.27559L13.3329 6.41075L10.6727 1.01778C10.6001 0.870126 10.4805 0.750595 10.3329 0.677938C9.96257 0.495126 9.51257 0.64747 9.32742 1.01778L6.66726 6.41075L0.716481 7.27559C0.552418 7.29903 0.402418 7.37638 0.287574 7.49356C0.148735 7.63627 0.0722277 7.82825 0.0748646 8.02733C0.0775014 8.22642 0.159066 8.41631 0.301637 8.55528L4.60711 12.7529L3.58992 18.6803C3.56606 18.8182 3.58132 18.96 3.63396 19.0896C3.6866 19.2193 3.77452 19.3316 3.88773 19.4138C4.00095 19.496 4.13495 19.5449 4.27453 19.5549C4.4141 19.5648 4.55368 19.5355 4.67742 19.4701L10.0001 16.6717L15.3227 19.4701C15.468 19.5475 15.6368 19.5732 15.7985 19.5451C16.2063 19.4748 16.4805 19.0881 16.4102 18.6803L15.393 12.7529L19.6985 8.55528C19.8157 8.44044 19.893 8.29044 19.9165 8.12638C19.9798 7.71622 19.6938 7.33653 19.2837 7.27559Z" fill="#E8E8E8"/>
</svg>
