<svg width="170" height="120" viewBox="0 0 170 120" fill="none" xmlns="http://www.w3.org/2000/svg">
<path d="M35.7499 80.1569C34.9165 81.3918 35.222 83.0814 36.4306 83.933C37.6392 84.7845 39.2927 84.4724 40.1261 83.2375C40.1427 83.2103 40.1593 83.1866 40.1759 83.1594C49.4097 68.8796 65.0417 60.2892 81.7927 60.2926C83.2602 60.2926 84.4489 59.0781 84.4489 57.5785C84.4489 56.0789 83.2602 54.8643 81.7927 54.8643C63.262 54.8609 45.9665 64.3605 35.7499 80.1569Z" fill="#C4C4C4"/>
<path d="M167.344 114.575H151.406V111.298C151.469 93.7136 144.45 76.879 131.999 64.74C130.966 63.6747 129.286 63.6645 128.244 64.7196C127.201 65.7747 127.191 67.4914 128.224 68.5567C128.254 68.5907 128.287 68.6212 128.32 68.6517C139.725 79.773 146.15 95.1928 146.097 111.298V114.575H23.9062V111.298C23.9428 78.6466 49.8379 52.187 81.7926 52.1496H88.2107C93.1447 52.1463 98.0588 52.7841 102.837 54.0496C104.241 54.4804 105.722 53.6628 106.144 52.2277C106.565 50.7926 105.765 49.2794 104.361 48.8485C104.298 48.8282 104.231 48.8112 104.165 48.7977C100.496 47.8307 96.7506 47.2031 92.9721 46.9215V38.5788C92.9721 37.0793 91.7834 35.8647 90.3158 35.8647H79.6908C78.2232 35.8647 77.0346 37.0793 77.0346 38.5788V46.9215C44.0937 49.4999 18.6402 77.5406 18.5971 111.295V114.572H2.65625C1.18867 114.572 0 115.787 0 117.286C0 118.786 1.18867 120 2.65625 120H167.344C168.811 120 170 118.786 170 117.286C170 115.787 168.811 114.575 167.344 114.575ZM82.3438 41.293H87.6562V46.7213H82.3438V41.293Z" fill="#C4C4C4"/>
<path d="M112.449 49.1636C108.69 51.8473 106.393 56.1899 106.25 60.8718C106.25 62.3714 107.439 63.586 108.906 63.586C110.374 63.586 111.562 62.3714 111.562 60.8718C111.562 57.2383 113.515 55.4571 115.988 53.2009C119.75 50.5139 122.048 46.1679 122.187 41.4792C122.048 36.7904 119.75 32.4478 115.988 29.7608C113.515 27.5046 111.562 25.7235 111.562 22.0933C111.562 18.4631 113.515 16.6853 115.988 14.4292C119.75 11.7421 122.048 7.39948 122.187 2.71416C122.187 1.21459 120.999 0 119.531 0C118.064 0 116.875 1.21459 116.875 2.71416C116.875 6.34435 114.923 8.12213 112.449 10.3749C108.687 13.0619 106.389 17.4046 106.25 22.0933C106.389 26.7786 108.687 31.1246 112.449 33.8117C114.923 36.0678 116.875 37.849 116.875 41.4825C116.875 45.1161 114.923 46.8939 112.449 49.1636Z" fill="#C4C4C4"/>
<path d="M128.387 33.8116C130.86 36.0678 132.813 37.849 132.813 41.4825C132.813 45.1161 130.86 46.9109 128.387 49.1568C124.625 51.8438 122.327 56.1899 122.188 60.8752C122.188 62.3748 123.376 63.5894 124.844 63.5894C126.311 63.5894 127.5 62.3748 127.5 60.8752C127.5 57.2416 129.452 55.4605 131.926 53.2043C135.688 50.5173 137.986 46.1713 138.125 41.4825C137.986 36.7938 135.688 32.4512 131.926 29.7642C129.452 27.508 127.5 25.7268 127.5 22.0967C127.5 18.4665 129.452 16.6887 131.926 14.4325C135.688 11.7421 137.986 7.39948 138.125 2.71416C138.125 1.21459 136.936 0 135.469 0C134.001 0 132.813 1.21459 132.813 2.71416C132.813 6.34435 130.86 8.12212 128.387 10.3749C124.625 13.0619 122.327 17.4046 122.188 22.0933C122.327 26.7786 124.625 31.1246 128.387 33.8116Z" fill="#C4C4C4"/>
<path d="M144.324 33.8116C146.798 36.0678 148.75 37.849 148.75 41.4825C148.75 45.1161 146.798 46.9109 144.324 49.1568C140.562 51.8438 138.264 56.1899 138.125 60.8752C138.125 62.3748 139.314 63.5894 140.781 63.5894C142.249 63.5894 143.438 62.3748 143.438 60.8752C143.438 57.2416 145.39 55.4605 147.863 53.2043C151.625 50.5173 153.923 46.1713 154.063 41.4825C153.923 36.7938 151.625 32.4512 147.863 29.7642C145.39 27.508 143.438 25.7268 143.438 22.0967C143.438 18.4665 145.39 16.6887 147.863 14.4325C151.625 11.7421 153.923 7.39948 154.063 2.71416C154.063 1.21459 152.874 0 151.406 0C149.939 0 148.75 1.21459 148.75 2.71416C148.75 6.34435 146.798 8.12212 144.324 10.3749C140.562 13.0619 138.264 17.4046 138.125 22.0933C138.264 26.7786 140.562 31.1246 144.324 33.8116Z" fill="#C4C4C4"/>
</svg>
