<svg width="84" height="62" viewBox="0 0 84 62" fill="none" xmlns="http://www.w3.org/2000/svg">
<path d="M17.6637 41.4137C17.2519 42.0517 17.4028 42.9247 18 43.3646C18.5972 43.8046 19.4143 43.6434 19.826 43.0053C19.8343 42.9913 19.8425 42.979 19.8507 42.965C24.4132 35.587 32.1373 31.1486 40.4142 31.1504C41.1394 31.1504 41.7267 30.5228 41.7267 29.748C41.7267 28.9733 41.1394 28.3457 40.4142 28.3457C31.2579 28.344 22.7119 33.2521 17.6637 41.4137Z" fill="#C4C4C4"/>
<path d="M82.6875 59.1973H74.8125V57.504C74.8437 48.4186 71.3754 39.7207 65.223 33.4488C64.7128 32.8984 63.8827 32.8931 63.3675 33.4383C62.8523 33.9834 62.8474 34.8704 63.3577 35.4208C63.3724 35.4383 63.3888 35.4541 63.4052 35.4699C69.0408 41.2159 72.2154 49.1829 72.1891 57.504V59.1973H11.8125V57.504C11.8305 40.634 24.6258 26.963 40.4152 26.9437H43.5865C46.0245 26.942 48.4526 27.2715 50.8134 27.9254C51.5074 28.148 52.2391 27.7255 52.4475 26.984C52.6559 26.2426 52.2605 25.4608 51.5665 25.2381C51.5353 25.2276 51.5025 25.2189 51.4697 25.2118C49.6568 24.7123 47.8062 24.388 45.9391 24.2425V19.9321C45.9391 19.1573 45.3518 18.5298 44.6266 18.5298H39.3766C38.6515 18.5298 38.0641 19.1573 38.0641 19.9321V24.2425C21.7875 25.5747 9.21047 40.0625 9.18914 57.5022V59.1955H1.3125C0.587344 59.1955 0 59.8231 0 60.5979C0 61.3726 0.587344 62.0002 1.3125 62.0002H82.6875C83.4127 62.0002 84 61.3726 84 60.5979C84 59.8231 83.4127 59.1973 82.6875 59.1973ZM40.6875 21.3344H43.3125V24.1391H40.6875V21.3344Z" fill="#C4C4C4"/>
<path d="M55.563 25.4014C53.7059 26.788 52.5705 29.0317 52.5 31.4507C52.5 32.2255 53.0873 32.853 53.8125 32.853C54.5377 32.853 55.125 32.2255 55.125 31.4507C55.125 29.5733 56.0897 28.6531 57.3119 27.4874C59.1708 26.0991 60.3061 23.8536 60.375 21.4311C60.3061 19.0086 59.1708 16.7648 57.3119 15.3765C56.0897 14.2108 55.125 13.2906 55.125 11.415C55.125 9.53934 56.0897 8.62081 57.3119 7.45513C59.1708 6.06682 60.3061 3.8231 60.375 1.40233C60.375 0.627542 59.7876 0 59.0625 0C58.3373 0 57.75 0.627542 57.75 1.40233C57.75 3.27794 56.7853 4.19647 55.563 5.3604C53.7042 6.7487 52.5689 8.99243 52.5 11.415C52.5689 13.8357 53.7042 16.0812 55.563 17.4695C56.7853 18.6352 57.75 19.5555 57.75 21.4328C57.75 23.3102 56.7853 24.2287 55.563 25.4014Z" fill="#C4C4C4"/>
<path d="M63.438 17.4695C64.6603 18.6352 65.625 19.5555 65.625 21.4328C65.625 23.3102 64.6603 24.2375 63.438 25.3979C61.5792 26.7862 60.4439 29.0317 60.375 31.4525C60.375 32.2273 60.9623 32.8548 61.6875 32.8548C62.4127 32.8548 63 32.2273 63 31.4525C63 29.5751 63.9647 28.6548 65.187 27.4891C67.0458 26.1008 68.1811 23.8554 68.25 21.4328C68.1811 19.0103 67.0458 16.7666 65.187 15.3783C63.9647 14.2126 63 13.2923 63 11.4167C63 9.54109 63.9647 8.62257 65.187 7.45688C67.0458 6.06682 68.1811 3.8231 68.25 1.40233C68.25 0.627542 67.6627 0 66.9375 0C66.2123 0 65.625 0.627542 65.625 1.40233C65.625 3.27794 64.6603 4.19647 63.438 5.3604C61.5792 6.74871 60.4439 8.99243 60.375 11.415C60.4439 13.8357 61.5792 16.0812 63.438 17.4695Z" fill="#C4C4C4"/>
<path d="M71.313 17.4695C72.5353 18.6352 73.5 19.5555 73.5 21.4328C73.5 23.3102 72.5353 24.2375 71.313 25.3979C69.4542 26.7862 68.3189 29.0317 68.25 31.4525C68.25 32.2273 68.8373 32.8548 69.5625 32.8548C70.2876 32.8548 70.875 32.2273 70.875 31.4525C70.875 29.5751 71.8397 28.6548 73.0619 27.4891C74.9208 26.1008 76.0561 23.8554 76.125 21.4328C76.0561 19.0103 74.9208 16.7666 73.0619 15.3783C71.8397 14.2126 70.875 13.2923 70.875 11.4167C70.875 9.54109 71.8397 8.62257 73.0619 7.45688C74.9208 6.06682 76.0561 3.8231 76.125 1.40233C76.125 0.627542 75.5376 0 74.8125 0C74.0873 0 73.5 0.627542 73.5 1.40233C73.5 3.27794 72.5353 4.19647 71.313 5.3604C69.4542 6.74871 68.3189 8.99243 68.25 11.415C68.3189 13.8357 69.4542 16.0812 71.313 17.4695Z" fill="#C4C4C4"/>
</svg>
