<svg width="143" height="154" viewBox="0 0 143 154" fill="none" xmlns="http://www.w3.org/2000/svg">
<path d="M51.241 49.2922L9.7569 38.0932C9.08926 37.9084 8.40276 37.8141 7.70872 37.8178C3.84622 37.8028 0.57215 40.6581 0.0667055 44.4867C-0.438739 48.3152 1.97532 51.925 5.70958 52.9133L46.3035 63.8709C46.4582 76.4466 54.93 87.3966 67.0682 90.7047L106.602 101.376C113.807 103.329 121.494 102.337 127.967 98.6183C134.439 94.8991 139.169 88.7546 141.108 81.5463L142.108 77.8347C143.145 73.9948 139.105 69.9965 129.396 65.2363C119.355 60.5591 108.907 56.8097 98.1832 54.0336C94.0077 52.902 61.5649 44.3886 51.241 49.2922ZM7.05617 47.9644C5.69072 47.591 4.88729 46.1841 5.26071 44.8186C5.63414 43.4532 7.04108 42.6497 8.40653 43.0232L47.9293 53.6941L47.2578 56.1647C47.0315 56.9983 46.8618 57.8357 46.7147 58.6731L7.05617 47.9644ZM107.938 96.423L68.4073 85.7521C61.4518 83.8623 55.7863 78.8154 53.1082 72.1202C58.4229 75.1717 63.9941 77.7517 69.7577 79.8263C70.0443 79.9319 70.3536 79.9885 70.6592 79.9885C71.8964 79.9885 72.9563 79.1059 73.1751 77.8875C73.3976 76.6692 72.7149 75.4697 71.5569 75.0359C61.8139 71.3658 54.5151 67.5938 51.5353 64.6894C51.5051 64.6592 51.4636 64.6517 51.4334 64.6253C51.3504 62.8826 51.4636 61.1399 51.7767 59.4237C57.7552 63.7539 64.3524 67.1562 71.3457 69.5213L72.4207 69.9211C73.0845 70.17 73.7484 70.4115 74.4047 70.6491C78.6821 72.2069 83.2764 73.7195 88.0706 75.0962C90.0245 75.6696 91.4804 76.0694 92.1632 76.2542C93.8681 76.7144 95.5617 77.152 97.2403 77.5593C97.6288 77.6574 98.0097 77.7479 98.402 77.8385C99.7675 78.1704 101.118 78.4835 102.461 78.7815L103.37 78.9776C104.886 79.3171 106.38 79.6302 107.851 79.9055C107.956 79.9244 108.058 79.947 108.16 79.9659C113.169 80.9353 117.884 81.6406 122.128 82.0593L122.26 82.0706C123.108 82.1536 123.957 82.2366 124.764 82.2932C125.251 82.3309 125.696 82.346 126.16 82.3724H126.296C127.574 82.4441 128.823 82.4931 129.955 82.4931C131.825 82.5119 133.693 82.3724 135.537 82.0782C131.444 93.3036 119.461 99.5235 107.938 96.423ZM115.655 76.0807C114.354 75.8808 113.033 75.6658 111.672 75.4244L110.966 75.3037C109.224 74.9831 107.44 74.6323 105.618 74.2476L105.165 74.1495C103.539 73.8025 101.884 73.4215 100.213 73.0254L99.1036 72.7689C97.2516 72.3201 95.3844 71.8448 93.506 71.3356C91.6276 70.8264 89.7717 70.2983 87.9423 69.7514C87.5765 69.642 87.2219 69.5326 86.8635 69.427C85.219 68.9328 83.6008 68.4236 82.0241 67.8918L81.5639 67.7447C79.8024 67.1638 78.0937 66.5716 76.4303 65.9681L75.7287 65.7116C74.45 65.2401 73.209 64.7648 71.9944 64.2858C71.7153 64.1802 71.4362 64.067 71.1646 63.9576C78.9235 65.1496 86.6033 66.7866 94.1736 68.8574C101.759 70.883 109.22 73.3385 116.523 76.2203L115.655 76.0807ZM137.023 76.4579C135.092 77.201 133.017 77.5141 130.954 77.3821C119.706 71.5242 107.813 67.0016 95.5127 63.9124C83.3368 60.3629 70.7836 58.277 58.1136 57.6924C56.2615 56.7645 54.632 55.4518 53.3269 53.8412C56.1672 52.0872 72.1566 52.306 96.8442 58.9748C121.536 65.6475 135.458 73.5196 137.023 76.4579V76.4579Z" fill="#C4C4C4"/>
<path d="M90.7451 8.95469C90.7602 12.3985 92.748 15.533 95.8637 17.0079V25.5853C95.8637 26.9998 97.0104 28.1427 98.4211 28.1427H108.654C110.069 28.1427 111.212 26.996 111.212 25.5853V17.0154C114.999 15.2275 117.036 11.0519 116.115 6.97064C115.199 2.88559 111.563 -0.0112829 107.38 3.30358e-05H99.7036C94.7585 3.30358e-05 90.7451 4.00964 90.7451 8.95469ZM100.982 23.0279V17.9094H106.101V23.0279H100.982ZM111.216 8.95469C111.216 11.0745 109.496 12.7908 107.376 12.7908H99.6998C97.5799 12.7908 95.8599 11.0745 95.8599 8.95469C95.8599 6.83484 97.5799 5.1186 99.6998 5.1186H107.376C109.499 5.1186 111.216 6.83484 111.216 8.95469Z" fill="#C4C4C4"/>
<path d="M139.407 33.1179C139.475 32.4427 139.271 31.7676 138.845 31.2395L130.762 21.323C130.332 20.7987 129.713 20.463 129.038 20.3988C128.363 20.3196 127.684 20.5233 127.163 20.9571L117.247 29.0404C116.149 29.9306 115.983 31.545 116.877 32.6389L124.961 42.5554C125.391 43.0797 126.009 43.4154 126.684 43.4833C126.767 43.4871 126.854 43.4871 126.941 43.4833C127.529 43.4833 128.103 43.2796 128.559 42.9062L138.476 34.8266C139 34.4042 139.336 33.7893 139.407 33.1179ZM127.314 37.3388L122.452 31.3904L128.401 26.5283L133.263 32.4805L127.314 37.3388Z" fill="#C4C4C4"/>
<path d="M90.745 23.028C90.745 17.3776 86.1621 12.7947 80.5117 12.7947C74.8613 12.7947 70.2783 17.3776 70.2783 23.028C70.2783 28.6784 74.8613 33.2614 80.5117 33.2614C86.1659 33.2614 90.745 28.6784 90.745 23.028ZM80.5117 28.1466C77.6865 28.1466 75.3931 25.857 75.3931 23.028C75.3931 20.2028 77.6827 17.9095 80.5117 17.9095C83.3369 17.9095 85.6302 20.199 85.6302 23.028C85.6302 25.8532 83.3407 28.1466 80.5117 28.1466Z" fill="#C4C4C4"/>
<path d="M112.332 151.769L114.776 144.425C116.7 138.642 116.112 132.317 113.158 126.987L104.46 111.337C103.891 110.326 102.71 109.825 101.586 110.119C100.462 110.409 99.6773 111.42 99.6697 112.582V126.655C99.6697 127.115 99.6471 127.575 99.6094 128.036C99.07 126.086 98.3043 124.207 97.3235 122.438L86.8903 103.661C86.3245 102.643 85.1401 102.134 84.0123 102.428C82.8844 102.722 82.0961 103.74 82.0961 104.906V121.793C82.0886 126.221 80.6514 130.525 78.0035 134.075C77.0567 135.35 76.2307 136.711 75.5366 138.137C75.216 137.628 74.8916 137.115 74.5295 136.64C72.3833 133.754 71.214 130.257 71.2026 126.663V112.586C71.2026 111.42 70.4143 110.402 69.2865 110.111C68.1587 109.821 66.9743 110.326 66.4085 111.345L57.7065 126.998C54.7493 132.328 54.1609 138.65 56.0808 144.432L58.5364 151.776C58.8834 152.821 59.8603 153.523 60.9617 153.523H109.907C111.004 153.519 111.985 152.814 112.332 151.769ZM60.9316 142.814C59.4643 138.394 59.9169 133.558 62.1725 129.484L66.0765 122.457V126.655C66.0916 131.359 67.6155 135.93 70.4256 139.706C71.7383 141.445 72.6775 143.433 73.1867 145.553C73.0509 146.496 72.9642 147.446 72.9302 148.401H62.8025L60.9316 142.814ZM78.0261 148.401C78.2374 144.327 79.6556 140.412 82.0923 137.141C85.4041 132.709 87.1996 127.323 87.2109 121.789V114.773L92.8387 124.924C95.2263 129.235 95.9807 134.259 94.9661 139.084C94.7133 140.302 95.3697 141.524 96.5239 141.981C97.6781 142.441 98.9945 142.003 99.6471 140.947L99.9036 140.502C100.058 140.223 100.228 139.959 100.417 139.702C103.23 135.934 104.754 131.355 104.766 126.651V122.453L108.685 129.465C110.944 133.543 111.393 138.378 109.922 142.803L108.059 148.401H78.0261V148.401Z" fill="#C4C4C4"/>
</svg>
