<svg width="113" height="85" viewBox="0 0 113 85" fill="none" xmlns="http://www.w3.org/2000/svg">
<path d="M23.7624 56.7776C23.2084 57.6524 23.4115 58.8491 24.2148 59.4523C25.0182 60.0555 26.1173 59.8344 26.6712 58.9597C26.6823 58.9405 26.6933 58.9236 26.7043 58.9044C32.8421 48.7895 43.2328 42.7047 54.3673 42.7071C55.3428 42.7071 56.1329 41.8467 56.1329 40.7845C56.1329 39.7223 55.3428 38.862 54.3673 38.862C42.0498 38.8596 30.5534 45.5885 23.7624 56.7776Z" fill="#C4C4C4"/>
<path d="M111.234 81.1574H100.641V78.8359C100.683 66.3803 96.0169 54.4558 87.7405 45.8573C87.0541 45.1027 85.9374 45.0955 85.2444 45.8429C84.5514 46.5902 84.5447 47.8063 85.2311 48.5608C85.251 48.5849 85.2731 48.6065 85.2951 48.6281C92.8763 56.5057 97.1469 67.4281 97.1116 78.8359V81.1574H15.8906V78.8359C15.9149 55.7079 33.1275 36.9656 54.368 36.9391H58.6342C61.9139 36.9367 65.1803 37.3885 68.3562 38.2849C69.2897 38.5901 70.2741 38.0109 70.5544 36.9944C70.8347 35.9779 70.3028 34.9061 69.3692 34.6008C69.3273 34.5864 69.2831 34.5744 69.239 34.5648C66.8002 33.8799 64.3107 33.4353 61.7991 33.2359V27.3265C61.7991 26.2643 61.009 25.4039 60.0335 25.4039H52.971C51.9954 25.4039 51.2053 26.2643 51.2053 27.3265V33.2359C29.3094 35.0623 12.3903 54.9244 12.3616 78.8335V81.155H1.76562C0.790117 81.155 0 82.0153 0 83.0775C0 84.1397 0.790117 85.0001 1.76562 85.0001H111.234C112.21 85.0001 113 84.1397 113 83.0775C113 82.0153 112.21 81.1574 111.234 81.1574ZM54.7344 29.249H58.2656V33.0941H54.7344V29.249Z" fill="#C4C4C4"/>
<path d="M74.7455 34.8243C72.2472 36.7252 70.7199 39.8013 70.625 43.1176C70.625 44.1798 71.4151 45.0402 72.3906 45.0402C73.3661 45.0402 74.1563 44.1798 74.1563 43.1176C74.1563 40.5438 75.454 39.2822 77.0982 37.6841C79.5988 35.7808 81.1261 32.7023 81.2188 29.3811C81.1261 26.0599 79.5988 22.9839 77.0982 21.0806C75.454 19.4825 74.1563 18.2208 74.1563 15.6494C74.1563 13.078 75.454 11.8188 77.0982 10.2207C79.5988 8.31736 81.1261 5.24131 81.2188 1.92253C81.2188 0.860334 80.4286 0 79.4531 0C78.4776 0 77.6875 0.860334 77.6875 1.92253C77.6875 4.49392 76.3898 5.75318 74.7455 7.34889C72.245 9.25219 70.7177 12.3282 70.625 15.6494C70.7177 18.9682 72.245 22.0467 74.7455 23.95C76.3898 25.5481 77.6875 26.8097 77.6875 29.3835C77.6875 31.9573 76.3898 33.2166 74.7455 34.8243Z" fill="#C4C4C4"/>
<path d="M85.3393 23.95C86.9835 25.5481 88.2813 26.8097 88.2813 29.3835C88.2813 31.9573 86.9835 33.2286 85.3393 34.8195C82.8387 36.7228 81.3114 39.8013 81.2188 43.12C81.2188 44.1822 82.0089 45.0426 82.9844 45.0426C83.9599 45.0426 84.75 44.1822 84.75 43.12C84.75 40.5462 86.0477 39.2846 87.692 37.6865C90.1925 35.7832 91.7198 32.7047 91.8125 29.3835C91.7198 26.0623 90.1925 22.9863 87.692 21.083C86.0477 19.4849 84.75 18.2232 84.75 15.6518C84.75 13.0804 86.0477 11.8212 87.692 10.2231C90.1925 8.31736 91.7198 5.24131 91.8125 1.92253C91.8125 0.860334 91.0224 0 90.0469 0C89.0714 0 88.2813 0.860334 88.2813 1.92253C88.2813 4.49392 86.9835 5.75318 85.3393 7.34889C82.8387 9.25219 81.3114 12.3282 81.2188 15.6494C81.3114 18.9682 82.8387 22.0467 85.3393 23.95Z" fill="#C4C4C4"/>
<path d="M95.933 23.95C97.5773 25.5481 98.875 26.8097 98.875 29.3835C98.875 31.9573 97.5773 33.2286 95.933 34.8195C93.4325 36.7228 91.9052 39.8013 91.8125 43.12C91.8125 44.1822 92.6026 45.0426 93.5781 45.0426C94.5536 45.0426 95.3437 44.1822 95.3437 43.12C95.3437 40.5462 96.6415 39.2846 98.2857 37.6865C100.786 35.7832 102.314 32.7047 102.406 29.3835C102.314 26.0623 100.786 22.9863 98.2857 21.083C96.6415 19.4849 95.3437 18.2232 95.3437 15.6518C95.3437 13.0804 96.6415 11.8212 98.2857 10.2231C100.786 8.31736 102.314 5.24131 102.406 1.92253C102.406 0.860334 101.616 0 100.641 0C99.6651 0 98.875 0.860334 98.875 1.92253C98.875 4.49392 97.5773 5.75318 95.933 7.34889C93.4325 9.25219 91.9052 12.3282 91.8125 15.6494C91.9052 18.9682 93.4325 22.0467 95.933 23.95Z" fill="#C4C4C4"/>
</svg>
