<svg width="121" height="117" viewBox="0 0 121 117" fill="none" xmlns="http://www.w3.org/2000/svg">
<path d="M43.5723 37.4625L8.29668 28.9512C7.72896 28.8108 7.14521 28.7391 6.55503 28.742C3.2706 28.7305 0.486522 30.9006 0.0567224 33.8103C-0.373077 36.72 1.6797 39.4634 4.85508 40.2145L39.3738 48.5423C39.5053 58.0998 46.7092 66.4219 57.0308 68.936L90.6482 77.0459C96.7744 78.5308 103.311 77.7769 108.815 74.9503C114.319 72.1237 118.341 67.4539 119.99 61.9756L120.84 59.1548C121.722 56.2365 118.287 53.1978 110.031 49.58C101.493 46.0253 92.608 43.1758 83.4892 41.0659C79.9385 40.2059 52.3511 33.7358 43.5723 37.4625ZM6.00014 36.4534C4.83904 36.1696 4.15585 35.1003 4.47339 34.0626C4.79093 33.0248 5.98731 32.4142 7.14841 32.698L40.7562 40.8079L40.1852 42.6856C39.9928 43.3191 39.8485 43.9555 39.7234 44.5919L6.00014 36.4534ZM91.7836 73.2819L58.1695 65.172C52.2549 63.7358 47.4373 59.9001 45.16 54.8117C49.6793 57.1309 54.4167 59.0917 59.3177 60.6684C59.5615 60.7487 59.8245 60.7917 60.0843 60.7917C61.1364 60.7917 62.0377 60.1209 62.2237 59.1949C62.4129 58.269 61.8324 57.3574 60.8477 57.0277C52.5628 54.2384 46.3564 51.3717 43.8225 49.1643C43.7968 49.1414 43.7616 49.1357 43.7359 49.1156C43.6653 47.7912 43.7616 46.4668 44.0278 45.1624C49.1116 48.4534 54.7214 51.0392 60.6681 52.8366L61.5822 53.1404C62.1467 53.3296 62.7112 53.5131 63.2693 53.6937C66.9066 54.8777 70.8133 56.0272 74.8899 57.0736C76.5514 57.5093 77.7895 57.8132 78.37 57.9536C79.8198 58.3034 81.26 58.6359 82.6873 58.9455C83.0177 59.02 83.3416 59.0888 83.6752 59.1576C84.8363 59.4099 85.9846 59.6479 87.1264 59.8743L87.8994 60.0234C89.1888 60.2814 90.459 60.5193 91.7099 60.7286C91.7997 60.7429 91.8863 60.7601 91.9729 60.7745C96.2324 61.5112 100.242 62.0473 103.85 62.3655L103.962 62.3741C104.684 62.4372 105.406 62.5002 106.092 62.5432C106.506 62.5719 106.884 62.5834 107.279 62.6034H107.394C108.482 62.6579 109.543 62.6952 110.506 62.6952C112.096 62.7095 113.684 62.6034 115.253 62.3798C111.773 70.9111 101.582 75.6383 91.7836 73.2819ZM98.3461 57.8218C97.2395 57.6698 96.1169 57.5064 94.959 57.323L94.3592 57.2312C92.8774 56.9876 91.3603 56.721 89.8111 56.4285L89.4262 56.354C88.0437 56.0903 86.6357 55.8007 85.2148 55.4997L84.2718 55.3048C82.6969 54.9637 81.1092 54.6025 79.5119 54.2155C77.9146 53.8285 76.3365 53.4271 74.7809 53.0114C74.4698 52.9283 74.1683 52.8452 73.8636 52.7649C72.4651 52.3894 71.0891 52.0024 69.7484 51.5982L69.3571 51.4864C67.8592 51.0449 66.4062 50.5948 64.9917 50.1361L64.3951 49.9412C63.3078 49.5829 62.2526 49.2217 61.2198 48.8576C60.9824 48.7773 60.745 48.6913 60.5141 48.6082C67.1119 49.5141 73.6422 50.7582 80.0796 52.332C86.5298 53.8715 92.8742 55.7377 99.0838 57.9278L98.3461 57.8218ZM116.516 58.1084C114.874 58.6732 113.11 58.9111 111.356 58.8108C101.791 54.3588 91.6778 50.9216 81.2183 48.5738C70.8646 45.8762 60.1902 44.2909 49.4163 43.8466C47.8414 43.1414 46.4558 42.1438 45.346 40.9197C47.7613 39.5867 61.3577 39.753 82.3505 44.8213C103.347 49.8925 115.185 55.8753 116.516 58.1084Z" fill="#BFBFBF"/>
<path d="M77.1641 6.8055C77.1769 9.4228 78.8672 11.805 81.5166 12.9259V19.4448C81.5166 20.5198 82.4917 21.3884 83.6912 21.3884H92.3931C93.5959 21.3884 94.5678 20.5169 94.5678 19.4448V12.9316C97.788 11.5728 99.5201 8.39939 98.7375 5.29762C97.958 2.19299 94.866 -0.00863602 91.309 -3.5928e-05H84.7818C80.5768 -3.5928e-05 77.1641 3.04726 77.1641 6.8055ZM85.8691 17.5012V13.611H90.2216V17.5012H85.8691ZM94.571 6.8055C94.571 8.41659 93.1084 9.72094 91.3058 9.72094H84.7786C82.976 9.72094 81.5134 8.41659 81.5134 6.8055C81.5134 5.19442 82.976 3.89007 84.7786 3.89007H91.3058C93.1116 3.89007 94.571 5.19442 94.571 6.8055Z" fill="#BFBFBF"/>
<path d="M118.544 25.17C118.602 24.6568 118.429 24.1437 118.066 23.7424L111.192 16.2058C110.827 15.8073 110.301 15.5522 109.727 15.5035C109.153 15.4433 108.575 15.5981 108.133 15.9277L99.7002 22.0711C98.7668 22.7476 98.6257 23.9746 99.3858 24.8059L106.259 32.3425C106.625 32.7409 107.151 32.9961 107.725 33.0477C107.796 33.0505 107.87 33.0505 107.943 33.0477C108.444 33.0477 108.931 32.8929 109.319 32.6091L117.752 26.4686C118.198 26.1475 118.483 25.6803 118.544 25.17ZM108.261 28.3778L104.126 23.857L109.185 20.1619L113.319 24.6855L108.261 28.3778Z" fill="#BFBFBF"/>
<path d="M77.1654 17.5013C77.1654 13.207 73.2683 9.72394 68.4636 9.72394C63.6588 9.72394 59.7617 13.207 59.7617 17.5013C59.7617 21.7956 63.6588 25.2786 68.4636 25.2786C73.2715 25.2786 77.1654 21.7956 77.1654 17.5013ZM68.4636 21.3914C66.0612 21.3914 64.111 19.6513 64.111 17.5013C64.111 15.3541 66.058 13.6112 68.4636 13.6112C70.8659 13.6112 72.8161 15.3513 72.8161 17.5013C72.8161 19.6484 70.8691 21.3914 68.4636 21.3914Z" fill="#BFBFBF"/>
<path d="M95.5209 115.345L97.5994 109.763C99.2352 105.369 98.7348 100.561 96.2234 96.5105L88.827 84.6165C88.3427 83.8483 87.3387 83.467 86.3829 83.6906C85.4271 83.9113 84.7599 84.6796 84.7535 85.5625V96.2582C84.7535 96.6079 84.7343 96.9577 84.7022 97.3074C84.2435 95.8253 83.5924 94.3977 82.7585 93.0532L73.8866 78.7828C73.4055 78.0088 72.3984 77.6218 71.4393 77.8454C70.4803 78.069 69.81 78.843 69.81 79.7288V92.563C69.8035 95.9285 68.5815 99.1994 66.3299 101.897C65.5248 102.866 64.8224 103.901 64.2322 104.984C63.9596 104.597 63.6837 104.208 63.3758 103.846C61.5507 101.653 60.5564 98.9959 60.5468 96.2639V85.5654C60.5468 84.6796 59.8765 83.9056 58.9174 83.6849C57.9584 83.4641 56.9512 83.8483 56.4701 84.6223L49.0705 96.5191C46.5559 100.57 46.0555 105.374 47.6881 109.769L49.7762 115.35C50.0713 116.144 50.902 116.678 51.8386 116.678H93.4585C94.3919 116.675 95.2259 116.139 95.5209 115.345ZM51.8129 108.539C50.5652 105.179 50.9501 101.504 52.8682 98.4082L56.1879 93.0675V96.2582C56.2007 99.833 57.4965 103.307 59.8861 106.177C61.0023 107.499 61.8009 109.009 62.2339 110.62C62.1185 111.337 62.0447 112.059 62.0158 112.785H53.4038L51.8129 108.539ZM66.3491 112.785C66.5287 109.689 67.7347 106.713 69.8067 104.228C72.6229 100.859 74.1496 96.7656 74.1593 92.5601V87.2281L78.9448 94.9424C80.9751 98.219 81.6166 102.037 80.7538 105.704C80.5389 106.63 81.097 107.559 82.0785 107.906C83.06 108.255 84.1794 107.923 84.7343 107.12L84.9524 106.782C85.0839 106.57 85.2282 106.369 85.3886 106.174C87.7813 103.31 89.0772 99.8301 89.0868 96.2553V93.0647L92.4193 98.3939C94.3406 101.493 94.7223 105.168 93.4714 108.531L91.8869 112.785H66.3491Z" fill="#BFBFBF"/>
</svg>
