<svg width="39" height="24" viewBox="0 0 39 24" fill="none" xmlns="http://www.w3.org/2000/svg">
<path opacity="0.5" d="M38.3414 10.499L35.4386 7.71092C35.3689 7.64409 35.2859 7.59104 35.1945 7.55484C35.1031 7.51864 35.0051 7.5 34.906 7.5C34.807 7.5 34.709 7.51864 34.6176 7.55484C34.5262 7.59104 34.4432 7.64409 34.3735 7.71092C34.2338 7.84452 34.1554 8.02525 34.1554 8.21363C34.1554 8.40201 34.2338 8.58274 34.3735 8.71634L37.0438 11.2762H5.74959C5.55066 11.2762 5.35987 11.3514 5.21921 11.4851C5.07854 11.6188 4.99951 11.8002 4.99951 11.9893C4.99951 12.1784 5.07854 12.3598 5.21921 12.4935C5.35987 12.6272 5.55066 12.7024 5.74959 12.7024H37.0888L34.3735 15.2765C34.3032 15.3428 34.2474 15.4217 34.2093 15.5086C34.1712 15.5955 34.1516 15.6887 34.1516 15.7828C34.1516 15.8769 34.1712 15.9701 34.2093 16.057C34.2474 16.1439 34.3032 16.2228 34.3735 16.2891C34.4432 16.3559 34.5262 16.409 34.6176 16.4452C34.709 16.4814 34.807 16.5 34.906 16.5C35.0051 16.5 35.1031 16.4814 35.1945 16.4452C35.2859 16.409 35.3689 16.3559 35.4386 16.2891L38.3414 13.5224C38.7628 13.1213 38.9995 12.5776 38.9995 12.0107C38.9995 11.4438 38.7628 10.9001 38.3414 10.499Z" fill="#CACACA"/>
</svg>
