<svg width="16" height="19" viewBox="0 0 16 19" fill="none" xmlns="http://www.w3.org/2000/svg">
<path d="M0.955062 4.23449H3.00702C3.16799 4.82678 3.51939 5.34964 4.00699 5.72241C4.4946 6.09518 5.09131 6.29714 5.70508 6.29714C6.31886 6.29714 6.91557 6.09518 7.40318 5.72241C7.89078 5.34964 8.24218 4.82678 8.40315 4.23449H17.4547C17.6536 4.23449 17.8444 4.15548 17.985 4.01483C18.1257 3.87418 18.2047 3.68342 18.2047 3.48451C18.2047 3.2856 18.1257 3.09484 17.985 2.95419C17.8444 2.81354 17.6536 2.73452 17.4547 2.73452H8.40315C8.24218 2.14224 7.89078 1.61938 7.40318 1.24661C6.91557 0.873839 6.31886 0.671875 5.70508 0.671875C5.09131 0.671875 4.4946 0.873839 4.00699 1.24661C3.51939 1.61938 3.16799 2.14224 3.00702 2.73452H0.955062C0.756154 2.73452 0.565393 2.81354 0.424743 2.95419C0.284094 3.09484 0.205078 3.2856 0.205078 3.48451C0.205078 3.68342 0.284094 3.87418 0.424743 4.01483C0.565393 4.15548 0.756154 4.23449 0.955062 4.23449ZM5.70471 2.17204C5.96429 2.17204 6.21804 2.24901 6.43388 2.39323C6.64971 2.53744 6.81794 2.74242 6.91727 2.98225C7.01661 3.22207 7.0426 3.48596 6.99196 3.74056C6.94132 3.99515 6.81632 4.22901 6.63277 4.41257C6.44921 4.59612 6.21535 4.72112 5.96076 4.77176C5.70617 4.8224 5.44227 4.79641 5.20245 4.69707C4.96263 4.59774 4.75765 4.42951 4.61343 4.21368C4.46921 3.99784 4.39224 3.74409 4.39224 3.48451C4.39263 3.13654 4.53104 2.80294 4.77709 2.55689C5.02314 2.31084 5.35674 2.17243 5.70471 2.17204Z" fill="#828282"/>
<path d="M17.4547 8.92178H15.4028C15.242 8.32936 14.8908 7.80631 14.4032 7.43338C13.9157 7.06046 13.3189 6.8584 12.7051 6.8584C12.0912 6.8584 11.4945 7.06046 11.0069 7.43338C10.5193 7.80631 10.1681 8.32936 10.0074 8.92178H0.955062C0.756154 8.92178 0.565393 9.0008 0.424743 9.14144C0.284094 9.28209 0.205078 9.47286 0.205078 9.67176C0.205078 9.87067 0.284094 10.0614 0.424743 10.2021C0.565393 10.3427 0.756154 10.4217 0.955062 10.4217H10.0074C10.1681 11.0142 10.5193 11.5372 11.0069 11.9101C11.4945 12.2831 12.0912 12.4851 12.7051 12.4851C13.3189 12.4851 13.9157 12.2831 14.4032 11.9101C14.8908 11.5372 15.242 11.0142 15.4028 10.4217H17.4547C17.6536 10.4217 17.8444 10.3427 17.985 10.2021C18.1257 10.0614 18.2047 9.87067 18.2047 9.67176C18.2047 9.47286 18.1257 9.28209 17.985 9.14144C17.8444 9.0008 17.6536 8.92178 17.4547 8.92178ZM12.7051 10.9842C12.4455 10.9842 12.1917 10.9073 11.9759 10.763C11.7601 10.6188 11.5918 10.4138 11.4925 10.174C11.3932 9.9342 11.3672 9.67031 11.4178 9.41571C11.4684 9.16112 11.5934 8.92726 11.777 8.74371C11.9606 8.56015 12.1944 8.43515 12.449 8.38451C12.7036 8.33387 12.9675 8.35986 13.2073 8.4592C13.4471 8.55854 13.6521 8.72676 13.7963 8.94259C13.9406 9.15843 14.0175 9.41218 14.0175 9.67176C14.0171 10.0197 13.8787 10.3533 13.6327 10.5994C13.3866 10.8454 13.053 10.9838 12.7051 10.9842Z" fill="#828282"/>
<path d="M17.4547 15.1095H8.40315C8.24218 14.5172 7.89078 13.9944 7.40318 13.6216C6.91557 13.2488 6.31886 13.0469 5.70508 13.0469C5.09131 13.0469 4.4946 13.2488 4.00699 13.6216C3.51939 13.9944 3.16799 14.5172 3.00702 15.1095H0.955062C0.756154 15.1095 0.565393 15.1885 0.424743 15.3292C0.284094 15.4698 0.205078 15.6606 0.205078 15.8595C0.205078 16.0584 0.284094 16.2492 0.424743 16.3898C0.565393 16.5305 0.756154 16.6095 0.955062 16.6095H3.00702C3.16799 17.2018 3.51939 17.7246 4.00699 18.0974C4.4946 18.4702 5.09131 18.6721 5.70508 18.6721C6.31886 18.6721 6.91557 18.4702 7.40318 18.0974C7.89078 17.7246 8.24218 17.2018 8.40315 16.6095H17.4547C17.6536 16.6095 17.8444 16.5305 17.985 16.3898C18.1257 16.2492 18.2047 16.0584 18.2047 15.8595C18.2047 15.6606 18.1257 15.4698 17.985 15.3292C17.8444 15.1885 17.6536 15.1095 17.4547 15.1095ZM5.70471 17.172C5.44513 17.172 5.19137 17.095 4.97554 16.9508C4.7597 16.8066 4.59148 16.6016 4.49214 16.3618C4.39281 16.1219 4.36681 15.8581 4.41746 15.6035C4.4681 15.3489 4.5931 15.115 4.77665 14.9315C4.9602 14.7479 5.19406 14.6229 5.44866 14.5723C5.70325 14.5216 5.96715 14.5476 6.20697 14.6469C6.44679 14.7463 6.65177 14.9145 6.79599 15.1303C6.94021 15.3462 7.01718 15.5999 7.01718 15.8595C7.01659 16.2074 6.87812 16.5409 6.63211 16.7869C6.3861 17.0329 6.05262 17.1714 5.70471 17.172Z" fill="#828282"/>
</svg>
