<svg width="16" height="24" viewBox="0 0 16 24" fill="none" xmlns="http://www.w3.org/2000/svg">
<path d="M11.045 -0.000226562C11.018 -0.00122656 4.982 -0.00122656 4.955 -0.000226562C2.219 0.0237734 0 2.25777 0 4.99877V18.9988C0 21.7558 2.243 23.9988 5 23.9988H11C13.757 23.9988 16 21.7558 16 18.9988V4.99977C16 2.25777 13.781 0.0247734 11.045 -0.000226562ZM14 18.9988C14 20.6528 12.654 21.9988 11 21.9988H5C3.346 21.9988 2 20.6528 2 18.9988V4.99977C2 3.54677 3.038 2.33277 4.411 2.05777L5.105 3.44677C5.274 3.78577 5.621 3.99977 6 3.99977H10C10.379 3.99977 10.725 3.78577 10.895 3.44677L11.589 2.05777C12.962 2.33177 14 3.54677 14 4.99977V18.9998V18.9988ZM9 19.9988H7C6.448 19.9988 6 19.5508 6 18.9988C6 18.4468 6.448 17.9988 7 17.9988H9C9.552 17.9988 10 18.4468 10 18.9988C10 19.5508 9.552 19.9988 9 19.9988Z" fill="#6B4C9F"/>
</svg>
