<svg width="21" height="21" viewBox="0 0 21 21" fill="none" xmlns="http://www.w3.org/2000/svg">
<path d="M9.5 13.5H11.5V15.5H9.5V13.5ZM9.5 5.5H11.5V11.5H9.5V5.5ZM10.5 0.5C4.97 0.5 0.5 5 0.5 10.5C0.5 13.1522 1.55357 15.6957 3.42893 17.5711C4.35752 18.4997 5.45991 19.2362 6.67317 19.7388C7.88642 20.2413 9.18678 20.5 10.5 20.5C13.1522 20.5 15.6957 19.4464 17.5711 17.5711C19.4464 15.6957 20.5 13.1522 20.5 10.5C20.5 9.18678 20.2413 7.88642 19.7388 6.67317C19.2362 5.45991 18.4997 4.35752 17.5711 3.42893C16.6425 2.50035 15.5401 1.76375 14.3268 1.2612C13.1136 0.758658 11.8132 0.5 10.5 0.5ZM10.5 18.5C8.37827 18.5 6.34344 17.6571 4.84315 16.1569C3.34285 14.6566 2.5 12.6217 2.5 10.5C2.5 8.37827 3.34285 6.34344 4.84315 4.84315C6.34344 3.34285 8.37827 2.5 10.5 2.5C12.6217 2.5 14.6566 3.34285 16.1569 4.84315C17.6571 6.34344 18.5 8.37827 18.5 10.5C18.5 12.6217 17.6571 14.6566 16.1569 16.1569C14.6566 17.6571 12.6217 18.5 10.5 18.5Z" fill="white"/>
</svg>
