<svg width="14" height="16" viewBox="0 0 14 16" fill="none" xmlns="http://www.w3.org/2000/svg">
<path d="M12.625 7.15625H3.83594V3.21875C3.83594 2.67559 4.27715 2.23438 4.82032 2.23438H9.17969C9.72286 2.23438 10.1641 2.67559 10.1641 3.21875V4.41406C10.1641 4.49141 10.2274 4.55469 10.3047 4.55469H11.2891C11.3664 4.55469 11.4297 4.49141 11.4297 4.41406V3.21875C11.4297 1.97598 10.4225 0.96875 9.17969 0.96875H4.82032C3.57754 0.96875 2.57031 1.97598 2.57031 3.21875V7.15625H1.375C1.06387 7.15625 0.8125 7.40762 0.8125 7.71875V14.4688C0.8125 14.7799 1.06387 15.0312 1.375 15.0312H12.625C12.9361 15.0312 13.1875 14.7799 13.1875 14.4688V7.71875C13.1875 7.40762 12.9361 7.15625 12.625 7.15625ZM11.9219 13.7656H2.07813V8.42188H11.9219V13.7656ZM6.50782 11.3223V12.2539C6.50782 12.3313 6.5711 12.3945 6.64844 12.3945H7.35157C7.42891 12.3945 7.49219 12.3313 7.49219 12.2539V11.3223C7.6373 11.2181 7.7456 11.0706 7.80152 10.9009C7.85743 10.7313 7.85808 10.5482 7.80336 10.3782C7.74864 10.2082 7.64138 10.0599 7.49701 9.95468C7.35265 9.84948 7.17863 9.7928 7.00001 9.7928C6.82138 9.7928 6.64736 9.84948 6.503 9.95468C6.35863 10.0599 6.25137 10.2082 6.19665 10.3782C6.14193 10.5482 6.14258 10.7313 6.19849 10.9009C6.25441 11.0706 6.36272 11.2181 6.50782 11.3223Z" fill="#9CCB3B"/>
</svg>
