<svg width="692" height="270" viewBox="0 0 692 270" fill="none" xmlns="http://www.w3.org/2000/svg">
<rect width="692" height="270" fill="#F9F9F9"/>
<path d="M288.708 158.518C287.736 159.959 288.092 161.93 289.502 162.923C290.912 163.917 292.841 163.553 293.814 162.112C293.833 162.08 293.852 162.052 293.872 162.021C304.644 145.361 322.882 135.339 342.425 135.343C344.137 135.343 345.524 133.926 345.524 132.176C345.524 130.427 344.137 129.01 342.425 129.01C320.805 129.006 300.627 140.089 288.708 158.518Z" fill="#D8D8D8"/>
<path d="M442.234 198.671H423.641V194.847C423.714 174.332 415.525 154.692 400.999 140.53C399.794 139.287 397.834 139.275 396.618 140.506C395.401 141.737 395.39 143.74 396.594 144.983C396.629 145.022 396.668 145.058 396.707 145.093C410.013 158.068 417.508 176.058 417.446 194.847V198.671H274.891V194.847C274.933 156.754 305.144 125.884 342.425 125.841H349.912C355.669 125.837 361.402 126.581 366.976 128.057C368.615 128.56 370.342 127.606 370.834 125.932C371.326 124.258 370.393 122.492 368.754 121.99C368.681 121.966 368.603 121.946 368.526 121.93C364.245 120.802 359.876 120.07 355.467 119.741V110.008C355.467 108.259 354.081 106.842 352.368 106.842H339.973C338.26 106.842 336.874 108.259 336.874 110.008V119.741C298.443 122.75 268.747 155.464 268.697 194.843V198.667H250.099C248.387 198.667 247 200.084 247 201.833C247 203.583 248.387 205 250.099 205H442.234C443.946 205 445.333 203.583 445.333 201.833C445.333 200.084 443.946 198.671 442.234 198.671ZM343.068 113.175H349.266V119.508H343.068V113.175Z" fill="#D8D8D8"/>
<path d="M378.189 122.358C373.804 125.488 371.124 130.555 370.957 136.017C370.957 137.767 372.344 139.184 374.056 139.184C375.768 139.184 377.155 137.767 377.155 136.017C377.155 131.778 379.433 129.7 382.319 127.068C386.707 123.933 389.388 118.862 389.551 113.392C389.388 107.922 386.707 102.856 382.319 99.7209C379.433 97.0887 377.155 95.0107 377.155 90.7755C377.155 86.5402 379.433 84.4662 382.319 81.834C386.707 78.6991 389.388 73.6327 389.551 68.1665C389.551 66.417 388.164 65 386.452 65C384.74 65 383.353 66.417 383.353 68.1665C383.353 72.4017 381.075 74.4758 378.189 77.104C373.8 80.2389 371.12 85.3053 370.957 90.7755C371.12 96.2417 373.8 101.312 378.189 104.447C381.075 107.079 383.353 109.157 383.353 113.396C383.353 117.635 381.075 119.71 378.189 122.358Z" fill="#D8D8D8"/>
<path d="M396.783 104.447C399.669 107.079 401.947 109.157 401.947 113.396C401.947 117.635 399.669 119.729 396.783 122.35C392.394 125.484 389.713 130.555 389.551 136.021C389.551 137.771 390.938 139.188 392.65 139.188C394.362 139.188 395.749 137.771 395.749 136.021C395.749 131.782 398.026 129.704 400.912 127.072C405.301 123.937 407.982 118.866 408.145 113.396C407.982 107.926 405.301 102.86 400.912 99.7248C398.026 97.0927 395.749 95.0146 395.749 90.7794C395.749 86.5442 398.026 84.4701 400.912 81.838C405.301 78.6991 407.982 73.6327 408.145 68.1665C408.145 66.417 406.758 65 405.046 65C403.333 65 401.947 66.417 401.947 68.1665C401.947 72.4017 399.669 74.4758 396.783 77.104C392.394 80.2389 389.713 85.3053 389.551 90.7755C389.713 96.2417 392.394 101.312 396.783 104.447Z" fill="#D8D8D8"/>
<path d="M415.377 104.447C418.263 107.079 420.54 109.157 420.54 113.396C420.54 117.635 418.263 119.729 415.377 122.35C410.988 125.484 408.307 130.555 408.145 136.021C408.145 137.771 409.531 139.188 411.243 139.188C412.956 139.188 414.342 137.771 414.342 136.021C414.342 131.782 416.62 129.704 419.506 127.072C423.895 123.937 426.576 118.866 426.738 113.396C426.576 107.926 423.895 102.86 419.506 99.7248C416.62 97.0927 414.342 95.0146 414.342 90.7794C414.342 86.5442 416.62 84.4701 419.506 81.838C423.895 78.6991 426.576 73.6327 426.738 68.1665C426.738 66.417 425.352 65 423.639 65C421.927 65 420.54 66.417 420.54 68.1665C420.54 72.4017 418.263 74.4758 415.377 77.104C410.988 80.2389 408.307 85.3053 408.145 90.7755C408.307 96.2417 410.988 101.312 415.377 104.447Z" fill="#D8D8D8"/>
</svg>
