<svg width="228" height="39" viewBox="0 0 228 39" fill="none" xmlns="http://www.w3.org/2000/svg">
<path d="M32.1977 38.4H6.38355C2.85801 38.4 0 41.258 0 44.7835C0 48.3219 2.87806 51.1852 6.41638 51.167L149.183 50.4328C152.714 50.4146 155.567 47.5472 155.567 44.0164V43.3617C155.567 40.1796 152.987 37.6 149.805 37.6H145.48C144.687 37.6 144.043 36.9565 144.043 36.1629C144.043 35.5803 143.692 35.0553 143.153 34.8338L127.245 28.2923C124.206 27.0428 120.952 26.3999 117.667 26.3999H50.1128C46.187 26.3999 42.6493 28.7695 41.1552 32.4C39.6611 36.0304 36.1235 38.4 32.1977 38.4Z" fill="white"/>
<path d="M198.184 39.2003H221.616C225.142 39.2003 228 42.0583 228 45.5838C228 49.1222 225.122 51.9855 221.584 51.9673L78.8166 51.2331C75.2859 51.2149 72.4332 48.3476 72.4332 44.8167V44.162C72.4332 40.9799 75.0128 38.4003 78.1949 38.4003H82.5196C83.3132 38.4003 83.9566 37.7569 83.9566 36.9632C83.9566 36.3806 84.3084 35.8556 84.8472 35.6341L101.509 28.7829C104.057 27.7349 106.76 27.1123 109.511 26.9398L172.434 22.9942C178.125 22.6374 183.435 25.8667 185.735 31.0839C187.91 36.0169 192.793 39.2003 198.184 39.2003Z" fill="white"/>
<path d="M41.1536 35.5556C41.1536 15.9188 57.0723 0 76.7091 0H150.464C170.101 0 186.02 15.9188 186.02 35.5556V44.4445C186.02 64.0812 170.101 80 150.464 80H76.7092C57.0724 80 41.1536 64.0813 41.1536 44.4445V35.5556Z" fill="white"/>
</svg>
