<svg width="24" height="24" viewBox="0 0 24 24" fill="none" xmlns="http://www.w3.org/2000/svg">
<path d="M16.1367 20H20.4701C21.0447 20 21.5958 19.7893 22.0021 19.4142C22.4084 19.0391 22.6367 18.5304 22.6367 18V6C22.6367 5.46957 22.4084 4.96086 22.0021 4.58579C21.5958 4.21071 21.0447 4 20.4701 4H16.1367V6H20.4701V18H16.1367V20Z" fill="#110F1F"/>
<path d="M8.8644 5.65701L10.4027 7.06501L6.15607 11.018L16.0632 11.018C16.3505 11.018 16.626 11.1234 16.8292 11.3109C17.0323 11.4984 17.1465 11.7528 17.1465 12.018C17.1465 12.2832 17.0323 12.5376 16.8292 12.7251C16.626 12.9127 16.3505 13.018 16.0632 13.018L6.13657 13.018L10.4482 16.965L8.9229 18.385L1.99932 12.048L8.8644 5.65701Z" fill="#110F1F"/>
</svg>
