<svg width="14" height="14" viewBox="0 0 14 14" fill="none" xmlns="http://www.w3.org/2000/svg">
<path d="M3.47098 9.62259H9.48411C9.75483 9.62259 9.9744 9.84349 9.9744 10.1159V11.3158C9.9744 12.0683 10.583 12.6803 11.3305 12.6803C12.0784 12.6803 12.6866 12.0679 12.6866 11.3158V1.93838L11.8023 2.72549C11.6161 2.891 11.3362 2.89028 11.1507 2.72371L9.77828 1.4887L8.40548 2.72371C8.21931 2.89135 7.93793 2.89135 7.75176 2.72371L6.37931 1.48906L5.00686 2.72406C4.82176 2.89064 4.5418 2.89171 4.35527 2.72585L3.47063 1.93838V9.62259H3.47098ZM11.3305 13.6668C10.0419 13.6668 8.99382 12.6123 8.99382 11.3158V10.6088H1.31407V11.3158C1.31407 12.0683 1.92231 12.6803 2.67018 12.6803V13.6668C1.38157 13.6668 0.333496 12.6123 0.333496 11.3158V10.1159C0.333496 9.84349 0.55306 9.62259 0.823784 9.62259H2.49041V0.843495C2.49041 0.649397 2.60339 0.473529 2.77925 0.393817C2.95511 0.314462 3.16118 0.345918 3.30542 0.473886L4.67823 1.69567L6.05245 0.459231C6.23862 0.291585 6.51965 0.291585 6.70581 0.459231L8.07862 1.69424L9.45107 0.459231C9.63724 0.291585 9.91862 0.291585 10.1048 0.459231L11.479 1.69567L12.8518 0.473886C12.9964 0.34556 13.2021 0.314104 13.378 0.393817C13.5539 0.473529 13.6668 0.649397 13.6668 0.843495V11.3158C13.6672 12.6123 12.6188 13.6668 11.3305 13.6668Z" fill="#595959"/>
</svg>
