<svg width="32" height="32" viewBox="0 0 32 32" fill="none" xmlns="http://www.w3.org/2000/svg">
<rect x="0.5" y="0.5" width="31" height="31" rx="15.5" fill="none"/>
<rect x="0.5" y="0.5" width="31" height="31" rx="15.5" stroke="#9CCB3B"/>
<path d="M15.4727 9.67188H16.5273C16.6211 9.67188 16.668 9.71875 16.668 9.8125V22.1875C16.668 22.2812 16.6211 22.3281 16.5273 22.3281H15.4727C15.3789 22.3281 15.332 22.2812 15.332 22.1875V9.8125C15.332 9.71875 15.3789 9.67188 15.4727 9.67188Z" fill="#9CCB3B"/>
<path d="M10.0938 15.332H21.9062C22 15.332 22.0469 15.3789 22.0469 15.4727V16.5273C22.0469 16.6211 22 16.668 21.9062 16.668H10.0938C10 16.668 9.95312 16.6211 9.95312 16.5273V15.4727C9.95312 15.3789 10 15.332 10.0938 15.332Z" fill="#9CCB3B"/>
</svg>
